<?xml version="1.0" encoding="UTF-8"?>
<svg version="1.1" viewBox="0 0 1600 1320" width="1280" height="1280" xmlns="http://www.w3.org/2000/svg">
<path transform="translate(1049,1133)" d="m0 0c3 0.32 4.63 0.68 6.94 2.69 1.06 2.31 1.06 2.31 0.39 4.88-1.66 4.28-3.58 8.4-5.52 12.6-4.34 9.44-7.86 19-11.1 28.9-0.73 1.97-0.73 1.97-1.77 3.97-0.99 2.06-1.41 3.79-1.78 6.04-0.12 0.74-0.25 1.49-0.37 2.26-0.13 0.77-0.25 1.53-0.37 2.32-1.32 8.14-1.32 8.14-2.44 10.4-0.37 5.58-0.23 9.22 3 14 2.96 2.55 4.52 2.98 8.44 3.12 4.78-1.5 6.97-3.9 9.56-8.12 0.95-2.36 1.49-4.49 2-7h2c0.11-0.75 0.22-1.5 0.33-2.27 1.06-6.8 2.51-13.2 4.67-19.7 0.3-0.91 0.6-1.82 0.91-2.76 0.65-1.99 1.32-3.98 1.99-5.96 0.78-2.34 1.56-4.68 2.33-7.03 2.35-7.19 4.85-14.3 7.77-21.2 0.62-1.54 0.62-1.54 1.25-3.1 0.44-1.06 0.87-2.12 1.31-3.21 0.59-1.45 0.59-1.45 1.19-2.93 1.24-2.73 2.66-5.22 4.25-7.76l5 1v2c0.99 0.33 1.98 0.66 3 1-1.56 5.67-3.35 11-5.82 16.4-1.83 4.08-3.44 8.24-5.07 12.4-0.97 2.45-1.93 4.88-3.14 7.22-6.68 13.8-9.98 30.9-8.72 46 0.59 2.17 0.59 2.17 2.69 3.25 0.68 0.25 1.36 0.49 2.06 0.75l2 1c3.83 0.52 5.58 0.26 8.89-1.79 4.47-3.92 6.06-9.48 8.11-14.9 3.06-7.94 6.42-15.1 11-22.3 0.5-0.87 0.99-1.73 1.5-2.62 1.98-3.14 4.57-5.19 7.5-7.38 0.97-0.74 1.94-1.48 2.94-2.25 4.06-2.32 7.68-3.34 12.3-2.19 2.54 2.09 3.46 4.45 4.75 7.44 0.41 0.76 0.83 1.53 1.25 2.31 1.38 4.95 0.86 9.4-1.38 14-7.09 11.3-15.9 15.7-28.6 18.9-1.09 0.25-2.18 0.49-3.31 0.75-0.42 4.53-0.42 4.53 1.88 8.31 4.28 3.41 8.16 3.13 13.5 3.12 5.94-0.71 10.5-3.5 15.6-6.43 0.99-0.33 1.98-0.66 3-1 1.01-1.77 1.01-1.77 2-4 3.56-5.85 3.56-5.85 7-7-0.56 10.6-9.49 20.2-17 27-7.23 5.01-14.2 7.45-23 6-4.42-1.73-7.51-4.99-10-9-1.21-2.95-2.16-5.93-3-9-0.74 1.7-0.74 1.7-1.5 3.44-2.92 5.82-7.11 11.8-13 14.8-4.7 1.32-9.11-0.02-13.4-2.26-3.12-2.26-4.56-4.48-5.54-8.09-0.62-3.94-0.62-3.94-0.62-7.94h-2c-0.04 0.66-0.08 1.32-0.12 2-1.27 4.33-3.81 7.72-6.88 11h-2c-0.29 0.64-0.58 1.28-0.88 1.94-1.12 2.06-1.12 2.06-3.12 3.06-5.24 0.67-9.65 0.73-14.1-2.31-0.95-0.89-1.9-1.78-2.88-2.69v-3h-2c-0.7-3.74-1-7.21-1-11l-1-3h-2c0.07 0.89 0.13 1.77 0.2 2.68-0.23 3.85-1.12 5.33-3.39 8.38-0.63 0.86-1.27 1.71-1.92 2.6-2.16 2.67-4.35 5.03-6.89 7.34l-1 1c-4.28 0.46-7.96 0.44-11.9-1.25-2.77-2.36-3.92-4.4-4.29-8.04 0.01-0.77 0.03-1.54 0.04-2.33 0.01-0.78 0.02-1.56 0.02-2.36 0.17-2.02 0.17-2.02 1.17-4.02h-2c-0.14 0.95-0.29 1.9-0.44 2.88-1.61 5.81-6.34 10-10.6 14.1-3.69 1.84-7.96 1.35-12 1-4.15-1.72-6.8-4.08-9-8-2.1-12 2.98-25.6 7.95-36.4 1.35-3.12 1.35-3.12 2.05-8.65h-14c-0.57 1.56-1.13 3.13-1.71 4.74-0.75 2.05-1.49 4.09-2.23 6.14-0.37 1.03-0.74 2.06-1.13 3.12-0.36 0.99-0.71 1.98-1.08 2.99-0.5 1.37-0.5 1.37-1 2.76-0.85 2.25-0.85 2.25-1.85 4.25-0.99-0.33-1.98-0.66-3-1 0.28-1.15 0.55-2.29 0.84-3.47 0.37-1.53 0.73-3.06 1.1-4.59 0.18-0.75 0.36-1.51 0.55-2.28 2.41-9.42 2.41-9.42 0.51-18.7-0.56-8.53 0.84-15.1 6-22 1.94 0.38 1.94 0.38 4 1l1 2c-1 2.38-1 2.38-2.44 5.12-0.47 0.92-0.94 1.83-1.43 2.76-0.37 0.7-0.75 1.4-1.13 2.12 0.91-0.11 0.91-0.11 1.84-0.22 5.86-0.62 11.7-0.99 17.6-1.16 0.68-0.03 1.37-0.07 2.08-0.11 3.59-0.06 5.17 0.22 7.89 2.64 1.81 3.24 2.57 5.12 2.59 8.85-0.94 2.79-2.27 5.3-3.69 7.88-0.35 0.66-0.7 1.33-1.07 2.02-0.71 1.36-1.43 2.71-2.15 4.05-3.93 7.37-7.19 13.9-7.03 22.4 0.75 2.77 0.75 2.77 3.13 4.5 3.89 1.55 6.94 1.73 10.9 0.43 5.91-4.13 7.08-9.73 8.88-16.3 0.49-1.52 0.99-3.05 1.5-4.56 0.25-0.74 0.5-1.48 0.75-2.24 0.49-1.44 0.99-2.87 1.5-4.31 2.28-6.51 3.78-13.2 5.25-19.9h2l1-4c1.62-0.81 1.62-0.81 4-1 3.31 2.06 3.31 2.06 6 5-0.18 5.11-2.39 9.15-4.75 13.6-7.93 14.5-7.93 14.5-9.25 30.4 1.95 2.79 1.95 2.79 5 4 5.52 0.12 8.16-2.42 12-6 2.89-2.89 3.86-5.13 4.5-9.19 0.16-0.93 0.33-1.85 0.5-2.81l2-1c0.69-2.16 1.27-4.36 1.81-6.56 2.09-8.25 4.58-16.3 7.19-24.4 0.34-1.06 0.68-2.12 1.03-3.22 2.4-7.36 5.11-14.6 7.97-21.8 0.44-1.1 0.87-2.21 1.32-3.35 0.43-1.06 0.86-2.12 1.3-3.21 0.58-1.43 0.58-1.43 1.17-2.88 1.17-2.47 2.49-4.45 4.21-6.56zm-48 44 1 2zm108 16.6c-5.49 7.13-5.49 7.13-7.77 15.4 7.1 0.62 13.5-1.19 19.1-5.72 4.78-4.46 4.78-4.46 7.11-10.3 0.3-3.8 0.3-3.8-1.23-6.99-7.82-0.96-12.4 1.31-17.2 7.61zm-77.8 13.4v6h1v-6h-1z" fill="#A3623B"/>
<path transform="translate(480,842)" d="m0 0c5.48-0.12 11-0.21 16.4-0.27 1.87-0.03 3.73-0.06 5.6-0.11 2.68-0.06 5.36-0.09 8.04-0.11 0.83-0.02 1.66-0.05 2.52-0.08 5.81 0 5.81 0 8.81 2.91 0.52 0.88 1.05 1.76 1.59 2.66 0.8 1.01 1.59 2.02 2.41 3.06 0.88 1.12 1.77 2.25 2.65 3.38 0.48 0.6 0.95 1.21 1.45 1.83 2.46 3.14 4.92 6.29 7.37 9.44 4.61 5.93 9.24 11.7 14.4 17.2 1.75 2.06 1.75 2.06 3.63 4.9 2.33 3.48 4.9 6.61 7.62 9.78 0.47 0.56 0.95 1.12 1.43 1.7 2.04 2.39 4.07 4.68 6.3 6.88 2.02 2.06 3.16 4.32 4.53 6.84 1.94 3.07 4.42 5.61 6.87 8.28 2.89 3.27 5.61 6.64 8.31 10.1 0.48 0.6 0.97 1.21 1.47 1.84 2.02 2.58 3.54 4.64 4.59 7.78h2c1.37 1.61 1.37 1.61 2.88 3.75 2.15 3.05 4.46 5.63 7.12 8.25 0.09-12.5 0.16-25 0.21-37.6 0.02-5.82 0.05-11.6 0.09-17.4 0.05-5.61 0.07-11.2 0.08-16.8 0.01-2.14 0.02-4.29 0.04-6.43 0.03-3 0.04-6 0.03-9 0.03-1.32 0.03-1.32 0.05-2.67-0.04-5.81-1.03-9.31-4.5-14-3.16-1.12-3.16-1.12-6.62-1.19-3.48-0.23-3.48-0.23-6.38-0.81-1.18-2.04-1.18-2.04-2-4 6.6-0.03 13.2-0.04 19.8-0.05 2.24-0.01 4.49-0.02 6.73-0.03 3.23-0.01 6.46-0.01 9.69-0.02 1 0 2-0.01 3.04-0.01h2.85c0.82-0.01 1.65-0.01 2.49-0.01 2.55 0.13 4.91 0.56 7.39 1.12-3.1 3.1-7.37 3.06-11.6 3.68-2.26 0.35-2.26 0.35-5.41 1.32-1.54 1.96-1.54 1.96-2 4h-2c-0.87 7.21-1.13 14.3-1.1 21.6 0 1.1 0.01 2.21 0.01 3.36 0 2.39 0.01 4.78 0.01 7.17 0.02 3.8 0.02 7.6 0.03 11.4 0.01 8.75 0.03 17.5 0.06 26.3 0.02 8.65 0.03 17.3 0.05 26 0 3.72 0.01 7.44 0.03 11.2 0.02 11.4-0.04 22.8-1.09 34.1-3.41-1.6-5.35-3.25-7.81-6.12-0.7-0.81-1.39-1.62-2.11-2.45-0.69-0.8-1.37-1.6-2.08-2.43-1.19-1.33-2.37-2.67-3.56-4-2.99-3.42-5.78-6.96-8.54-10.6-2.88-3.68-5.88-7.26-8.88-10.8-1.91-2.44-3.43-4.93-5.02-7.58l-5-5v-2c-1.49-0.5-1.49-0.5-3-1-2.04-2.21-2.04-2.21-4.19-4.94-0.71-0.89-1.43-1.79-2.17-2.71-1.64-2.35-1.64-2.35-1.64-4.35h-2c-1.77-2.05-3.43-4.1-5.06-6.25-0.49-0.63-0.98-1.27-1.49-1.92-3.07-3.98-6.08-7.99-9.07-12-6.02-8.07-12.4-15.8-19.2-23.2-1.21-1.56-1.21-1.56-1.21-3.56-0.99-0.33-1.98-0.66-3-1-0.67-1.33-1.33-2.67-2-4-1.31-1.03-2.64-2.04-4-3-0.02 10.2-0.04 20.4-0.05 30.6-0.01 4.73-0.01 9.47-0.03 14.2-0.14 24.5-0.14 24.5 0.46 48.9 0.03 0.79 0.06 1.58 0.09 2.4 0.27 4.92 0.71 9.82 4.09 13.6 3.04 1.56 5.98 2.13 9.32 2.72 3.15 0.78 5.44 2.74 8.12 4.53h-50l-1-2c0.5-0.99 0.5-0.99 1-2 2.96-0.57 5.93-0.9 8.92-1.24 3.86-0.95 5.39-1.8 8.08-4.76 0.8-3.42 0.78-6.81 0.8-10.3 0.04-1.53 0.04-1.53 0.07-3.09 0.07-3.2 0.1-6.4 0.13-9.6l0.09-5.73c0.08-5.78 0.1-11.6 0.11-17.3 0.01-1.03 0.01-2.06 0.01-3.13 0.02-5.42 0.03-10.8 0.03-16.3 0.01-5.58 0.03-11.2 0.06-16.8 0.02-4.33 0.02-8.65 0.02-13 0.01-2.06 0.01-4.12 0.03-6.19 0.01-2.86 0.01-5.72 0.01-8.58 0.01-0.85 0.01-1.69 0.02-2.56-0.03-4.74-0.54-7.5-3.38-11.5v-2l-4-2v-2c-6.85-2.82-13.9-4.9-21-7l1-2z" fill="#A4623B"/>
<path transform="translate(421,1133)" d="m0 0c3.03 0.33 4.62 0.64 6.88 2.75 1.46 2.92 0.97 4.14 0.12 7.25-1.05 2.07-1.05 2.07-2.31 4.12-2.45 4.24-4.12 8.5-5.72 13.1-0.95 2.71-2 5.36-3.09 8.02-1.57 3.87-2.77 7.72-3.88 11.8-0.66 1.92-1.33 3.83-2 5.75-3.48 10.5-6.96 24.5-3 35.2 2.65 2.12 4.59 2.93 7.94 3.5 4.04-0.66 6.41-2.51 9.06-5.5 1.76-2.85 1.76-2.85 3-6 0.45-1.03 0.91-2.06 1.38-3.12 0.94-2.22 1.85-4.44 2.74-6.68 2.58-6.33 5.27-12.4 8.88-18.2 0.43-0.7 0.86-1.4 1.3-2.12 4.57-6.8 10.7-10.7 18.5-13 4.06 0.15 5.43 1.2 8.19 4.12 2.77 4.8 3.5 9.84 2.64 15.3-2.52 8.94-8.83 14.8-16.5 19.6-2.69 1.39-5.14 1.83-8.14 2.11-0.99 0.49-0.99 0.49-2 1-2.6 1.3-5.13 1.61-8 2 0.78 4.04 1.48 6.46 4.38 9.44 5.74 2.47 11.5 3.08 17.5 0.87 3.16-1.4 6.18-3 9.2-4.68 2.93-1.63 2.93-1.63 5.93-2.63 1.31-2.73 1.31-2.73 2.38-6.12 0.21-0.63 0.42-1.25 0.63-1.89 0.45-1.32 0.89-2.64 1.32-3.97 0.66-1.98 1.32-3.96 2-5.93 1.87-5.52 3.68-11 5.29-16.6 2.87-9.61 2.87-9.61 6.19-11.4 3.12 0 5.36 0.71 8.19 2 1.34 1.77 1.34 1.77 2 4-0.91 2.41-0.91 2.41-2.5 5.06-0.85 1.45-0.85 1.45-1.71 2.94-0.59 0.99-1.18 1.98-1.79 3-8.5 13.5-8.5 13.5-10.3 28.6 1.37 3.53 1.93 4.78 5.31 6.38 3.04 0.58 3.04 0.58 6 0 1.77-1.92 1.77-1.92 3-4h2c0.37-0.99 0.37-0.99 0.75-2 1.25-3 1.25-3 3.19-6.31 2.03-3.96 2.78-7.97 3.5-12.3 3.49-20.8 3.49-20.8 10.6-26.4 3.58-0.44 5.89-0.69 9 1.25 1 1.75 1 1.75 0.67 3.62-0.66 2.1-1.46 3.96-2.45 5.92-0.35 0.72-0.69 1.43-1.05 2.17-0.73 1.47-1.46 2.93-2.2 4.4-3.5 7.2-6.25 14.7-3.97 22.6 3.05 2.58 7.13 2.55 11 3 0.18-1.03 0.18-1.03 0.36-2.08 3.4-15.5 10.3-30 23-39.8 3.67-2.26 6.07-3.13 10.4-3.35 5.08 1.89 6.31 5.3 8.5 10 1.23 5.68 0.45 10.4-1.75 15.7-5.41 8.38-13.2 13.6-22.6 16.5-0.87 0.3-1.74 0.59-2.63 0.9-2.12 0.72-4.24 1.42-6.37 2.1 0.42 4.19 0.42 4.19 2.38 7.81 4.69 3.43 11.1 2.7 16.6 2.19 3.24-0.98 6.06-2.34 9-4 0.93-0.47 1.86-0.95 2.81-1.44 2.63-1.87 4.24-4 6.19-6.56 4.57-4.78 4.57-4.78 7-6-1.49 4.97-3.6 9.42-6 14h-2c-0.26 0.74-0.52 1.49-0.79 2.25-3.39 7.69-10.7 12.3-18.1 15.7-5.36 1.85-10.7 2.44-16.1 0.26-2.89-1.76-3.94-2.96-5.02-6.19h-2c-1.34-4.84-2.25-8.93-2-14-0.85 0.16-0.85 0.16-1.72 0.32-5.79 0.9-9.21 0.72-14.3-2.32-1.88-2.62-1.88-2.62-3-5l-1-1c-0.27 0.64-0.54 1.29-0.81 1.95-4.46 10.3-9.48 21.8-19.2 28-3.57 0.17-4.87-0.91-7.81-2.94-0.72-0.68-1.45-1.36-2.19-2.06v-2l-2-1c-2.56-4.92-3.35-8.35-3-14l-2-1c-0.1 0.74-0.2 1.48-0.3 2.25-1.8 7.09-9.67 13.3-15.7 16.9-5.88 3-11.5 3.83-18 2.81-2.61-1.05-3.88-2.05-6-4l-1-3h-2c-1.19-3.88-2-6.92-2-11-0.99-0.49-0.99-0.49-2-1-0.1 0.73-0.2 1.46-0.3 2.22-1.21 4.8-4.57 8.05-7.7 11.8-0.76 1.01-1.53 2.02-2.31 3.06-3.52 2.54-6 2.59-10.2 2.37-4.53-0.79-7.21-3.16-10.3-6.37-1.37-2.51-1.35-4.24-1.12-7.06h-2c-0.3-10.2-0.34-19.2 3-29 0.43-1.86 0.43-1.86 0.88-3.75 5.2-21 14.2-41.6 23.1-61.2zm28 57v2h-2c-1.75 2.11-1.75 2.11-3.5 4.75-0.61 0.88-1.22 1.76-1.84 2.67-2.91 4.11-2.91 4.11-3.28 8.83 0.2 0.58 0.41 1.15 0.62 1.75l5 1 2-3c1.88-0.67 1.88-0.67 4.12-1.19 5.71-1.71 9.14-5.31 12.9-9.81 1.26-2.52 0.92-3.85 0.56-6.62-0.1-0.82-0.2-1.64-0.31-2.48-0.12-0.94-0.12-0.94-0.25-1.9-6.12-0.5-9.02 0.75-14 4zm97.8 4.86c-3.52 5.05-6.09 8.92-6.75 15.1 9.14-0.79 17.8-3.98 24-11 2.23-3.73 2.32-6.66 2-11-1.91-2.3-1.91-2.3-5.12-2.5-6.6 0.85-10.1 4.22-14.1 9.36zm-152 14.1 1 3z" fill="#A3623B"/>
<path transform="translate(9,842)" d="m0 0c14.4-0.02 28.9-0.04 43.3-0.05 6.71-0.01 13.4-0.01 20.1-0.03 6.47-0.01 12.9-0.01 19.4-0.01 2.47-0.01 4.94-0.01 7.41-0.02h10.4c1.03-0.01 2.06-0.01 3.13-0.01h2.84 2.47c1.98 0.12 1.98 0.12 3.98 1.12 0.32 2.43 0.52 4.75 0.62 7.19 0.06 1.06 0.06 1.06 0.12 2.15 0.34 6.89 0.36 13.8 0.26 20.7h-2v-2h-2c-0.98-2.08-1.96-4.17-2.94-6.25-0.54-1.16-1.09-2.32-1.65-3.52-1.07-2.46-1.9-4.61-2.41-7.23h-2v-2c-7.52-1.61-14.6-2.29-22.3-2.23h-3.11c-2.14 0-4.28 0.01-6.43 0.02-3.29 0.02-6.59 0.02-9.88 0.02-2.09 0.01-4.18 0.02-6.27 0.02-1.48 0-1.48 0-2.99 0.01-0.91 0-1.81 0.01-2.75 0.01-0.8 0.01-1.6 0.01-2.42 0.02-1.85-0.07-1.85-0.07-2.83 1.13-0.25 2.96-0.43 5.9-0.56 8.88-0.07 1.37-0.07 1.37-0.13 2.78-0.32 7.86-0.42 15.7-0.43 23.6-0.01 1.13-0.01 2.26-0.02 3.42 0 1.08 0.01 2.17 0.01 3.28v2.88c0.17 4.09 0.64 8.11 1.13 12.2 5.59 0.05 11.2 0.09 16.8 0.11 1.9 0.01 3.8 0.02 5.7 0.04 2.73 0.03 5.47 0.04 8.2 0.05 1.27 0.01 1.27 0.01 2.56 0.03 6.11 0 10.8-0.46 15.5-4.67 2.97-3.38 4.49-5.89 5.37-10.2 0.17-0.81 0.34-1.61 0.51-2.45 0.18-0.92 0.18-0.92 0.37-1.86 1.48 0.5 1.48 0.5 3 1 0.93 4.7 1.15 9.26 1.13 14 0 0.76 0 1.51 0.01 2.29 0 1.58-0.01 3.17-0.01 4.76 0 2.41 0 4.83 0.01 7.24 0 1.55-0.01 3.1-0.01 4.65 0 0.71 0.01 1.43 0.01 2.17-0.02 4.06-0.36 7.88-1.14 11.9l-2-4h-2c-1-1.96-2-3.91-3-5.88-0.56-1.09-1.11-2.18-1.69-3.3-1.31-2.82-1.31-2.82-1.31-4.82-8.12-2.22-16.1-2.4-24.5-2.56-2.72-0.06-5.44-0.13-8.16-0.19-1.79-0.04-1.79-0.04-3.62-0.08-2.72-0.17-2.72-0.17-3.72-1.17-3.46-0.33-3.46-0.33-7 0-2.34 3.5-2.25 4.88-2.23 9.02v3.75c0.01 1.35 0.03 2.69 0.04 4.04 0.01 1.38 0.02 2.76 0.03 4.15 0.03 3.61 0.08 7.23 0.13 10.8 0.03 2.18 0.05 4.37 0.07 6.55 0.04 4.13 0.12 8.27 0.21 12.4 0.02 1.93 0.02 1.93 0.04 3.89 0.03 1.19 0.07 2.37 0.1 3.59 0.02 1.05 0.04 2.09 0.06 3.17 0.31 2.69 0.31 2.69 2.3 4.24 2.54 1.54 3.91 1.74 6.86 1.76 0.91 0.02 1.82 0.03 2.75 0.04 0.98 0 1.95 0 2.96-0.01 1.52 0.01 1.52 0.01 3.07 0.02 2.15 0.01 4.3 0 6.44 0 3.26-0.01 6.52 0.02 9.78 0.05h6.27c0.97 0.01 1.93 0.02 2.92 0.03 8.97-0.09 17-2.55 23.6-8.75 2.95-3.36 5.08-7.19 7.25-11.1 0.91-1.63 1.83-3.25 2.76-4.87 0.59-1.06 0.59-1.06 1.2-2.15 1.65-2.04 2.79-2.31 5.35-2.67-0.62 2.77-1.24 5.54-1.88 8.31-0.26 1.18-0.26 1.18-0.52 2.38-0.18 0.76-0.35 1.52-0.53 2.3-0.16 0.69-0.31 1.39-0.48 2.11-0.59 1.9-0.59 1.9-2.59 4.9-0.55 1.99-1.05 3.99-1.5 6-0.82 3.65-1.41 5.86-3.5 9v2c-10.9 0.13-21.7 0.26-32.6 0.39-5.05 0.06-10.1 0.12-15.2 0.18-4.89 0.06-9.78 0.12-14.7 0.18l-5.55 0.06c-6.01 0.08-12 0.14-18 0.19-1.35 0.01-1.35 0.01-2.73 0.03-2.71 0.02-5.42 0.03-8.13 0.05-0.82 0-1.63 0.01-2.47 0.02-4.67 0.01-9.07-0.32-13.7-1.1l-1-3c0.88-0.12 1.76-0.24 2.67-0.37 1.16-0.16 2.32-0.33 3.52-0.51 1.15-0.16 2.29-0.32 3.48-0.49 3.06-0.58 5.57-1.19 8.33-2.63 1-3 1.13-4.97 1.13-8.1 0.01-1.06 0.01-2.12 0.02-3.2v-3.51c0-1.22 0-2.44 0.01-3.7 0-3.35 0.01-6.69 0.01-10v-6.28c0.01-7.3 0.02-14.6 0.02-21.9-0.01-6.8 0.01-13.6 0.02-20.4 0.01-5.85 0.02-11.7 0.02-17.5 0-3.49 0-6.97 0.01-10.5 0.01-3.9 0.01-7.79 0-11.7 0.01-1.15 0.01-2.3 0.02-3.49-0.02-5.29-0.09-9.78-2.26-14.7-1.46-0.18-1.46-0.18-2.96-0.37-1.27-0.16-2.54-0.33-3.85-0.51-1.9-0.24-1.9-0.24-3.83-0.49-3.36-0.63-3.36-0.63-6.36-2.63v-2z" fill="#A3623B"/>
<path transform="translate(883,842)" d="m0 0c14.6-0.02 29.2-0.04 43.8-0.05 6.77-0.01 13.5-0.01 20.3-0.03 6.53-0.01 13.1-0.01 19.6-0.01 2.5-0.01 5-0.01 7.49-0.02h10.5c1.04-0.01 2.08-0.01 3.16-0.01h2.86 2.5c1.87 0.12 1.87 0.12 2.87 1.12 0.41 2.77 0.76 5.53 1.06 8.31 0.14 1.22 0.14 1.22 0.27 2.46 0.67 6.42 0.9 12.8 0.67 19.2-1.49-0.5-1.49-0.5-3-1v-2h-2c-0.24-0.72-0.48-1.45-0.73-2.2-3.06-9.67-3.06-9.67-10.1-16.4-5.29-2.13-10.8-1.73-16.4-1.65-1.16 0-2.33 0.01-3.53 0.01-3.71 0.02-7.42 0.05-11.1 0.09-2.52 0.02-5.04 0.03-7.56 0.04-6.17 0.04-12.3 0.09-18.5 0.15-0.03 6.81-0.04 13.6-0.05 20.4-0.01 2.32-0.02 4.63-0.03 6.95-0.01 3.33-0.01 6.67-0.02 10 0 1.03-0.01 2.05-0.01 3.11 0 5.91 0.34 11.6 1.11 17.5 5.53 0.07 11.1 0.13 16.6 0.16 1.87 0.02 3.75 0.04 5.63 0.07 2.71 0.03 5.43 0.05 8.14 0.06 0.83 0.02 1.66 0.03 2.51 0.05 5.71 0 11-0.79 16.1-3.34 1.57-2.27 1.57-2.27 2-5 0.35-0.96 0.71-1.91 1.07-2.89 0.35-0.97 0.7-1.93 1.05-2.92 0.36-0.98 0.71-1.95 1.08-2.96 0.26-0.74 0.53-1.47 0.8-2.23h2c1.18 2.35 1.12 3.74 1.11 6.36v2.73c0 0.97-0.01 1.95-0.01 2.95s-0.01 1.99-0.01 3.02c0 3.19-0.01 6.38-0.03 9.56 0 2.16-0.01 4.32-0.01 6.48-0.01 5.3-0.03 10.6-0.05 15.9h-2v-3h-2c-1-1.96-2-3.91-3-5.88-0.56-1.09-1.11-2.18-1.69-3.3-1.31-2.82-1.31-2.82-1.31-4.82-8.98-2.35-17.7-2.27-26.9-2.21-2.66 0.02-5.31 0.02-7.96 0.02-1.69 0.01-3.37 0.02-5.05 0.02-0.8 0-1.59 0-2.41 0.01-3.62-0.31-3.62-0.31-6.65 1.16-0.1 1.72-0.13 3.44-0.13 5.16 0 1.65 0 1.65-0.01 3.34 0 1.2 0.01 2.4 0.01 3.64 0 1.22 0 2.45-0.01 3.72 0 3.27 0.01 6.54 0.01 9.82 0.01 3.31 0 6.62-0.01 9.94 0 2.52 0.01 5.05 0.01 7.58 0 1.19-0.01 2.38-0.01 3.61 0 1.12 0.01 2.23 0.01 3.38v2.97c0.14 3.08 0.33 5.85 1.13 8.84 2.71 2.07 5.18 2.26 8.52 2.29 0.89 0.01 1.77 0.03 2.69 0.04 0.95 0 1.91 0 2.89 0.01 0.99 0 1.98 0.01 3.01 0.02 2.1 0.01 4.2 0.01 6.3 0.01 3.18 0 6.37 0.04 9.55 0.08 2.05 0.01 4.1 0.01 6.14 0.01 0.94 0.02 1.89 0.03 2.86 0.04 9.17-0.06 17.2-2.79 24-9.1 3.6-4.28 6.3-9.12 9.04-14 2.99-5.18 2.99-5.18 4.98-7.43h2c0.21 7.69-2.71 14.8-4.94 22.1-0.54 1.8-0.54 1.8-1.09 3.63-0.35 1.14-0.7 2.29-1.06 3.47-0.32 1.05-0.64 2.1-0.96 3.18-0.93 2.6-1.96 4.67-3.95 6.66-1.47 0.1-2.94 0.12-4.41 0.12h-2.89c-1.05 0-2.1 0-3.19-0.01h-3.34c-3.66 0-7.32 0-11-0.01-2.53 0-5.06-0.01-7.59-0.01-6 0-12-0.01-18-0.02-6.82-0.01-13.6-0.01-20.5-0.02-14-0.01-28.1-0.03-42.1-0.05l2-1v-3c0.89-0.17 1.78-0.34 2.7-0.52 1.17-0.24 2.34-0.48 3.55-0.73 1.16-0.23 2.32-0.46 3.52-0.7 3.59-1.17 5.06-1.97 7.23-5.05 1.12-5.67 1.14-11.2 1.13-17v-2.97c0.01-3.22 0.01-6.45 0-9.68 0-2.26 0-4.52 0.01-6.79 0-4.74 0-9.48-0.01-14.2-0.01-6.03 0-12.1 0-18.1 0.01-4.67 0.01-9.35 0-14 0-2.22 0-4.44 0.01-6.67 0-6.85-0.03-13.7-0.14-20.6-0.01-0.82-0.03-1.64-0.04-2.48-0.05-2.21-0.13-4.42-0.22-6.64-0.04-1.2-0.09-2.4-0.14-3.63-0.72-3.92-2.09-6.18-4.6-9.25-3.17-1-3.17-1-6.62-1.12-3.48-0.26-3.48-0.26-6.38-0.88-1.18-2.04-1.18-2.04-2-4zm113 19v10h1v-10h-1z" fill="#A3613B"/>
<path transform="translate(1424,842)" d="m0 0h114l-2 1v4h2c0.66 8.69 1.16 17.3 1 26-1.48-0.5-1.48-0.5-3-1v-2h-2c-0.79-1.9-1.58-3.79-2.38-5.69-0.66-1.58-0.66-1.58-1.33-3.2-1.29-3.11-1.29-3.11-1.89-5.82-1.98-3.24-4.16-3.58-7.7-4.68-4.88-1.1-9.72-1-14.7-0.94-1.68 0-1.68 0-3.38 0.01-2.35 0-4.69 0.02-7.03 0.04-3.61 0.03-7.21 0.04-10.8 0.05-2.28 0-4.56 0.02-6.84 0.03-1.08 0-2.17 0.01-3.28 0.01-0.99 0.01-1.99 0.02-3.01 0.03-0.87 0.01-1.75 0.01-2.65 0.02-2-0.08-2-0.08-3 1.14-0.1 1.42-0.13 2.85-0.13 4.27 0 1.36 0 1.36-0.01 2.75 0 0.99 0.01 1.99 0.01 3.01s0 2.03-0.01 3.08c0 2.17 0.01 4.33 0.01 6.5 0 3.28 0 6.57-0.01 9.85 0 2.11 0.01 4.21 0.01 6.32 0 0.97-0.01 1.94-0.01 2.95 0.02 6.14 0.41 12.2 1.14 18.3 5.55 0.07 11.1 0.13 16.6 0.16 1.89 0.02 3.77 0.04 5.66 0.07 2.72 0.03 5.44 0.05 8.16 0.06 1.25 0.03 1.25 0.03 2.52 0.05 6.55 0 12.3-0.95 17.4-5.46 1.87-3.32 2.48-6.25 3.03-9.99 0.19-0.62 0.39-1.25 0.59-1.89 0.99-0.33 1.98-0.66 3-1v45c-4.47-3.35-4.47-3.35-5.56-7.44-1.38-4.76-1.38-4.76-4.44-8.56-5.39-1.9-10.2-2.32-15.9-2.38-0.82-0.02-1.65-0.03-2.51-0.05-2.62-0.05-5.25-0.09-7.87-0.13-2.65-0.05-5.29-0.09-7.93-0.15-1.64-0.03-3.28-0.05-4.92-0.08-5.62-0.1-5.62-0.1-7.84-1.21-1.02 3.07-1.13 5.17-1.13 8.39 0 1.65 0 1.65-0.01 3.33 0 1.19 0.01 2.39 0.01 3.61 0 1.23 0 2.45-0.01 3.71 0 2.6 0.01 5.19 0.01 7.78 0 3.97 0 7.93-0.01 11.9 0 2.52 0.01 5.04 0.01 7.56 0 1.18-0.01 2.37-0.01 3.59 0 1.11 0.01 2.22 0.01 3.37v2.94c0.14 3.08 0.33 5.85 1.13 8.83 2.72 2.08 5.23 2.26 8.58 2.32 1.36 0.03 1.36 0.03 2.73 0.06 0.97 0.01 1.93 0.02 2.92 0.03 1 0.02 1.99 0.04 3.01 0.06 3.17 0.06 6.34 0.11 9.51 0.15l6.45 0.12c5.27 0.1 10.5 0.18 15.8 0.26v-2c1.13-0.04 2.27-0.08 3.44-0.12 6.59-0.88 11.4-4.34 15.6-9.36 2.76-3.82 4.77-6.95 5.91-11.5l2-1c1.05-1.98 2.05-3.97 3-6h3c0.12 3.38 0.12 3.38 0 7l-2 2c-0.57 2.11-1.06 4.24-1.5 6.38-1.29 6.22-1.29 6.22-2.45 8.46-1.25 2.58-1.95 5.13-2.67 7.91-0.27 0.98-0.53 1.97-0.79 2.98-0.2 0.75-0.39 1.5-0.59 2.27-10.7 0.13-21.5 0.26-32.2 0.39-4.98 0.06-9.97 0.12-15 0.18-22.3 0.28-44.6 0.53-66.9 0.43v-4c0.82-0.13 1.64-0.27 2.48-0.4 1.62-0.27 1.62-0.27 3.27-0.54 1.07-0.17 2.13-0.35 3.23-0.52 1.5-0.27 1.5-0.27 3.02-0.54 0.77-0.13 1.54-0.25 2.33-0.38 0.55-0.2 1.1-0.41 1.67-0.62l1-3h2c0.02-15.3 0.04-30.7 0.05-46 0.01-7.12 0.01-14.2 0.03-21.4 0.01-6.22 0.01-12.4 0.01-18.6 0.01-3.29 0.01-6.58 0.02-9.86v-11c0.01-1.08 0.01-2.15 0.01-3.26 0.51-11.1 0.51-11.1-2.77-21.4-3.91-2.39-7.97-2.35-12.4-2.75-0.96-0.23-1.91-0.46-2.9-0.69l-2-4z" fill="#A3613B"/>
<path transform="translate(785,838)" d="m0 0v2c1.79 0.09 1.79 0.09 3.62 0.19 5.77 0.58 10.8 2.75 16.2 4.95 3.15 1.11 3.15 1.11 6.01 0.2 3.07-1.85 4.43-4.29 6.22-7.34 0.99 0.5 0.99 0.5 2 1 1.15 3.45 1.33 6.71 1.54 10.3 0.06 1.08 0.06 1.08 0.13 2.19 0.09 1.53 0.17 3.06 0.26 4.59 0.13 2.31 0.27 4.61 0.41 6.92 0.49 8.34 0.8 16.6 0.66 25-3.47-3.97-5.6-8.02-7.81-12.8-6.48-13.4-14.2-21.7-28.2-27.2-4.85-1.44-9.73-1.22-14.8-1.25-1.45-0.03-1.45-0.03-2.92-0.06-7.65-0.04-12.8 1.52-19.6 5-2.69 1.31-2.69 1.31-5.69 1.31-0.26 0.6-0.52 1.2-0.79 1.82-1.3 2.34-2.48 3.39-4.59 4.99-3.53 2.93-5.61 6.09-7.62 10.2-0.62 1.11-0.62 1.11-1.25 2.25-3 5.56-4.75 10.9-6.07 17.1-0.68 2.66-0.68 2.66-1.7 4.51-6.9 15.1-3.1 43.9 2.15 59 5.77 14 15.4 22.8 28.9 29.1 1.28 0.39 2.57 0.75 3.87 1.09 1.03 0.3 2.06 0.6 3.13 0.91l1 2c3.94 0.09 7.87 0.14 11.8 0.19 1.1 0.02 2.2 0.05 3.34 0.07 9.78 0.09 18.2-1.51 26.8-6.26 0.99-0.33 1.98-0.66 3-1l2-2c2-2 2-2 5-3l1-3c2.06-0.69 2.06-0.69 4-1v-3c2.25-1.5 2.25-1.5 5-3 1.35-0.98 2.68-1.98 4-3l-1 4h-2c-0.27 0.58-0.54 1.17-0.81 1.77-1.2 2.26-2.53 4.04-4.19 5.98-0.52 0.61-1.03 1.23-1.56 1.86-1.44 1.39-1.44 1.39-3.44 1.39-0.25 0.62-0.5 1.24-0.75 1.88-1.48 2.52-2.66 2.91-5.25 4.12l-2 3c-6.91 3.97-15.2 6.62-23 8-0.99 0.33-1.98 0.66-3 1-4.35 0.24-8.71 0.19-13.1 0.19-1.19 0.01-2.38 0.02-3.61 0.03-8.5 0.02-16.7-0.17-24.3-4.22-1.42-0.59-2.83-1.17-4.25-1.75-4.81-2.12-8.68-4.96-12.8-8.25-0.99-0.74-1.98-1.49-3-2.25-0.66-0.58-1.32-1.15-2-1.75v-2c-0.9-0.37-0.9-0.37-1.81-0.75-2.51-1.43-3.67-2.82-5.19-5.25v-2h-2c-2.84-3.67-4-5.27-4-10h-2c-0.27-0.81-0.53-1.62-0.8-2.45-0.36-1.07-0.71-2.14-1.08-3.24-0.34-1.05-0.69-2.11-1.05-3.2-0.66-1.9-1.36-3.8-2.13-5.66-5.93-15.5-4.17-37.1 2.26-52.2 1.03-2.46 1.03-2.46 0.8-6.23h3c0.21-0.78 0.41-1.57 0.62-2.38 1.85-4.87 4.31-9.4 7.38-13.6h2c0.16-0.68 0.33-1.36 0.5-2.06 1.91-3.75 4.5-5.76 7.72-8.39 1.88-1.44 1.88-1.44 2.78-3.55 1.64-1.04 3.31-2.03 5-3 0.82-0.54 1.64-1.09 2.48-1.65 17.2-10.9 34.6-11.1 54.5-10.4zm-91 87 1 2z" fill="#A3623B"/>
<path transform="translate(191 842)" d="m0 0h2.63 3.02c1.1 0 2.2 0.01 3.33 0.01h3.49c3.82 0 7.65 0.01 11.5 0.02h7.94c6.26 0 12.5 0.01 18.8 0.02 7.13 0.01 14.2 0.02 21.4 0.02 14.7 0.01 29.3 0.03 44 0.05 2.78 5.13 3.02 7.26 2 13-0.61 7.2-0.61 7.2 1 14 0.04 2.34 0.05 4.67 0 7l-2-1v-3h-2c-0.32-0.81-0.65-1.61-0.98-2.45-0.44-1.06-0.88-2.13-1.33-3.23-0.43-1.06-0.86-2.12-1.3-3.2-3.08-6.91-5.56-9.26-12.4-12.1-0.9-0.41-1.81-0.82-2.75-1.25-5.14-1.18-12.4-2.17-17.2 0.25-1.87 0.07-3.75 0.09-5.62 0.07-1-0.01-2.01-0.02-3.04-0.03-0.77-0.01-1.54-0.02-2.34-0.04-0.04 15.7-0.08 31.5-0.1 47.2-0.01 7.3-0.02 14.6-0.05 21.9-0.02 6.38-0.03 12.8-0.03 19.1-0.01 3.37-0.01 6.74-0.03 10.1-0.01 3.77-0.01 7.55-0.01 11.3-0.01 1.66-0.01 1.66-0.02 3.35-0.36 11.3-0.36 11.3 4.24 21 3.53 1.18 7.03 1.89 10.7 2.48 3.17 0.72 5.03 2.25 7.3 4.52h-63l1-5c0.58 0.04 1.16 0.07 1.76 0.11 5.17 0.18 8.87-0.01 13.2-3.11 1.79-3.55 2.26-6.46 2.28-10.4 0.01-1.07 0.02-2.14 0.04-3.25v-3.53c0.02-1.86 0.02-1.86 0.03-3.75 0.03-3.38 0.05-6.76 0.06-10.1 0.01-3.54 0.04-7.08 0.07-10.6 0.04-6.7 0.08-13.4 0.11-20.1 0.04-7.62 0.09-15.2 0.14-22.9 0.19-24.7 0.19-24.7 0.27-49.3-0.99 0.17-1.99 0.34-3.02 0.51-3.91 0.56-7.71 0.52-11.7 0.43-12.6-0.58-12.6-0.58-23.4 4.56-0.62 0.83-1.24 1.65-1.88 2.5l-2 2c-0.72 2.09-1.38 4.2-2 6.32-1.16 3.99-2.38 7.85-4 11.7h-1c-2.52-10.6-1.29-23.2 0-34 1-1 1-1 2.97-1.12z" fill="#A4623B"/>
<path transform="translate(1251 842)" d="m0 0c1.21-0 2.42-0.01 3.66-0.01 1.31 0 2.62 0 3.98 0.01 1.35-0 2.71-0.01 4.06-0.01 2.84 0 5.69 0 8.53 0.01h10.9c2.8-0.01 5.6-0.01 8.4-0 2-0 3.99-0.01 5.98-0.01 1.22 0 2.43 0.01 3.68 0.01h3.24c2.44 0.11 4.47 0.43 6.79 1.13v2c-1.1 0.18-2.2 0.36-3.33 0.55-1.45 0.25-2.91 0.51-4.36 0.76-0.72 0.12-1.44 0.24-2.19 0.36-4.33 0.77-7.42 1.84-11.1 4.33-0.99 0.33-1.98 0.66-3 1-0.93 13.6-1.17 27.2-1.17 40.8 0 2.14-0.01 4.29-0.01 6.43-0.01 4.46-0.01 8.92-0.01 13.4 0 5.69-0.01 11.4-0.03 17.1-0.01 4.41-0.01 8.83-0.01 13.2 0 2.1-0.01 4.2-0.02 6.3-0.65 15.1-0.65 15.1 2.25 29.8 5.16 3.44 10.4 3.16 16.4 3.17 1.22 0 1.22 0 2.46 0.01h5.14c2.58 0.01 5.17 0.03 7.76 0.04 19.7 0.1 19.7 0.1 36-9.96 3.12-3.46 5.33-6.97 7.22-11.3h2c0.49-1.98 0.49-1.98 1-4h2l-1-3c0.99-0.33 1.98-0.66 3-1 0.31 4.28-0.39 6.95-2.13 10.8-1.03 2.57-1.8 5.16-2.56 7.82-0.28 1.01-0.57 2.02-0.87 3.05-0.59 2.1-1.18 4.2-1.75 6.3-0.29 1-0.58 2-0.88 3.03-0.25 0.91-0.5 1.82-0.76 2.75-1.32 2.79-2.23 3.12-5.05 4.23-2.23 0.25-2.23 0.25-4.7 0.24-0.94 0-1.88 0.01-2.85 0.01-1.02-0.01-2.04-0.02-3.1-0.02h-3.28c-3.58 0-7.16-0.02-10.8-0.04h-7.44c-5.87-0.01-11.7-0.03-17.6-0.05-7.34-0.02-14.7-0.03-22-0.04-13.1-0.02-26.2-0.06-39.3-0.1v-2h2v-2c0.72-0.09 1.45-0.17 2.19-0.26 0.97-0.14 1.94-0.28 2.93-0.43 1.43-0.19 1.43-0.19 2.88-0.38 3.86-1.2 6.66-2.62 9-5.93 0.89-3.97 0.79-7.89 0.73-12 0-1.21 0.01-2.42 0.01-3.67 0.01-3.31-0.01-6.62-0.04-9.93-0.02-3.47-0.02-6.94-0.02-10.4 0-5.83-0.02-11.7-0.07-17.5-0.04-6.74-0.06-13.5-0.06-20.2 0.01-7.18-0.02-14.4-0.04-21.5-0.01-2.06-0.01-4.13-0.01-6.19-0.01-3.85-0.04-7.7-0.07-11.6 0-1.14 0.01-2.28 0.01-3.46-0.07-5.58-0.19-9.84-3.44-14.6-3.85-2.81-8.82-2.81-13.4-3.44-0.85-0.18-1.71-0.37-2.58-0.56l-1-2c2.68-1.34 4.75-1.13 7.76-1.13z" fill="#A2613B"/>
<path transform="translate(1063,842)" d="m0 0c8.15-0.05 16.3-0.08 24.4-0.1 3.78-0.01 7.56-0.03 11.3-0.05 3.65-0.02 7.3-0.03 11-0.04 1.4 0 2.79-0.01 4.18-0.02 1.95-0.02 3.9-0.02 5.85-0.02 1.67 0 1.67 0 3.37-0.01 2.83 0.24 4.47 0.77 6.87 2.24-4.16 2.4-8.33 2.73-13 3.34-3.19 0.71-5.25 1.89-7.97 3.66-0.99 0.33-1.98 0.66-3 1-1.22 5.72-1.14 11.3-1.13 17.1v3.37c-0.01 3.68-0.01 7.35 0 11 0 2.56 0 5.11-0.01 7.67 0 5.35 0 10.7 0.01 16.1 0.01 6.18 0 12.4 0 18.5-0.01 5.96-0.01 11.9 0 17.9 0 2.53 0 5.06-0.01 7.59 0 3.54 0.01 7.07 0.01 10.6 0 1.04 0 2.09-0.01 3.16-0.04 7.06-0.04 7.06 1.14 14 2.43 1.39 2.43 1.39 5 2l1 1c3.1 0.09 6.18 0.12 9.29 0.1 0.93 0 1.86-0.01 2.82-0.01 2.98 0 5.97-0.01 8.95-0.03 2.02 0 4.04-0.01 6.06-0.01 4.96-0.01 9.92-0.03 14.9-0.05v-1c0.62 0 1.23-0.01 1.87-0.01 8.57-0.39 13.7-3.64 19.8-9.55 3.21-4.12 5.35-9.04 7.63-13.7 1.75-2.73 1.75-2.73 3.96-3.62 0.89-0.05 0.89-0.05 1.79-0.11-0.73 5.82-2.71 11-4.98 16.3-1.93 4.62-3.46 9.15-4.64 14-0.27 1.06-0.53 2.13-0.79 3.23-0.2 0.8-0.39 1.61-0.59 2.44-10.7 0.13-21.4 0.26-32.1 0.39-4.97 0.06-9.95 0.12-14.9 0.18-22.6 0.28-45.3 0.52-67.9 0.43l2-1v-3c0.81-0.09 1.62-0.17 2.45-0.26 6.98-0.68 6.98-0.68 12.7-4.24 2.5-3.45 2.94-5.12 2.96-9.32 0-1.02 0.01-2.03 0.02-3.08 0-1.12 0-2.24 0.01-3.4 0-1.18 0.01-2.35 0.02-3.57 0.02-3.91 0.03-7.82 0.04-11.7 0-1.35 0.01-2.7 0.01-4.04 0.02-6.34 0.03-12.7 0.04-19 0.01-7.3 0.04-14.6 0.08-21.9 0.03-5.65 0.04-11.3 0.05-17 0-3.37 0.01-6.74 0.03-10.1 0.03-3.77 0.03-7.54 0.02-11.3 0.01-1.11 0.03-2.22 0.04-3.36-0.05-6.66-0.81-11.1-4.51-16.7-3.39-1.24-3.39-1.24-7.12-1.25-3.76-0.2-3.76-0.2-6.88-0.75-1.19-2.03-1.19-2.03-2-4z" fill="#A2613B"/>
<path transform="translate(645,1133)" d="m0 0c1.68 0.29 3.34 0.62 5 1 1.57 4.14 2.58 7.46 0.98 11.7-0.92 1.73-1.89 3.44-2.91 5.12-1.43 2.25-1.43 2.25-0.07 5.16 0.99 0.33 1.98 0.66 3 1v-2c6.43-0.49 6.43-0.49 13-1 0.5 2.47 0.5 2.47 1 5h-20l-1 2h-2c-0.1 1.03-0.21 2.06-0.31 3.12-0.69 3.88-0.69 3.88-2.1 6.65-1.74 3.53-2.73 7.05-3.65 10.8-1.69 6.88-1.69 6.88-2.99 9.47-3.63 7.32-4.13 18.9-2.95 26.9 2.55 3.94 4.03 4.76 8.56 5.88 2.84 0.1 4.8 0.07 7.44-0.88v-2c0.91-0.89 0.91-0.89 1.84-1.8 4.74-4.82 6.87-11.9 8.66-18.3 3.27-11.6 9.19-21.5 19.5-27.9 0.99-0.33 1.98-0.66 3-1 0.5-0.99 0.5-0.99 1-2 1.26-0.04 2.52-0.08 3.81-0.12 1.06-0.04 1.06-0.04 2.15-0.08 4.37 0.42 7.24 4.11 10 7.2 4.43 7.44 4.38 16.2 2.41 24.5-1.71 5.94-3.64 12-6.41 17.5h2l1-2h3c3.57-1.52 4.78-2.53 6.44-6.08 0.37-1.23 0.74-2.46 1.12-3.73 0.21-0.67 0.41-1.33 0.63-2.02 1.35-4.41 2.57-8.85 3.81-13.3 1.35-4.79 2.82-9.51 4.5-14.2 0.57-1.61 0.57-1.61 1.16-3.24 1.34-2.45 1.34-2.45 3.29-3.46 3.71 0.02 5.43 2.57 8.05 5.01-0.61 4.6-2.54 8.27-4.69 12.3-4.62 8.94-8.13 18.2-11.3 27.7 2.04 3.57 3.56 5.71 7 8 4.87-0.21 7.53-1.63 11-5 1.31-2.12 1.31-2.12 2-4h2c0.5-1.98 0.5-1.98 1-4h2l1-2c-0.44 6.21-1.92 10.6-5 16h-2c-0.08 0.54-0.16 1.07-0.25 1.62-1.72 5.44-5.52 9.68-9.75 13.4-2.84 1.42-4.25 0.96-7.44 0.38-4.44-1.72-7.41-4.07-9.56-8.38-0.23-1.87-0.41-3.75-0.56-5.62-0.13-1.51-0.13-1.51-0.26-3.04-0.06-0.77-0.12-1.55-0.18-2.34-5.6 0.65-10.4 1.42-14.5 5.44-1.49 1.92-2.96 3.86-4.4 5.82-3.22 4.24-6.82 7.96-12.2 9.24-5.07 0.31-8.11-1.37-11.9-4.5-1.11-0.87-1.11-0.87-2.25-1.75-2.51-3.23-2.95-6.25-3.75-10.2h-2c-1.82 2.66-3.42 5.43-5.05 8.2-2.58 3.71-4.92 6.43-9.49 7.26-0.83-0.03-1.66-0.06-2.52-0.08-0.84-0.02-1.68-0.03-2.54-0.04-2.51-0.36-4.21-1.08-6.4-2.34v-2c-0.99-0.33-1.98-0.66-3-1v-2h-2c-5.52-11.7-1.5-28.9 2.44-40.7 0.24-0.67 0.49-1.35 0.74-2.04 1.43-3.97 2.61-8.01 3.83-12 0.63-2.06 1.28-4.1 1.95-6.14 0.28-0.88 0.56-1.75 0.85-2.65 0.26-0.77 0.51-1.53 0.77-2.32 0.47-2.38 0.18-3.84-0.58-6.12-0.97 0.06-1.94 0.12-2.94 0.19-5.63 0-10.8-1.9-15.6-4.63-1.44-1.56-1.44-1.56-1.44-5.56 2.48-0.93 4.24-1.33 6.73-0.25 0.62 0.35 1.25 0.7 1.89 1.06 4.88 2.7 9.91 3.43 15.4 4.19 3.34-6.42 6.28-12.9 8.98-19.6 1.02-2.37 1.02-2.37 2.02-3.37zm-14 29 2 2v-2h-2zm43 26-3 2c-1.46 2.46-1.46 2.46-2.69 5.31-0.43 0.95-0.87 1.89-1.32 2.87-1.01 2.87-1.3 4.81-0.99 7.82 2.75 5.38 6.78 9.05 12 12 2.45 0.7 4.44 0.89 7 1 5.34-6.18 6.59-16 6.3-24-0.51-3.41-1.66-5.98-3.3-9.01-5.05-2.53-9.66-1.13-14 2zm-14 23c0.29 5.81 0.29 5.81 3 10.8 3.78 2.76 7.52 3.99 12 5.19l2-4c-1.45-1.01-2.91-2-4.38-3-0.81-0.56-1.62-1.11-2.46-1.69-2.02-1.48-2.02-1.48-4.16-1.31-0.06-0.62-0.12-1.24-0.19-1.88-0.64-2.4-0.64-2.4-3.37-3.37-0.81-0.25-1.61-0.49-2.44-0.75zm40 6 1 2zm3 1-1 2h2l1 2-1-4h-1z" fill="#A3613B"/>
<path transform="translate(366,842)" d="m0 0c7.77-0.05 15.5-0.08 23.3-0.1 3.61-0.01 7.22-0.03 10.8-0.05 3.48-0.02 6.96-0.03 10.4-0.04 1.98-0.01 3.96-0.02 5.93-0.04h3.64c1.59 0 1.59 0 3.21-0.01 2.64 0.24 2.64 0.24 5.64 2.24-4.73 2.11-9.25 2.65-14.4 3.24-2.72 0.47-2.72 0.47-3.74 2.48-4.91 12.4-3.19 27.6-3.17 40.7v7.37c0 5.13 0 10.2 0.01 15.4 0.01 6.57 0 13.1-0.01 19.7-0.01 5.06 0 10.1 0 15.2v7.27c-0.01 3.38 0 6.76 0.01 10.1 0 1-0.01 2-0.01 3.03-0.02 6.51-0.02 6.51 2.27 12.5 4.15 3.54 7.89 4.63 13.1 5.41 0.92 0.29 0.92 0.29 1.86 0.59l1 3c-20 0.77-40 1.15-60 1 0.5-1.98 0.5-1.98 1-4 0.98-0.1 1.95-0.2 2.96-0.3 1.91-0.22 1.91-0.22 3.85-0.45 1.9-0.21 1.9-0.21 3.83-0.42 3.75-0.93 4.41-1.65 6.36-4.83h2c0.02-12 0.04-23.9 0.05-35.9 0.01-5.56 0.01-11.1 0.03-16.7 0.02-13.6 0.02-27.1-0.06-40.6-0.01-1.81-0.02-3.63-0.03-5.44-0.02-4.7-0.06-9.4-0.15-14.1-0.03-1.99-0.04-3.99-0.05-5.98 0.06-6.82 0.06-6.82-3.13-12.5-3.15-2.06-5.7-2.74-9.41-3.36-3.48-0.61-3.48-0.61-6.25-1.38l-1-3z" fill="#A4623B"/>
<path transform="translate(845,1133)" d="m0 0c3.26 0.42 4.63 0.63 7 3 0.93 2.37 1.18 3.51 0.29 5.93-0.36 0.64-0.73 1.28-1.1 1.95-1.78 3.3-3.23 6.46-4.19 10.1 0.5 0.99 0.5 0.99 1 2 1.49 0.49 1.49 0.49 3 1v-2c2.12-0.22 4.25-0.43 6.38-0.62 1.18-0.12 2.36-0.24 3.58-0.36 1 0 2.01-0.01 3.04-0.02 2 2 2 2 2 5h-21c-7.22 14.9-18.9 40.1-15.6 57 1.16 3.33 2.54 4.92 5.4 6.95 3.68 1.15 5.54 1.19 9.19 0 2.88-2.32 4.55-4.61 6-8h2c1.64-2.46 1.64-2.46 3-5l2 1c-3.47 8.81-7.07 16.5-13 24-1.14 1.55-1.14 1.55-2.31 3.12-4.08 2.85-7.88 2.61-12.7 1.88-3.75-1.63-6.33-3.92-9-7-1.05-3.02-1.05-3.02-1.75-6.25-0.24-1.08-0.48-2.16-0.73-3.27-0.17-0.82-0.34-1.64-0.52-2.48-0.38 0.56-0.76 1.11-1.14 1.69-5.51 7.63-12.7 14.4-21.9 17.3-6.06 0.87-11.4 1-16.6-2.62-4.3-3.5-6.24-7.56-6.84-13 0.07-11.8 1.55-21.9 7.4-32.3 0.67-1.33 1.34-2.66 2-4h2c0.23-0.7 0.45-1.4 0.69-2.12 3.2-7.02 8.6-11.3 15.3-14.9 3.75-1.12 3.75-1.12 7-1 4.74 2.59 6.37 5.95 8 11 0.56 6.31-0.06 11.3-3.79 16.4-8.27 9.75-16.8 14.1-29.2 16.6-0.9 3.01-0.9 3.01-0.38 6.06 1.81 2.55 3.59 3.53 6.38 4.94 7.81 1.21 14.2-0.16 21-4 0.91-0.47 1.82-0.95 2.75-1.44 8.91-6.18 10.2-14 12.1-24.1 0.76-3.94 1.69-7.56 3.23-11.3 1.31-3.28 2.4-6.63 3.51-9.98 0.22-0.65 0.44-1.3 0.67-1.97 1.02-3.07 1.99-6.12 2.71-9.28-1.09-0.25-2.17-0.51-3.29-0.77-1.44-0.35-2.89-0.69-4.33-1.04-0.72-0.17-1.43-0.33-2.17-0.5-4.41-1.08-8.2-2.48-12.2-4.69l1-5c1.78-0.61 1.78-0.61 4-1 1.89 0.96 3.77 1.93 5.63 2.94 4.24 1.9 8.79 2.42 13.4 3.06 3.24-6.24 6.01-12.6 8.73-19.1 1.27-2.88 1.27-2.88 2.27-3.88zm-58 60.4c-1.74 2.48-3.39 4.99-5 7.55l-2 3c-0.17 2.63-0.17 2.63 0 5 3.01 1.3 4.22 0.93 7.42-0.11 1.26-0.53 2.52-1.08 3.77-1.64 0.64-0.27 1.28-0.53 1.94-0.8 1.67-0.73 3.27-1.58 4.87-2.45l1-3c1.32-0.7 2.65-1.37 4-2 1.25-2.5 1.13-4.27 1.12-7.06 0.01-0.9 0.01-1.8 0.01-2.73 0.12-2.18 0.12-2.18-1.13-3.21-6.89-1.01-11.8 2.26-16 7.45zm18-5.45v5h1v-5h-1zm12 30 2 2v-2h-2zm2 4 1 2z" fill="#A3613B"/>
<path transform="translate(203,267)" d="m0 0c5.02 1.64 8.95 4.58 13.2 7.62 0.76 0.54 1.51 1.08 2.29 1.64 4.85 3.48 9.57 7.08 14.2 10.9 3.5 2.81 7.15 5.41 10.8 8.02 3.37 2.46 6.59 5.09 9.83 7.72 5.27 4.27 10.6 8.34 16.2 12.3 3.42 2.5 6.71 5 9.66 8.05 1.85 2.04 1.85 2.04 4.88 2.81v2c1.98 0.5 1.98 0.5 4 1v2c0.7 0.23 1.4 0.45 2.12 0.69 2.83 1.29 4.87 2.84 7.2 4.87 3.61 3.08 7.42 6.31 11.7 8.44v2c0.58 0.08 1.15 0.17 1.75 0.25 2.87 0.96 4.2 2.56 6.25 4.75l2 1v2c0.66 0.21 1.32 0.41 2 0.62 4.84 2.23 9.14 5.43 12.8 9.29 3.25 3.12 7 5.45 10.8 7.91 1.51 1.01 2.98 2.09 4.43 3.18v2c0.56 0.27 1.11 0.54 1.69 0.81 2.52 1.3 4.95 2.61 7.31 4.19v2l5 2v2c0.7 0.25 1.4 0.5 2.12 0.75 3.28 1.42 6.02 3.12 8.88 5.25v2c0.55 0.25 1.09 0.49 1.66 0.75 2.84 1.52 5.27 3.36 7.84 5.31 1.06 0.81 2.12 1.62 3.19 2.42 0.54 0.42 1.09 0.83 1.65 1.26 1.65 1.25 3.31 2.48 4.97 3.71 1.58 1.17 1.58 1.17 3.19 2.36 0.96 0.71 1.92 1.42 2.91 2.15 2.59 2.04 2.59 2.04 4.69 4.15 1.86 1.85 3.57 3.03 5.84 4.33 3.54 2.13 6.2 4.55 9.06 7.56 2.6 2.26 5.01 4.01 8.06 5.62 4.17 2.3 7.63 5.37 11.2 8.45 4.38 3.73 8.98 7.07 13.7 10.3 0.65 0.52 1.31 1.05 1.98 1.59v2l4 1v2c0.66 0.21 1.32 0.41 2 0.62 4.07 1.87 7.69 4.36 11 7.38v2l5 2v2h3l2 3c1.65 1.03 3.32 2.03 5 3 2.02 1.46 4.02 2.94 6 4.44 1.01 0.76 2.02 1.52 3.06 2.31 3.49 2.67 6.91 5.41 10.3 8.19 2.1 1.65 4.23 3.17 6.43 4.68 1.58 1.18 1.58 1.18 3.19 2.38v2l4 1v2l4 1v2l5 2v2c0.58 0.29 1.15 0.58 1.75 0.88 2.08 1.04 4.17 2.08 6.25 3.12v2c0.74 0.25 1.49 0.5 2.25 0.75 2.97 1.35 4.51 2.93 6.75 5.25 0.99 0.33 1.98 0.66 3 1l5 5c2.17 1.3 2.17 1.3 4 2v2c1.02 0.31 1.02 0.31 2.06 0.62 3.35 1.57 5.67 3.57 8.39 6.04 1.53 1.43 1.53 1.43 3.55 2.34v2c0.58 0.29 1.15 0.58 1.75 0.88 2.08 1.04 4.17 2.08 6.25 3.12v2l5 2v2c0.99 0.31 0.99 0.31 2 0.62 4.07 1.87 7.69 4.36 11 7.38v2c0.58 0.08 1.15 0.16 1.75 0.25 3.5 1.17 5.62 3.48 7.25 6.75h2v2c0.97 0.29 1.94 0.58 2.94 0.88 3.06 1.12 3.06 1.12 4.06 3.12 1.71 0.99 3.43 1.97 5.16 2.93 3.72 2.17 6.87 4.96 9.84 8.07 0.8 0.71 0.8 0.71 1.62 1.44 1.6 1.81 1.97 3.2 2.38 5.56-3.9-0.58-6.01-2.53-9-5-0.74-0.37-1.49-0.74-2.25-1.12-1.75-0.88-1.75-0.88-2.75-2.88-0.85-0.5-1.69-0.99-2.56-1.5-1.21-0.74-1.21-0.74-2.44-1.5v-2c-0.68-0.22-1.37-0.44-2.07-0.67-3.73-1.69-6.58-4.01-9.74-6.58l-3.75-3c-0.89-0.71-0.89-0.71-1.8-1.44-3.16-2.52-6.4-4.91-9.64-7.31-5.55-4.13-11-8.33-16.5-12.6-2.45-1.9-4.9-3.71-7.48-5.43v-2c-1.02-0.34-1.02-0.34-2.06-0.69-3.64-1.62-6.97-3.64-9.94-6.31v-2c-0.58-0.29-1.15-0.58-1.75-0.88-0.74-0.37-1.49-0.74-2.25-1.12-0.68-0.31-1.36-0.62-2.06-0.94-2.05-1.12-3.33-2.38-4.94-4.06l-3-2v-2c-0.66-0.2-1.32-0.39-2-0.6-4.22-1.97-7.46-4.85-11-7.84-5.28-4.47-5.28-4.47-11-8.35-0.66-0.4-1.32-0.8-2-1.21v-2c-0.69-0.23-1.38-0.45-2.09-0.68-3.6-1.63-6.44-3.91-9.47-6.38-1.24-1-2.48-1.99-3.72-2.98-0.62-0.5-1.24-0.99-1.88-1.5-3.7-2.93-7.51-5.7-11.3-8.49-2.52-1.97-2.52-1.97-4.54-4.04-1.89-2-1.89-2-4.22-3.26-3.98-2.41-7.39-5.42-11-8.42-6.08-5.08-12.2-9.9-18.8-14.2l-3-2v-2c-0.8-0.27-1.61-0.54-2.44-0.81-0.84-0.39-1.69-0.79-2.56-1.19l-1-3c-0.55-0.13-1.09-0.26-1.66-0.39-3.52-0.92-6.03-3.2-8.84-5.42-0.57-0.44-1.14-0.88-1.72-1.33-2.47-1.93-4.77-3.85-6.99-6.08-1.84-2-1.84-2-4.91-3.47-3.31-1.79-5.87-4.01-8.63-6.56-4.25-3.93-8.65-7.35-13.4-10.7-3.17-2.25-6.28-4.58-9.38-6.93-2.8-2.11-5.58-4.17-8.5-6.12v-2l-5-2v-2c-0.72-0.25-1.44-0.5-2.19-0.75-3.08-1.37-5.23-3.02-7.81-5.19-3.21-2.68-6.39-4.95-10-7.06-1.56-1.44-1.56-1.44-3-3-1.98-2.12-3.71-3.83-6.22-5.3-3.35-2.05-6.35-4.44-9.4-6.89-4.34-3.44-8.7-6.82-13.2-10.1-3.48-2.51-6.95-5.03-10.4-7.63-0.73-0.55-1.47-1.1-2.23-1.67-0.52-0.48-1.04-0.96-1.58-1.45v-2c-0.54-0.06-1.07-0.12-1.62-0.19-3.43-1.17-5.65-3.48-8.38-5.81-1.33-0.68-2.66-1.35-4-2-1.02-0.98-2.02-1.98-3-3-2.93-2.5-5.79-4.86-9-7v-2c-0.95-0.27-1.9-0.54-2.88-0.81-3.12-1.19-3.12-1.19-5.12-4.19-1.66-1.01-3.33-2.01-5-3-1.39-1.04-2.77-2.11-4.14-3.18-0.79-0.63-1.59-1.25-2.41-1.9-0.81-0.63-1.62-1.27-2.45-1.92-1.45-1.13-2.91-2.26-4.36-3.39-0.72-0.56-1.43-1.12-2.17-1.7-14.2-11.1-14.2-11.1-28.7-22l-3.81-2.88c-0.88-0.66-1.76-1.32-2.67-2-0.91-0.7-1.83-1.4-2.77-2.12-0.84-0.65-1.69-1.29-2.56-1.95-2.1-2.03-2.65-3.07-3-5.93z" fill="#9E5F39"/>
<path transform="translate(80,553)" d="m0 0c5.52-0.23 10.1 0.57 15.4 2.01 0.8 0.21 1.61 0.42 2.44 0.64 2.56 0.67 5.12 1.35 7.68 2.04 3.34 0.88 6.67 1.76 10 2.63 0.85 0.23 1.71 0.45 2.59 0.68 5.94 1.55 11.9 2.94 17.9 4.27 9.68 2.15 19.3 4.54 28.9 6.98 0.75 0.19 1.5 0.38 2.28 0.58 4.66 1.18 9.32 2.37 14 3.57 25 6.42 25 6.42 50.1 12.6 0.8 0.2 1.61 0.39 2.44 0.59 3.27 0.78 6.43 1.43 9.76 1.85 3.54 0.56 6.58 1.55 9.94 2.72 5.21 1.7 10.6 2.93 15.9 4.25 1.3 0.32 2.6 0.64 3.89 0.97 3.47 0.86 6.94 1.73 10.4 2.59 2.89 0.71 5.78 1.43 8.67 2.15 21.8 5.42 43.5 10.8 65.3 16.1 4.91 1.2 9.81 2.39 14.7 3.6 3.05 0.75 6.11 1.49 9.17 2.24 1.38 0.34 2.77 0.68 4.15 1.02 6.96 1.72 13.9 3.31 21 4.43 2.62 0.56 4.92 1.49 7.39 2.51 2.87 0.72 5.74 1.41 8.62 2.06 10.1 2.34 20.1 4.9 30.1 7.5 10.4 2.7 20.7 5.34 31.2 7.49 3.52 0.77 6.96 1.77 10.4 2.78 7.31 2.1 14.7 3.97 22 5.77 1.33 0.33 2.66 0.65 3.98 0.98 2.75 0.67 5.5 1.35 8.25 2.02 3.51 0.86 7.01 1.72 10.5 2.58 2.72 0.67 5.45 1.33 8.18 2l5.73 1.41c6.31 1.54 12.6 3.03 19 4.41 2.63 0.59 5.25 1.23 7.88 1.88 1.91 0.46 1.91 0.46 3.86 0.92 3.41 1.25 4.51 2.09 6.26 5.2-7.08 0.26-13.3-0.76-20-3-2.41-0.62-4.83-1.22-7.25-1.81-5.26-1.31-10.5-2.65-15.8-4.07-4.74-1.27-9.48-2.49-14.2-3.67-1.64-0.41-1.64-0.41-3.31-0.82-2.2-0.54-4.39-1.08-6.59-1.61-1.5-0.37-1.5-0.37-3.04-0.75-0.9-0.22-1.81-0.44-2.74-0.67-2.08-0.6-2.08-0.6-3.08-1.6-2.83-0.49-5.66-0.95-8.5-1.38-5.62-0.88-10.9-1.84-16.3-3.86-4.11-1.4-8.37-2.2-12.6-3.11-2.62-0.65-2.62-0.65-3.62-1.65-3.3-0.66-6.6-1.24-9.92-1.81-3.01-0.53-5.74-1.05-8.58-2.2-3.48-1.38-7.07-1.85-10.8-2.43-5.36-0.89-10.4-1.93-15.5-3.81-4.64-1.53-9.46-2.35-14.2-3.33-18.7-3.87-18.7-3.87-27.4-6.64-7.64-2.29-15.4-4.06-23.2-5.85-0.76-0.18-1.53-0.36-2.31-0.54-1.46-0.33-2.92-0.67-4.39-1-3.72-0.85-7.13-1.97-10.7-3.39-1.76-0.34-3.53-0.63-5.31-0.88-9.15-1.43-18.2-3.55-27-6.6-5.19-1.76-10.5-2.86-15.8-3.96-7.81-1.64-15.5-3.46-23.2-5.59-5.2-1.36-10.4-2.49-15.7-3.58-3.64-0.77-6.7-1.71-9.99-3.39-2.2-0.51-4.41-0.96-6.62-1.38-1.35-0.25-2.7-0.51-4.05-0.77-0.7-0.14-1.41-0.28-2.14-0.42-9.74-1.93-19.4-4.2-29.1-6.55-1.27-0.32-2.55-0.63-3.86-0.95-2.69-0.77-4.8-1.66-7.26-2.93-1.41-0.34-2.82-0.63-4.25-0.88-4.55-0.84-9.02-1.91-13.5-3.06-6.39-1.63-12.8-3.06-19.3-4.35-2.83-0.67-5.3-1.63-7.99-2.71-2.14-0.54-4.28-1.03-6.44-1.5-3.27-0.71-6.41-1.45-9.58-2.53-4.04-1.31-8.08-1.82-12.3-2.41-2.71-0.56-2.71-0.56-5.71-2.56-1.84-0.34-3.7-0.6-5.56-0.81-10.7-1.51-21.2-4.68-31.4-8.19v-3z" fill="#965A37"/>
<path transform="translate(461,72)" d="m0 0h2c2.87 4.92 5.47 9.9 8 15l1.86 3.72c0.98 1.95 1.95 3.91 2.93 5.86 1.72 3.45 3.45 6.9 5.19 10.4 4.05 8.03 7.96 16.1 11.8 24.3 2.98 6.32 6.06 12.6 9.22 18.8 0.96 1.92 1.92 3.83 2.88 5.75 0.48 0.98 0.97 1.95 1.48 2.96 23.1 46.3 23.1 46.3 24.3 48.6 1.03 2.05 2.06 4.1 3.1 6.15 4.19 8.31 8.25 16.7 12.2 25.1 1.84 3.93 3.76 7.69 6.06 11.4 2.41 4.65 4.63 9.36 6.81 14.1 2.95 6.42 6.07 12.7 9.25 19 1.66 3.28 3.3 6.57 4.94 9.86 0.68 1.35 1.35 2.71 2.03 4.06l7.21 14.4c1.18 2.36 2.36 4.72 3.55 7.07 4.74 9.4 9.31 18.9 13.8 28.4 3.7 7.74 7.49 15.4 11.4 23.1l5.16 10.3c1.4 2.8 2.8 5.6 4.21 8.39 2.77 5.48 5.38 11 7.96 16.6 2.41 5.2 4.97 10.3 7.6 15.4 1.07 2.29 1.07 2.29 1.07 4.29l2 1c0.99 1.71 0.99 1.71 2.02 3.94 0.38 0.81 0.77 1.62 1.16 2.46 0.39 0.86 0.79 1.72 1.2 2.6 0.38 0.83 0.77 1.65 1.17 2.5 1.88 4.04 3.72 8.1 5.5 12.2 1.73 3.89 3.65 7.58 5.7 11.3 3.31 6.1 6.33 12.3 9.25 18.6 2.25 4.85 4.59 9.64 7 14.4 2.73 5.39 5.34 10.8 7.88 16.3 2.88 6.22 5.97 12.3 9.18 18.4 0.42 0.79 0.84 1.58 1.28 2.4 0.82 1.56 1.65 3.12 2.48 4.67 1.79 3.38 3.56 6.77 5.3 10.2 0.56 1.08 1.12 2.16 1.7 3.27 1.18 2.79 1.18 2.79 1.18 6.79-0.99-0.33-1.98-0.66-3-1v-2h-2c-6.31-12.4-12.4-24.8-18.2-37.5-3.55-7.81-7.25-15.4-11.6-22.8-3.76-6.49-6.88-13.3-10-20.1-1.95-4.17-3.98-8.29-6.06-12.4-3.24-6.41-6.35-12.9-9.43-19.4-5.01-10.5-10.2-21-15.4-31.4-1.17-2.35-2.34-4.7-3.51-7.05-2.89-5.83-5.81-11.6-8.99-17.3-2.26-4.06-4.03-8.15-5.67-12.5-1.71-4.15-3.82-8.08-5.91-12-1.17-2.57-1.17-2.57-1.17-5.57h-2c-0.31-0.64-0.61-1.28-0.93-1.95-5.89-12.3-11.8-24.6-18-36.9-3.33-6.62-6.53-13.3-9.7-20-3.48-7.34-7.11-14.6-11-21.7-3.67-6.85-6.98-13.9-10.3-20.9-3.3-6.97-6.7-13.9-10.2-20.8-2.13-4.23-4.04-8.5-5.9-12.8-1.19-2.47-2.39-4.93-3.62-7.38-0.35-0.68-0.69-1.37-1.05-2.08-2.54-5.05-5.17-10-7.83-15-11.3-21.2-21.6-43.1-31.9-64.8-5.15-10.9-10.4-21.6-16.1-32.2-10.5-19.5-10.5-19.5-10.5-26.4z" fill="#A4623B"/>
<path transform="translate(925,1133)" d="m0 0v3h2c-0.59 4.59-2.53 8.2-4.75 12.2-0.73 1.33-1.45 2.67-2.18 4-0.35 0.65-0.71 1.3-1.07 1.97-5.71 10.5-5.71 10.5-9 21.8 0.45-0.35 0.89-0.7 1.36-1.06 6.41-4.83 6.41-4.83 10.6-4.94 4.52 1.1 6.59 3.07 9 7 5.24 13 2.46 26.9-2.81 39.5-4.03 8.6-9.16 17-17 22.5-5.77 1.81-11.6 2.17-17.1-0.62-4.18-3.25-5.79-6.36-6.49-11.6-0.02-17.3 5.02-32.4 11.5-48.4 0.87-2.18 1.73-4.37 2.58-6.56 3.17-8.17 6.75-16.1 10.5-24 0.88-1.87 1.73-3.75 2.58-5.64 0.53-1.18 1.06-2.36 1.6-3.58 0.47-1.05 0.94-2.11 1.43-3.21 2-3.82 3.44-3.56 7.26-2.41zm-17.6 57.8c-6.46 8.22-8.61 16.1-8.9 26.5 0.58 3.49 1.73 4.6 4.46 6.77 3.03 1.17 4.9 1.44 7.95 0.22 7.39-4.18 12.2-10.6 14.6-18.7 1.22-6.58 1.51-13.4-1.54-19.5-6.68-3.34-12-0.15-16.6 4.75z" fill="#A4623B"/>
<path transform="translate(1090,72)" d="m0 0c1 3 1 3 0.14 5.16-0.44 0.82-0.87 1.63-1.33 2.46-1.65 3.14-3.23 6.25-4.62 9.5-5.02 11.4-11 22.5-16.9 33.5-1.99 3.73-3.85 7.4-5.33 11.4-0.99 2.34-1.99 4.67-3 7h-3c-0.15 1.83-0.15 1.83-0.31 3.69-0.48 3.79-1.49 6.13-3.69 9.31-2.36 3.91-4.34 7.74-6 12-1.29 2.69-2.65 5.34-4 8-0.67 1.33-1.33 2.67-2 4s-1.33 2.67-2 4c-0.31 0.61-0.61 1.23-0.93 1.86l-10.1 20.1c-0.66 1.33-1.32 2.65-1.98 3.98-2.8 5.65-5.76 11.2-8.75 16.8-2.33 4.35-4.37 8.72-6.27 13.3-0.59 1.24-1.19 2.47-1.81 3.69-0.34 0.66-0.68 1.33-1.02 2.01-0.39 0.76-0.77 1.52-1.17 2.3l-43 86c-0.51 1.02-1.02 2.03-1.54 3.08-0.86 1.73-1.73 3.45-2.6 5.17-2.2 4.34-4.32 8.72-6.35 13.2-3.07 6.66-6.35 13.2-9.88 19.6-1.95 3.6-3.76 7.26-5.58 10.9-0.82 1.62-1.73 3.2-2.67 4.76-1.78 2.98-3.04 6.11-4.38 9.31-1.37 2.84-2.88 5.57-4.44 8.31-1.77 3.17-3.31 6.32-4.68 9.69-1.17 2.68-2.5 5.27-3.82 7.88-2.51 4.97-4.86 10-7.06 15.1h-2c-0.08 1.03-0.16 2.06-0.25 3.12-0.84 4.32-2.32 6.25-4.75 9.88-1.47 2.87-2.8 5.81-4.12 8.75-0.69 1.52-1.38 3.03-2.08 4.55-0.29 0.66-0.59 1.32-0.9 2.01-0.9 1.69-0.9 1.69-2.9 3.69-0.37 1.05-0.74 2.1-1.12 3.19-2.04 5.71-5.05 10.9-7.94 16.2-1.72 3.16-3.35 6.36-4.94 9.59l-10.9 21.7c-0.31 0.61-0.61 1.23-0.93 1.86-0.66 1.33-1.33 2.65-1.99 3.97-1.81 3.62-3.61 7.24-5.38 10.9-0.35 0.71-0.7 1.43-1.06 2.17-0.67 1.36-1.33 2.73-1.99 4.09-1.88 3.83-3.89 7.18-6.79 10.3h-2c1.81-6.89 4.24-12.9 7.69-19.1 0.89-1.67 1.79-3.33 2.69-4.99 0.44-0.82 0.88-1.64 1.34-2.49 2.9-5.44 5.6-11 8.33-16.5 0.97-1.94 1.95-3.87 2.93-5.79 0.32-0.63 0.64-1.26 0.97-1.91 0.86-1.7 1.73-3.41 2.6-5.11 1.4-2.99 2.48-5.95 3.45-9.09h2c0.16-0.53 0.32-1.07 0.48-1.62 2.39-7.64 5.96-14.4 9.72-21.5 0.83-1.56 1.66-3.13 2.49-4.69 0.64-1.22 0.64-1.22 1.3-2.46 3.64-6.92 7-14 10.3-21 2.63-5.57 5.39-11 8.31-16.5 3.36-6.22 6.46-12.5 9.43-18.9 3.17-6.83 6.53-13.6 9.93-20.3 1.79-3.55 3.56-7.1 5.33-10.6 0.64-1.29 1.29-2.57 1.93-3.86 1.14-2.27 2.27-4.55 3.4-6.83 1.36-2.69 1.36-2.69 2.86-5.13 1.44-2.46 2.58-4.95 3.67-7.58 0.97-2.32 1.99-4.62 3.02-6.92 0.51-1.16 0.51-1.16 1.04-2.34 0.25-0.57 0.51-1.13 0.77-1.72h2c0.11-0.61 0.22-1.23 0.33-1.86 0.16-0.81 0.32-1.62 0.48-2.45 0.15-0.8 0.3-1.6 0.46-2.43 0.83-2.56 1.79-3.45 3.73-5.26 2.79-4.42 5.25-9.06 7-14h2c0.12-0.72 0.25-1.44 0.38-2.19 0.61-2.77 1.5-5.21 2.62-7.81h2c0.12-0.7 0.25-1.4 0.38-2.12 0.66-3.08 1.49-5.95 2.62-8.88l2-1c0.8-1.95 0.8-1.95 1.44-4.25 1.07-3.66 2.56-6.5 4.56-9.75 1.25-2.41 2.48-4.82 3.69-7.25 0.34-0.7 0.69-1.39 1.05-2.11 2.5-5.03 4.89-10.1 7.26-15.2 2.65-5.7 5.43-11.3 8.38-16.9 0.33-0.63 0.66-1.26 1.01-1.92 1.36-2.53 2.56-4.59 4.61-6.64 0.27-0.87 0.54-1.73 0.81-2.62 1.26-3.59 2.95-6.32 5.07-9.45 1.21-1.88 1.21-1.88 1.65-4.05 0.47-1.88 0.47-1.88 2.47-3.88 0.65-1.31 1.25-2.65 1.81-4 1.86-4.3 3.9-8.47 6.04-12.6 1.18-2.42 2.17-4.86 3.15-7.36 2.7-5.85 2.7-5.85 5-7 0.13-0.86 0.27-1.72 0.4-2.6 0.71-4.01 2.29-7.21 4.16-10.8 0.72-1.4 1.45-2.81 2.17-4.21 0.37-0.72 0.74-1.44 1.13-2.19 1.89-3.68 3.73-7.39 5.58-11.1 0.66-1.33 1.33-2.66 1.99-3.99 0.78-1.55 0.78-1.55 1.57-3.13 1-2 1-2 3-3 0.73-1.78 0.73-1.78 1.31-3.94 1.66-5.28 3.83-10.3 6.69-15.1l2-1c1.06-1.97 1.06-1.97 2-4.31 0.97-2.3 1.93-4.56 3.05-6.78 1.27-2.55 2.09-5.2 2.95-7.91h2c0.56-1.89 0.56-1.89 1.12-3.81 2.28-6.84 5.44-14.3 10.9-19.2zm-12 23 1 2zm-2 1 1 2z" fill="#A3623B"/>
<path transform="translate(252,465)" d="m0 0c5.04 0.52 8.89 1.63 13.4 3.88 0.59 0.29 1.18 0.58 1.78 0.87 1.9 0.93 3.78 1.87 5.67 2.81 1.29 0.64 2.59 1.28 3.89 1.92 2.57 1.26 5.13 2.52 7.69 3.78 4.6 2.26 9.22 4.45 13.8 6.62 0.7 0.32 1.4 0.65 2.12 0.99 1.52 0.71 3.05 1.42 4.57 2.13v2c0.85 0.1 1.71 0.2 2.59 0.31 3.75 0.76 6.58 2.05 10 3.79 0.61 0.31 1.22 0.62 1.86 0.94 1.98 1 3.95 2.01 5.93 3.02 1.37 0.7 2.75 1.4 4.12 2.09 2.68 1.36 5.35 2.71 8.02 4.08 20.1 10.2 40.4 20 60.8 29.6 6.78 3.18 13.5 6.56 20.2 9.92 8.22 4.13 16.4 8.26 24.7 12.4 2.26 1.13 4.51 2.26 6.77 3.39 12.6 6.34 25.3 12.6 38 18.7 7.71 3.67 15.4 7.46 23 11.3 11.4 5.77 23 11.4 34.5 16.9 5.11 2.42 10.1 4.95 15.1 7.67 6.92 3.77 14 7 21.2 10.2 8.2 3.68 16.2 7.65 24.2 11.7l6 3v3h2l1 3-2 1c-1.89-0.75-1.89-0.75-4.25-2-1.35-0.7-1.35-0.7-2.73-1.42-1.49-0.78-1.49-0.78-3.02-1.58-2.21-1.11-4.41-2.21-6.62-3.31-1.2-0.6-2.39-1.19-3.58-1.79-0.62-0.31-1.23-0.62-1.86-0.93-14.2-7.08-14.2-7.08-16-8.01-1.32-0.67-2.65-1.33-3.98-2-2.91-1.45-5.82-2.9-8.72-4.37-0.79-0.4-1.58-0.8-2.4-1.21-1.19-0.61-1.19-0.61-2.42-1.23-2.42-1.17-4.88-2.18-7.39-3.15v-2c-0.66-0.08-1.32-0.16-2-0.25-2.57-0.64-4.35-1.35-6.67-2.55-4.18-2.13-8.4-4.15-12.6-6.14-0.74-0.34-1.47-0.69-2.23-1.04-5.8-2.72-11.6-5.39-17.5-8.02v-2c-0.72-0.12-1.44-0.24-2.19-0.36-2.86-0.65-5.16-1.59-7.8-2.86-0.95-0.45-1.89-0.91-2.87-1.37-0.99-0.49-1.99-0.97-3.02-1.47-1.02-0.5-2.05-0.99-3.11-1.5-7.03-3.42-14-6.99-20.8-10.7-2.85-1.54-5.71-3.05-8.6-4.52-0.7-0.36-1.4-0.72-2.12-1.08-2.06-0.94-4.09-1.72-6.22-2.48-4.33-1.6-8.3-3.67-12.3-5.88-1.51-0.81-3.01-1.61-4.52-2.42-0.74-0.39-1.47-0.79-2.24-1.2-8.16-4.35-16.4-8.31-24.9-12-6.83-2.97-13.4-6.27-20-9.81-6.93-3.74-14-7.06-21.2-10.3v-2c-0.69-0.1-1.38-0.21-2.09-0.31-3.45-0.82-6.33-2.15-9.53-3.69-0.64-0.3-1.28-0.61-1.94-0.92-1.4-0.67-2.79-1.34-4.19-2-2.37-1.14-4.76-2.26-7.14-3.37-1.66-0.78-3.32-1.56-4.99-2.33-0.77-0.36-1.54-0.72-2.33-1.09-4.66-2.2-9.16-4.59-13.6-7.12-3.09-1.69-6.25-3.15-9.45-4.61-7.42-3.41-14.7-7.03-22-10.7-4.05-2.04-8.12-4.04-12.2-5.97-0.83-0.38-1.65-0.77-2.5-1.17-1.64-0.77-3.29-1.54-4.93-2.3-4.04-1.9-8.05-3.85-12-5.92-0.73-0.38-1.46-0.76-2.21-1.14-2.13-1.55-2.85-2.92-3.83-5.33z" fill="#975B37"/>
<path transform="translate(1341,269)" d="m0 0c-1.59 4.29-4.43 6.32-8 9h-2c-0.37 0.96-0.37 0.96-0.75 1.94-1.58 2.6-2.42 2.35-5.25 3.06-0.39 0.88-0.39 0.88-0.79 1.78-1.65 3.03-3.82 4.33-6.65 6.28-3.82 2.6-3.82 2.6-7.22 5.69-1.34 1.25-1.34 1.25-4.34 1.25-0.37 0.96-0.37 0.96-0.75 1.94-1.25 2.06-1.25 2.06-3.31 2.62-0.64 0.15-1.28 0.29-1.94 0.44l-1 3c-1.33 0.33-2.67 0.67-4 1l-1 3c-1.75 1.01-3.51 2.01-5.29 2.95-2.16 1.32-3.29 2.99-4.71 5.05-1.49 0.5-1.49 0.5-3 1l-4 4h-2l-1 3c-4.33 3-4.33 3-7 3l-1 3c-1.99 1.35-3.99 2.68-6 4-0.85 0.87-1.69 1.73-2.56 2.62-2.47 2.41-4.29 3.16-7.44 4.38l-1 3c-4.33 3-4.33 3-7 3l-1 3c-1.32 0.68-2.66 1.35-4 2-0.87 0.89-0.87 0.89-1.77 1.79-3.43 3.39-7.36 6.06-11.3 8.89-3.01 2.25-3.01 2.25-5.57 4.92-2.21 2.21-4.26 3.76-6.9 5.4-3.63 2.34-6.48 4.9-9.5 8-1.66 1.02-3.32 2.02-5 3-1.08 0.88-2.14 1.78-3.19 2.69-2.81 2.31-2.81 2.31-4.81 2.31l-1 3c-0.64 0.14-1.28 0.29-1.94 0.44-0.68 0.18-1.36 0.37-2.06 0.56l-0.94 1.88c-1.43 2.87-3.23 3.71-6.06 5.12h-2l-1 3c-1.99 1.35-3.99 2.68-6 4-0.87 0.89-1.73 1.77-2.62 2.69-2.4 2.33-3.28 2.65-6.38 3.31l-1 3c-1.75 1.01-3.51 2.01-5.29 2.95-2.16 1.32-3.29 2.99-4.71 5.05-0.99 0.33-1.98 0.66-3 1-0.93 0.96-0.93 0.96-1.88 1.94-2.12 2.06-2.12 2.06-4.74 3.06-2.92 1.23-3.05 2.25-4.38 5-1.33 0.36-2.66 0.7-4 1l-1 3c-1.33 0.33-2.67 0.67-4 1l-1 3c-0.99 0.33-1.98 0.66-3 1-1.35 1.32-2.68 2.65-4 4-1.87 1.47-3.77 2.9-5.69 4.31-3.81 2.83-7.62 5.66-11.4 8.57-0.69 0.53-1.39 1.06-2.1 1.61-1.82 1.44-1.82 1.44-3.25 2.94-2.69 2.66-5.69 4.92-8.65 7.26-0.64 0.51-1.28 1.02-1.93 1.55-4.77 3.76-4.77 3.76-7.01 3.76l-1 3c-1.32 0.68-2.66 1.35-4 2l-1.75 1.75c-3.12 3.12-6.55 5.85-10.2 8.25h-2l-2 4h-3c-0.21 0.58-0.41 1.15-0.62 1.75-1.89 3.09-4.33 4.36-7.38 6.25-0.74 0.58-1.48 1.15-2.25 1.75-1.75 1.25-1.75 1.25-3.75 1.25-0.37 0.96-0.37 0.96-0.75 1.94-1.25 2.06-1.25 2.06-3.31 2.62-0.96 0.22-0.96 0.22-1.94 0.44l-1 3c-1.96 1.39-3.96 2.72-6 4-0.74 0.58-1.48 1.15-2.25 1.75-1.75 1.25-1.75 1.25-3.75 1.25-0.28 0.84-0.28 0.84-0.56 1.69-2.08 3.34-5.05 5.36-8.44 7.31h-2c-0.31 0.87-0.31 0.87-0.62 1.75-1.52 2.49-3.14 3.53-5.59 5.04-2.91 1.97-5.4 4.42-7.96 6.82-1.83 1.39-1.83 1.39-4.83 1.39-0.25 0.64-0.5 1.28-0.75 1.94-1.25 2.06-1.25 2.06-3.31 2.62-0.64 0.15-1.28 0.29-1.94 0.44l-1 3c-4.33 3-4.33 3-7 3l-1 3c-1.32 0.68-2.66 1.35-4 2-0.64 0.66-1.28 1.32-1.94 2-2.06 2-2.06 2-4.75 3.06-0.76 0.31-1.52 0.62-2.31 0.94l-1 3c-1.78 1.61-1.78 1.61-3.94 3.19-0.71 0.53-1.42 1.06-2.15 1.6-1.91 1.21-1.91 1.21-3.91 1.21-0.27 0.64-0.54 1.28-0.81 1.94-1.19 2.06-1.19 2.06-4.19 3.06-1.1 1.13-2.19 2.26-3.28 3.4-4.89 4.55-10.6 8.81-16.7 11.6l1-5 4-1v-3c2.44-1.62 2.44-1.62 5-3l1-1c5.73-5 5.73-5 8-5v-2l5-2v-2c0.74-0.25 1.49-0.5 2.25-0.75 2.98-1.35 4.49-2.92 6.75-5.25 2.25-1.25 2.25-1.25 4-2v-2c1.09-0.6 2.19-1.2 3.31-1.81 2.63-1.5 4.6-2.99 6.69-5.19 0.99-0.33 1.98-0.66 3-1 0.29-0.62 0.58-1.24 0.88-1.88 1.49-2.82 3.37-3.55 6.12-5.12 1.35-1.31 2.69-2.65 4-4 2.73-2.33 4.58-3.86 8-5l1-3c0.78-0.08 1.57-0.16 2.38-0.25 2.74-0.45 2.74-0.45 3.68-2.63 0.31-0.7 0.62-1.4 0.94-2.12 3.43-3 3.43-3 6-3v-2l5-1c0.06-0.6 0.12-1.2 0.19-1.81 1.15-3.11 2.92-3.71 5.81-5.19 0.99-0.43 0.99-0.43 2-0.88 2.83-1.59 4.76-3.77 7-6.12 2.9-3.04 5.21-5.23 9-7l1.56-1.56c1.44-1.44 1.44-1.44 4.44-2.44 0.83-0.82 1.65-1.65 2.5-2.5 2.5-2.5 2.5-2.5 5.5-3.5l1-3c1.33-0.33 2.67-0.67 4-1l1-3 5-1v-3c5.26-4 5.26-4 8-4l1-3c1.32-0.7 2.65-1.37 4-2 0.77-0.8 0.77-0.8 1.56-1.62 1.44-1.38 1.44-1.38 4.44-1.38l2-4h3l1-3c0.99-0.33 1.98-0.66 3-1l2-2 3-2c1.53-1.77 2.96-3.6 4.4-5.44 1.6-1.56 1.6-1.56 3.73-2.09 0.62-0.15 1.23-0.31 1.87-0.47l1-3c0.72-0.06 1.44-0.12 2.19-0.19 3.68-1.06 5.19-3.06 7.81-5.81 1.66-1.01 3.33-2.01 5-3 1.37-1.29 2.71-2.63 4-4s2.62-2.71 4-4h2v-2c4.92-5.26 11.6-9.79 18-13 0.47-0.5 0.95-0.99 1.44-1.5 1.56-1.5 1.56-1.5 4.56-2.5l1-3c1.67-0.67 3.33-1.33 5-2l1-3c3.56-1.69 3.56-1.69 7-3v-2c2.47-0.99 2.47-0.99 5-2v-2c0.74-0.25 1.49-0.5 2.25-0.75 3-1.36 4.51-2.87 6.75-5.25 0.7-0.52 1.4-1.03 2.12-1.56 2.14-1.48 2.14-1.48 3.88-4.44h3l2-4h2l1-3 5-1 1-3c0.6-0.14 1.2-0.29 1.81-0.44 2.96-0.76 4.15-2.33 6.19-4.56 1.63-1.75 1.63-1.75 3-3h2c1.36-1.31 2.69-2.65 4-4 1.65-1.35 3.32-2.69 5-4 3.42-2.66 3.42-2.66 6.56-5.62 1.67-1.6 3.35-2.44 5.44-3.38v-2c0.62-0.27 1.24-0.54 1.88-0.81 2.42-1.15 2.42-1.15 4.12-4.19 1.49-0.5 1.49-0.5 3-1 1.69-1.65 3.35-3.31 5-5l2-1c1.72-1.64 3.3-3.34 4.88-5.12 2.41-2.13 3.97-2.53 7.12-2.88v-2c5.48-5 5.48-5 8-5v-2c0.91-0.41 1.82-0.82 2.75-1.25 3.07-1.65 4.9-3.23 7.25-5.75l2-1c0.8-0.82 1.61-1.65 2.44-2.5 2.56-2.5 2.56-2.5 5.56-3.5v-2c1.66-1.02 3.32-2.02 5-3l1-2c1.67-1 3.33-2 5-3l1-2c2.56-0.62 2.56-0.62 5-1v-2h2l1-3c1.45-0.46 1.45-0.46 2.94-0.94 3.17-0.74 3.17-0.74 4.44-3.18 0.3-0.93 0.3-0.93 0.62-1.88h3l1-3c1.33-0.67 2.67-1.33 4-2 0.83-0.82 1.65-1.65 2.5-2.5 2.66-2.66 4.66-4.5 8.5-4.5z" fill="#A2613B"/>
<path transform="translate(772)" d="m0 0h2v539c-2-1-2-1-2.62-2.82-0.64-3.63-0.52-7.3-0.51-11v-2.73-9.13-6.59c-0.01-6.06 0-12.1 0-18.2v-17.6c-0.01-12.7-0.01-25.4-0.01-38.1 0.01-11.1 0.01-22.2 0.01-33.4v-2.24c0-2.99 0-5.98-0.01-8.97 0-28.1 0-56.2 0.01-84.2v-74.9c-0.01-28-0.01-56 0-84.1v-8.96-2.22c0-11.1 0-22.2-0.01-33.4 0-12.6 0-25.3 0.01-37.9v-19.4c-0.01-5.9 0-11.8 0-17.7v-6.42-8.69-2.56c0.02-5.75 0.02-5.75 1.13-7.98z" fill="#A5633C"/>
<path transform="translate(1467,555)" d="m0 0c-4.56 2.06-8.86 3.6-13.8 4.75-1.39 0.33-2.79 0.67-4.18 1.01-0.78 0.19-1.57 0.38-2.38 0.57-6.69 1.66-13.4 3.45-20 5.21-5.79 1.51-11.6 2.91-17.5 3.95-2.28 0.47-2.28 0.47-4.61 1.48-2.86 1.13-5.63 1.79-8.64 2.43-1.74 0.38-1.74 0.38-3.51 0.76-1.2 0.26-2.4 0.51-3.64 0.78-9.14 1.95-18.1 4.08-26.9 7.13-4.42 1.42-8.94 2.3-13.5 3.25-5.54 1.2-11 2.62-16.5 4.09-7.1 1.92-14.2 3.69-21.4 5.47-1.4 0.34-2.8 0.69-4.2 1.04-2.81 0.7-5.61 1.4-8.41 2.1-5.57 1.38-11.1 2.78-16.7 4.17-1.94 0.48-3.87 0.97-5.81 1.45-0.92 0.23-1.83 0.46-2.78 0.69-1.31 0.33-1.31 0.33-2.66 0.67-0.83 0.21-1.66 0.41-2.51 0.63-0.8 0.2-1.6 0.4-2.43 0.6-1.19 0.3-1.19 0.3-2.41 0.61-1.59 0.39-3.17 0.79-4.76 1.19-5.06 1.26-10.1 2.53-15.2 3.8-1.27 0.32-2.53 0.64-3.83 0.96l-7.5 1.89c-1.15 0.28-2.29 0.57-3.47 0.87-1.02 0.25-2.04 0.51-3.09 0.77-1.83 0.44-3.66 0.85-5.5 1.21-2.46 0.45-2.46 0.45-5.32 1.47-12.4 3.73-25 6.82-37.6 9.88-4.29 1.04-8.47 2.12-12.6 3.62-5.6 1.96-11.4 2.83-17.3 3.85-3.44 0.56-3.44 0.56-6.48 1.65-10.2 3.05-20.5 5.66-31 7.57-4.83 0.89-9.34 2.14-14 3.76-2.43 0.81-4.86 1.35-7.39 1.79-2.67 0.49-5.03 1.02-7.62 1.88-11.4 3.45-11.4 3.45-17 3v2c-5.52 1.4-11.1 2.66-16.6 3.96-2.04 0.47-4.08 0.95-6.12 1.42-11 2.57-11 2.57-16.2 3.69-4.37 0.96-8.67 2.15-13 3.37-1.58 0.44-3.16 0.88-4.74 1.33-2.54 0.71-5.09 1.43-7.64 2.15-5.12 1.43-10.2 2.62-15.4 3.61-2.1 0.43-4.11 0.97-6.17 1.59-3.12 0.88-3.12 0.88-7.12 0.88l-1-3c5.24-1.75 9.47-2.19 15-2l-2-3c1.14-0.12 2.29-0.25 3.46-0.38 4.46-0.55 8.75-1.53 13.1-2.62 5.14-1.28 10.2-2.32 15.4-3 3.74-0.69 7.4-1.56 11.1-2.56 1.94-0.44 1.94-0.44 4.94-0.44l1-2c1.96-0.38 1.96-0.38 4.38-0.56 2.81-0.23 4.91-0.54 7.62-1.44 0.68-0.14 1.36-0.29 2.06-0.44 2.15-0.45 2.15-0.45 3.94-2.56 2-0.04 4-0.04 6 0 0.99-0.33 1.98-0.66 3-1 1.35-0.14 2.71-0.27 4.06-0.38 1.95-0.3 1.95-0.3 3.94-0.62 0.99-1.49 0.99-1.49 2-3 3.44-0.12 3.44-0.12 7 0 0.99-0.33 1.98-0.66 3-1 1.56-0.22 3.12-0.4 4.69-0.56 0.81-0.09 1.61-0.17 2.45-0.26 0.61-0.06 1.23-0.12 1.86-0.18 0.49-1.49 0.49-1.49 1-3 0.96 0.09 0.96 0.09 1.94 0.19 3.64-0.23 6.57-1.28 9.97-2.53 2.09-0.66 2.09-0.66 5.09-0.66v-2c1.28-0.12 2.56-0.25 3.88-0.38 5.11-0.56 10.1-1.54 15.1-2.62v-2c1.89-0.19 1.89-0.19 3.81-0.38 5.45-0.59 10.8-1.58 16.2-2.62v-2c1.22-0.1 2.44-0.2 3.7-0.3 6.17-0.7 12.1-2.27 18.1-3.82 2.47-0.64 4.95-1.27 7.43-1.9 3.22-0.82 6.45-1.65 9.67-2.48 4.4-1.13 8.8-2.26 13.2-3.38 1.14-0.29 2.29-0.59 3.47-0.9 5.84-1.48 11.4-2.59 17.4-2.82 2.53-0.5 3.29-1.57 5.03-3.4 2.88-0.12 2.88-0.12 6 0 3.51-0.49 4.98-0.99 8-3h5c0.62-0.33 1.24-0.66 1.88-1 2.12-1 2.12-1 5.31-0.94 5.89-0.09 10.9-1.8 15.8-5.06 1.94-0.38 1.94-0.38 4-0.56 2.6-0.24 4.48-0.6 7-1.44 2.66-0.41 5.33-0.69 8-1v-2c0.61-0.05 1.23-0.1 1.86-0.15 0.81-0.07 1.62-0.15 2.45-0.23 0.8-0.06 1.6-0.13 2.43-0.21 2.53-0.31 2.53-0.31 5.26-2.41 2.33-0.08 4.67-0.09 7 0l1-2c2.36-0.44 4.62-0.75 7-1 0.81-0.09 1.63-0.19 2.46-0.28 2.18-0.25 4.36-0.49 6.54-0.72v-2c1.24-0.12 2.47-0.25 3.75-0.38 2.37-0.23 4.05-0.52 6.19-1.6 3.19-1.58 6.52-1.84 10-2.36 3.15-0.6 3.15-0.6 6.39-1.98 5.96-2.27 12.1-3.71 18.3-5.25 1.32-0.34 2.63-0.67 3.95-1 2.75-0.69 5.5-1.38 8.24-2.07 3.51-0.87 7.02-1.76 10.5-2.65 2.71-0.69 5.43-1.37 8.15-2.04 1.91-0.48 3.83-0.97 5.74-1.46 5.7-1.41 10.9-2.65 16.7-2.21l1-2c2.36-0.56 2.36-0.56 5.31-1 4.01-0.58 4.01-0.58 7.75-2.05 2.37-1.16 4.07-1.15 6.69-1.07 0.8 0.01 1.6 0.03 2.42 0.05 0.61 0.02 1.21 0.05 1.83 0.07v-2h6l1-2c1.76 0.06 1.76 0.06 3.56 0.12 5.11 0.03 9.62-2.73 14.4-1.12z" fill="#955936"/>
<path transform="translate(907,165)" d="m0 0h3c0.04 1.67 0.04 3.33 0 5l-1 1c-0.51 3.59-0.9 7.18-1.3 10.8-0.56 3.97-1.68 7.65-2.88 11.5-1.86 6.25-3.2 12.6-4.66 19-0.25 1.07-0.5 2.14-0.76 3.24-0.22 0.96-0.44 1.93-0.67 2.92-0.68 2.42-1.6 4.36-2.73 6.59-0.37 1.44-0.69 2.89-0.96 4.34-0.24 1.25-0.24 1.25-0.49 2.52-0.16 0.87-0.32 1.74-0.49 2.64-1.45 7.57-3.08 15-5.06 22.5-0.75 2.99-1.49 5.98-2.23 8.97-0.51 2.03-1.01 4.06-1.52 6.09-0.27 1.07-0.53 2.14-0.81 3.25-1.65 6.6-3.36 13.2-5.13 19.8-1.8 6.74-3.26 13.5-4.56 20.3-1.06 5.15-2.45 10.2-3.84 15.3-0.91 3.38-1.68 6.76-2.41 10.2-0.82 3.6-1.83 7.15-2.82 10.7-1.21 4.41-2.22 8.86-3.2 13.3-0.31 1.35-0.61 2.71-0.91 4.07-0.47 2.12-0.94 4.24-1.41 6.37-1.53 6.98-3.09 13.9-5.49 20.6-1.29 4.01-1.97 8.15-2.73 12.3-1.01 5.44-2.17 10.6-3.94 15.8-1.04 4.05-1.98 8.12-2.94 12.2-5.45 23.2-5.45 23.2-7.06 24.8-0.66 3.57-1.25 7.15-1.81 10.7-0.12 0.76-0.25 1.51-0.37 2.28-0.11 0.69-0.22 1.38-0.33 2.09-0.49 1.89-0.49 1.89-2.49 4.89-0.4 2.07-0.73 4.16-1 6.25-0.63 4.76-1.66 9.14-3 13.8-0.89 3.85-1.7 7.72-2.5 11.6-0.16 0.77-0.33 1.54-0.5 2.33-0.14 0.69-0.29 1.38-0.44 2.08-0.61 2.17-1.55 3.99-2.56 6-0.57 2.36-1.09 4.74-1.56 7.12-1.34 6.69-1.34 6.69-2.44 8.88h-2c-1.09-4.02-0.83-6.59 0.38-10.6 0.27-0.93 0.55-1.86 0.83-2.82 0.26-0.86 0.52-1.73 0.79-2.62 0.87-3.32 1.61-6.66 2.38-10 1.01-4.41 2.07-8.8 3.18-13.2 1.07-4.23 2.01-8.46 2.84-12.8 0.86-4.38 1.76-8.75 2.66-13.1 0.18-0.86 0.35-1.72 0.53-2.6 0.17-0.81 0.34-1.61 0.51-2.44 0.15-0.72 0.3-1.45 0.45-2.2 0.45-1.7 0.45-1.7 1.45-2.7l-1-2 2-1c0.55-2.19 0.98-4.4 1.38-6.62 0.99-5.44 2.2-10.7 3.68-16.1 2.91-10.5 2.91-10.5 3.94-21.3h2c0.16-0.79 0.32-1.58 0.48-2.39 1.41-6.83 3.01-13.6 4.83-20.3 2.48-9.17 4.55-18.4 6.55-27.7 1.33-6.13 2.78-12.2 4.48-18.2 0.61-2.19 1.18-4.4 1.72-6.61 0.9-3.61 1.92-7.17 2.94-10.8 1.17-4.6 2.29-9.2 3.34-13.8 1.53-6.64 3.21-13.2 5.1-19.7 2.34-8.15 4.07-16.4 5.75-24.7 1.43-7.03 3.05-14 4.85-20.9 1.08-4.33 2.02-8.68 2.96-13 1.09-5.04 2.29-9.92 3.94-14.8 3.47-10.7 7.06-23.7 7.06-35h2c0.13-0.81 0.27-1.62 0.4-2.45 0.18-1.07 0.36-2.14 0.54-3.24 0.17-1.05 0.35-2.11 0.52-3.2 0.47-2.71 0.98-5.41 1.54-8.11h2l1-7z" fill="#A4623B"/>
<path transform="translate(657,165)" d="m0 0c1.93 0.73 1.93 0.73 4 2 0.79 1.95 0.79 1.95 1.2 4.32 0.15 0.87 0.31 1.73 0.48 2.62 0.14 0.91 0.29 1.81 0.44 2.75 0.32 1.77 0.63 3.55 0.95 5.32 0.15 0.86 0.31 1.73 0.46 2.62 0.47 2.56 0.47 2.56 1.44 5.76 1.75 6.14 2.75 12.4 3.91 18.7 1.75 9.31 3.76 18.6 5.79 27.8 1.3 5.94 2.57 11.9 3.83 17.8 0.21 0.97 0.41 1.94 0.62 2.94 0.84 3.93 1.67 7.86 2.5 11.8 0.63 2.94 1.25 5.89 1.88 8.83 0.2 0.96 0.41 1.92 0.62 2.91 1.7 7.99 3.43 16 5.18 24 1.13 5.18 2.21 10.4 3.24 15.6 0.64 3.19 1.35 6.36 2.08 9.53 0.3 1.31 0.6 2.62 0.9 3.94 0.46 2 0.91 4 1.37 6 1.95 8.52 3.79 17 5.47 25.6 0.54 2.69 1.12 5.35 1.76 8.01 0.89 3.83 1.23 7.61 1.44 11.5 0.4 2.38 0.99 4.19 1.88 6.42 1.65 4.23 2.44 8.38 3.12 12.8 0.78 5.01 1.81 9.57 3.44 14.4 0.48 2.43 0.91 4.87 1.31 7.31 1.3 7.7 2.78 15.4 4.31 23 0.22 1.09 0.44 2.19 0.67 3.31 1.02 5.2 1.02 5.2 2.21 10.4 0.61 2.47 1.12 4.95 1.62 7.44 0.21 1.04 0.43 2.09 0.65 3.16 0.44 2.18 0.89 4.36 1.33 6.55 1.04 5.09 2.22 9.94 3.9 14.9 0.4 2.2 0.75 4.41 1.06 6.62 0.5 3.53 1.06 6.93 1.94 10.4 0.31 1.42 0.61 2.84 0.9 4.27 0.17 0.8 0.34 1.61 0.51 2.44 0.35 1.68 0.7 3.35 1.04 5.03 1.07 5.12 2.25 10.2 3.55 15.3h-3v-3h-2c-5.32-21.4-5.32-21.4-6.54-31.3-0.39-2.73-0.39-2.73-1.38-5.39-1.17-3.58-2-7.18-2.77-10.9-0.23-1.06-0.23-1.06-0.46-2.14-0.31-1.49-0.62-2.98-0.94-4.47-0.47-2.26-0.95-4.52-1.43-6.78-0.31-1.45-0.62-2.9-0.92-4.36-0.14-0.67-0.28-1.33-0.43-2.02-0.88-4.21-1.56-8.41-2.13-12.7h-1c-0.11-0.6-0.21-1.21-0.32-1.83-2.58-14.8-2.58-14.8-6.02-29.5-1.19-4.85-1.92-9.77-2.66-14.7h-1c-0.11-0.74-0.22-1.48-0.34-2.25-0.5-3.35-1.02-6.71-1.54-10.1-0.17-1.17-0.34-2.34-0.52-3.54-0.18-1.12-0.35-2.24-0.53-3.39-0.24-1.55-0.24-1.55-0.48-3.12-0.47-2.85-0.47-2.85-2.59-5.64-0.45-1.91-0.45-1.91-0.75-4.06-0.11-0.79-0.22-1.59-0.34-2.4-0.11-0.84-0.23-1.68-0.35-2.54-0.92-6.31-2.06-12.4-3.88-18.5-1.01-3.76-1.55-7.57-2.14-11.4-0.57-3.3-1.32-6.54-2.1-9.8-0.93-3.85-1.65-7.56-2-11.5-0.04-3.83-0.04-3.83-2.44-5.81-0.52-2.78-0.94-5.51-1.31-8.31-0.99-6.83-2.26-13.5-3.94-20.2-2.39-9.59-4.34-19.2-6.25-28.9-1.88-9.53-3.77-19-6-28.5-2.71-11.5-4.89-23.1-7.09-34.7-0.14-0.75-0.29-1.51-0.44-2.29-0.27-1.42-0.54-2.84-0.8-4.26-0.65-3.4-1.39-6.78-2.24-10.1-0.79-3.12-1.29-5.99-1.55-9.19-0.08-0.86-0.15-1.71-0.23-2.59-0.05-0.63-0.1-1.26-0.15-1.91zm31 148 1 3zm14 67 1 2z" fill="#A4623B"/>
<path transform="translate(433,268)" d="m0 0c4.42 3.18 7.34 6.78 10.5 11.1 0.77 1.05 0.77 1.05 1.56 2.12 1.66 2.25 3.3 4.5 4.94 6.76 0.54 0.75 1.09 1.49 1.65 2.27 2.74 3.78 5.47 7.56 8.19 11.4 6.77 9.41 13.6 18.7 20.6 28 0.49 0.67 0.99 1.33 1.5 2.02 4.3 6.52 4.3 6.52 10.1 11.4 0.99 1.68 1.98 3.37 2.91 5.09 1.03 1.81 2.15 3.51 3.34 5.22 1.75 2.69 1.75 2.69 1.75 4.69h2c0.91 1.3 1.81 2.6 2.65 3.94 2.41 3.68 5.11 7.15 7.74 10.7 1.61 2.39 1.61 2.39 1.61 4.39 1.49 0.5 1.49 0.5 3 1 1.01 1.76 2.01 3.52 2.96 5.3 0.99 1.86 0.99 1.86 3.04 3.2 2.45 1.84 3.51 4.02 4.94 6.68 1.32 2.27 2.99 4.18 4.7 6.15 2.2 2.7 4.04 5.64 5.94 8.55 2.22 3.31 4.61 6.31 7.42 9.12 1.76 2.7 3.45 5.44 5.15 8.18 1.81 2.76 3.75 5.27 5.85 7.82 4.23 5.21 8.34 10.4 12 16 0.62 0.76 1.24 1.53 1.88 2.31 1.84 2.34 3.44 4.69 5.06 7.19 2.36 3.61 4.96 6.49 8.06 9.5 1.19 2.19 1.19 2.19 2 4l2 2c1.29 1.76 2.54 3.55 3.78 5.34 1.26 1.8 1.26 1.8 3.22 3.66 1.06 1.65 2.1 3.32 3.12 5 3.58 5.68 7.61 10.8 11.9 16 2.4 2.96 4.64 5.92 6.73 9.12 5.18 7.81 5.18 7.81 11.3 14.9 0.6 0.9 1.19 1.79 1.81 2.71 2.67 4 5.6 7.75 8.57 11.5 1.92 2.47 3.7 4.91 5.3 7.61 1.14 2.29 1.14 2.29 3.32 3.16l1 3 2 2c1.31 2.01 2.54 4.07 3.78 6.12 1.21 2.01 1.21 2.01 3.22 3.88 1.69 2.44 1.69 2.44 3 5l-1 3c-6.25-4.79-6.25-4.79-7-9-0.99-0.33-1.98-0.66-3-1-1.32-1.9-1.32-1.9-2.69-4.38-3.94-6.85-8.5-13.2-13.6-19.3-1.76-2.3-1.76-2.3-1.76-4.3-0.99-0.33-1.98-0.66-3-1-0.69-2.06-0.69-2.06-1-4h-2c-0.91-1.3-1.81-2.6-2.65-3.94-2.41-3.68-5.11-7.15-7.74-10.7-1.61-2.39-1.61-2.39-1.61-4.39h-2c-1.7-2.05-1.7-2.05-3.69-4.88-0.71-1-1.42-2-2.16-3.04-0.71-1.02-1.42-2.03-2.15-3.08-0.62-0.88-1.23-1.77-1.87-2.68-1.16-1.65-2.31-3.31-3.46-4.97-1.61-2.27-3.28-4.46-4.98-6.66-2.11-2.78-3.64-5.33-4.69-8.69h-2c-1.42-1.71-1.42-1.71-3.05-4.09-0.59-0.87-1.19-1.74-1.81-2.63-0.62-0.92-1.25-1.83-1.89-2.78-4.3-6.27-8.64-12.5-13.2-18.5-0.91-1.2-1.81-2.41-2.72-3.61-0.45-0.6-0.9-1.2-1.36-1.82-5.03-6.68-10-13.4-15-20.1-0.89-1.2-0.89-1.2-1.79-2.43-2.71-3.68-5.41-7.36-8.1-11.1-4.98-6.85-10-13.6-15.4-20.2-2.76-3.47-5.25-7.05-7.7-10.7-1.61-2.12-3.23-4.22-4.88-6.31-11.1-14.3-11.1-14.3-11.1-17.7h-2c-1.38-1.97-2.71-3.97-4-6-1.32-1.8-2.65-3.59-4-5.38-0.78-1.03-1.56-2.07-2.37-3.14-0.63-0.84-0.63-0.84-1.28-1.69-6.61-8.76-13.2-17.5-19.6-26.4-2.53-3.49-5.12-6.93-7.72-10.4-3.01-3.99-6.01-7.99-9-12-0.84-1.12-0.84-1.12-1.69-2.25-3.31-4.51-3.31-4.51-3.31-6.75h-2c-0.98-1.38-1.95-2.78-2.84-4.21-1.24-1.91-2.59-3.68-3.97-5.48-1.09-1.64-1.09-1.64-2.19-3.31l1-3z" fill="#A3613B"/>
<path transform="translate(1126,268)" d="m0 0c1.98 0.5 1.98 0.5 4 1l-2 4h-2c-0.09 0.55-0.19 1.1-0.29 1.67-0.9 2.95-2.37 5.06-4.15 7.58-0.61 0.89-1.23 1.78-1.87 2.7-0.56 0.68-1.11 1.35-1.69 2.05h-2c-0.39 1.08-0.39 1.08-0.79 2.18-1.27 2.95-2.79 5.33-4.65 7.94-0.89 1.28-0.89 1.28-1.81 2.58-1.49 1.96-3.01 3.57-4.75 5.3-1.83 2.36-3.6 4.74-5.38 7.14-0.53 0.61-1.07 1.23-1.62 1.86h-2c-0.09 0.56-0.17 1.12-0.26 1.7-0.96 2.98-2.54 4.78-4.55 7.18-3.39 4.09-3.39 4.09-6.44 8.43-1.77 2.73-3.6 5.25-5.75 7.69h-2c-0.08 0.55-0.16 1.1-0.24 1.67-1.03 3.15-2.8 5.06-4.95 7.58-2.81 3.35-5.6 6.7-8.25 10.2-0.68 0.89-0.68 0.89-1.37 1.81-1.25 1.84-2.24 3.73-3.19 5.75h-2l-2 5h-2c-0.36 1.07-0.36 1.07-0.72 2.15-1.49 3.33-3.41 5.65-5.78 8.41-2.63 3.08-4.73 5.82-6.5 9.44-0.99 1.01-1.99 2.01-3 3-1.58 2.01-3.14 4.02-4.69 6.06-3.79 4.98-7.65 9.88-11.6 14.7-1.76 2.32-3.2 4.72-4.69 7.22-2.59 3.72-5.3 7.36-8 11-0.99 1.34-0.99 1.34-2.01 2.71-0.61 0.82-1.23 1.64-1.87 2.48-0.55 0.73-1.1 1.47-1.67 2.23-0.48 0.52-0.96 1.04-1.45 1.58h-2c-0.25 0.73-0.51 1.45-0.77 2.2-1.31 2.98-2.84 5.05-4.92 7.55-0.71 0.87-1.43 1.75-2.17 2.64-0.7 0.86-1.41 1.72-2.14 2.61-4.46 5.6-8.71 11.3-12.9 17.1-3.64 5-7.38 9.94-11.1 14.9-1.65 2.19-3.29 4.37-4.94 6.56-0.73 0.97-1.46 1.94-2.21 2.94-1.33 1.8-2.61 3.64-3.85 5.5h-2l-0.75 2.25c-1.35 2.98-2.92 4.49-5.25 6.75-1.24 2.13-1.24 2.13-2 4h-2c-0.27 0.76-0.54 1.53-0.81 2.31-1.17 2.63-2.16 3.75-4.19 5.69l-1.06 2.12c-0.94 1.88-0.94 1.88-2.94 2.88-0.5 0.85-0.99 1.69-1.5 2.56-0.74 1.21-0.74 1.21-1.5 2.44h-2c-0.09 0.8-0.09 0.8-0.19 1.62-1.17 3.43-3.48 5.65-5.81 8.38-0.68 1.33-1.35 2.66-2 4l-2 1c-0.5 0.85-0.99 1.69-1.5 2.56-0.5 0.81-0.99 1.61-1.5 2.44h-2c-0.11 0.58-0.22 1.17-0.34 1.77-2.06 6.94-8.91 13-13.7 18.2l-2-1c4.81-12.4 4.81-12.4 10-15 0.15-0.87 0.15-0.87 0.31-1.75 0.81-2.64 2.13-3.73 4.1-5.57 2.88-3.04 5.17-6.55 7.59-9.95 1.72-2.35 3.51-4.55 5.44-6.73 2.69-2.78 2.69-2.78 3.56-6 0.97-1.03 1.98-2.02 3-3 3.43-4.19 6.69-8.51 9.81-12.9 2.19-3.06 2.19-3.06 4.19-5.06 0.27-0.6 0.54-1.2 0.81-1.81 1.62-2.98 3.66-4.97 6.19-7.19h3l-1-3c0.87-2.45 1.88-3.88 3.75-5.69 2.75-2.83 4.69-5.95 6.79-9.29 1.46-2.02 1.46-2.02 4.46-4.02 1.19-2.05 1.19-2.05 2-4h2c0.29-0.8 0.58-1.61 0.88-2.44 1.12-2.56 1.12-2.56 3.12-3.56 1.05-1.85 1.05-1.85 2-4 0.67-1.33 1.33-2.67 2-4h2l2-5h2l2-5h2c0.29-0.58 0.58-1.15 0.88-1.75 1.04-2.08 2.08-4.17 3.12-6.25h2c0.46-1.18 0.46-1.18 0.94-2.38 1.06-2.62 1.06-2.62 2.06-4.62h2l0.94-1.88c0.68-1.37 1.37-2.74 2.06-4.12h2c0.27-0.78 0.54-1.57 0.81-2.38 1.19-2.62 1.19-2.62 4.19-4.62 1.02-1.66 2.02-3.32 3-5l3-3v-2h2l1-3h2c0.1-0.78 0.21-1.57 0.31-2.38 0.69-2.62 0.69-2.62 3.69-4.62 1.19-2.05 1.19-2.05 2-4 0.99 0.33 1.98 0.66 3 1l-1-3c1.23-3.47 3.44-5.44 6-8 0.68-1.33 1.35-2.66 2-4l3-3c0.52-0.87 1.03-1.73 1.56-2.62 1.44-2.38 1.44-2.38 3.44-3.38l1-3c1.31-1.35 2.65-2.69 4-4l1-2c2.06-1.12 2.06-1.12 4-2v-2c0.41-0.39 0.83-0.78 1.25-1.19 1.71-1.77 2.6-3.28 3.75-5.43 2-3.38 2-3.38 5-4.38v-4c0.62-0.06 1.24-0.12 1.88-0.19 2.34-0.61 2.34-0.61 3.12-3 0.33-0.93 0.66-1.85 1-2.81 3.56-5.78 3.56-5.78 6-7l1-2c1-2 1-2 3-3 1.1-2 2.02-4.04 2.94-6.12 1.06-1.88 1.06-1.88 4.06-3.88 1.03-1.65 2.02-3.32 3-5 1.33-1.75 2.68-3.48 4.06-5.19 0.69-0.86 1.39-1.72 2.1-2.6 1.67-2.01 3.38-3.8 5.34-5.52 1.82-2.05 2.5-4.15 3.5-6.69 0.99-0.5 0.99-0.5 2-1l1-2c1-2 1-2 3-3 1.05-1.98 2.05-3.97 3-6h2l0.75-2.25c1.35-2.98 2.84-4.57 5.25-6.75l2-2v-2z" fill="#A4623B"/>
<path transform="translate(969,717)" d="m0 0c49-0.07 98-0.12 147-0.15 5.78-0.01 11.6-0.01 17.3-0.01 1.16-0.01 2.31-0.01 3.49-0.01 18.6-0.01 37.3-0.03 56-0.06 19.1-0.03 38.2-0.05 57.4-0.05 11.8-0.01 23.6-0.02 35.4-0.04 8.09-0.02 16.2-0.02 24.3-0.02 4.68 0 9.35 0 14-0.02 4.28-0.01 8.55-0.01 12.8 0 1.55 0 3.1-0.01 4.65-0.01 2.1-0.02 4.2-0.01 6.3 0h3.54c2.84 0.37 2.84 0.37 5.84 3.37-191 0.5-191 0.5-386 1l-2-4z" fill="#A4623B"/>
<path transform="translate(205,717)" d="m0 0c48.5-0.07 97-0.12 146-0.15 5.72-0.01 11.4-0.01 17.2-0.01 1.14-0.01 2.28-0.01 3.45-0.01 18.5-0.01 36.9-0.03 55.4-0.06 18.9-0.03 37.9-0.05 56.8-0.05 11.7-0.01 23.4-0.02 35.1-0.04 8.01-0.02 16-0.02 24-0.02 4.63 0 9.26 0 13.9-0.02 4.23-0.01 8.46-0.01 12.7 0 1.53 0 3.07-0.01 4.61-0.01 2.07-0.02 4.15-0.01 6.22 0h3.51c0.89 0.12 1.77 0.24 2.69 0.37l2 3h-383v-3z" fill="#A4623B"/>
<path transform="translate(1297,466)" d="m0 0-1 3c-1.64 0.77-3.29 1.53-4.99 2.2-3.39 1.35-6.62 3.03-9.89 4.68-1.05 0.52-1.05 0.52-2.13 1.06-4.38 2.21-8.68 4.51-13 6.93-3.94 2.18-8 4.13-12 6.13l-7.62 3.81c-4.03 2.02-8.05 4.03-12.1 6.03-9.45 4.68-18.8 9.53-28.2 14.4-8.71 4.55-17.5 8.95-26.3 13.3-3.91 1.96-7.72 4.05-11.5 6.19-4.03 2.21-8.16 4.22-12.3 6.25l-4.62 2.31c-9.21 4.61-18.4 9.21-27.6 13.8-0.96 0.49-1.93 0.97-2.92 1.47-1.85 0.92-3.71 1.84-5.57 2.76-7.15 3.54-14.2 7.24-21.3 11-5.31 2.81-10.7 5.52-16 8.18-3.56 1.8-7.07 3.68-10.6 5.56-5.75 3.08-11.5 6.06-17.4 8.94l-7.62 3.81c-1.39 0.7-2.78 1.39-4.17 2.08-0.7 0.35-1.39 0.7-2.11 1.06-6.12 3.06-6.12 3.06-8.11 4.06-1.33 0.66-2.66 1.33-3.99 1.99-3.32 1.66-6.64 3.32-9.96 4.96-7.67 3.81-15.3 7.73-22.8 11.8-6.68 3.55-13.4 6.93-20.2 10.3-2.88 1.44-5.75 2.87-8.62 4.31-1.33 0.67-2.66 1.33-3.98 1.99-1.92 0.96-3.83 1.93-5.72 2.95-2.22 0.99-3.44 0.55-5.68-0.25 4.66-2.89 9.51-5.23 14.4-7.6 2.66-1.15 2.66-1.15 3.55-3.4h3l2-2c2-0.67 4-1.33 6-2l2-2c0.99-0.33 1.98-0.66 3-1 0.59-0.3 1.19-0.59 1.8-0.9 2.76-1.38 5.59-2.55 8.45-3.72 1.08-0.45 2.16-0.9 3.27-1.36 1.23-0.5 1.23-0.5 2.48-1.02v-2c0.63-0.19 1.25-0.39 1.9-0.59 0.82-0.26 1.63-0.52 2.48-0.79 0.81-0.25 1.62-0.51 2.46-0.77 2.32-0.75 2.32-0.75 4.16-2.85l7-3 2-2c1.99-0.69 3.99-1.36 6-2 2.59-1.15 3.97-1.97 6-4 1.33-0.35 2.66-0.69 4-1 2.56-1.13 4-2 6-4 1.66-0.68 3.33-1.35 5-2l3-2c0.97-0.29 1.94-0.58 2.94-0.88 3.13-0.9 3.13-0.9 5.12-3.18 2.32-2.32 3.78-2.44 6.94-2.94l2-2c2-0.67 4-1.33 6-2l2-2c0.78-0.31 1.57-0.62 2.38-0.94 2.64-0.94 2.64-0.94 4.68-2.62 2.05-1.52 3.46-1.96 5.94-2.44 2.95-0.78 2.95-0.78 4.75-2.44 2.91-2.02 5.83-2.71 9.25-3.56v-2c1.2-0.35 2.39-0.7 3.62-1.06 4.47-1.48 8.62-3.41 12.8-5.5 0.61-0.31 1.23-0.61 1.86-0.93 2.58-1.31 4.64-2.45 6.7-4.51 0.97-0.31 1.94-0.62 2.94-0.94 3.04-0.79 3.04-0.79 4.62-2.68 1.44-1.38 1.44-1.38 4.13-1.57 1.14 0.1 1.14 0.1 2.31 0.19l1-4c2.02-0.42 4.04-0.85 6.05-1.27 2.32-0.65 2.32-0.65 3.95-3.73 1.99-0.38 3.99-0.71 6-1 2.88-1.83 2.88-1.83 4.81-3.56 2.19-1.44 2.19-1.44 5.13-1.88 3.69-0.68 5.22-2.16 8.06-4.56 1.66-0.67 3.33-1.34 5-2l1.56-1.56c1.77-1.77 3.05-1.86 5.44-2.44 0.93-0.71 0.93-0.71 1.88-1.44 2.57-1.89 5.08-2.63 8.12-3.56 2.07-0.95 2.07-0.95 3.88-2.5 2.63-1.86 4.86-2.29 8-2.81 2.38-0.67 2.38-0.67 5.12-2.69 2.7-1.8 4.01-2.25 7-3 0.88-0.6 1.76-1.19 2.67-1.8 4.03-2.66 8.21-4.67 12.6-6.73 3.52-1.54 3.52-1.54 5.77-4.47 2-0.62 4-1 6.06-1.38 2.02-0.48 2.02-0.48 3.38-2.06 1.98-1.98 3.95-2.62 6.56-3.56 1.28-0.64 2.55-1.28 3.81-1.94 2.19-1.06 2.19-1.06 4.81-2.06 2.51-0.88 2.51-0.88 4.38-3 1.24-0.4 1.24-0.4 2.5-0.81 4.74-1.61 9.06-3.89 13.5-6.19v-2c0.72-0.12 1.44-0.25 2.19-0.38 3.34-0.74 6.4-2.62 9.81-2.62z" fill="#A5633C"/>
<path transform="translate(1120,444)" d="m0 0 1 2c-3 3.15-6.18 5.73-9.69 8.31-3.81 2.83-7.62 5.66-11.4 8.57-0.69 0.53-1.39 1.06-2.1 1.61-1.82 1.44-1.82 1.44-3.25 2.94-2.69 2.66-5.69 4.92-8.65 7.26-0.64 0.51-1.28 1.02-1.93 1.55-4.77 3.76-4.77 3.76-7.01 3.76l-1 3c-1.32 0.68-2.66 1.35-4 2l-1.75 1.75c-3.12 3.12-6.55 5.85-10.2 8.25h-2l-2 4h-3c-0.21 0.58-0.41 1.15-0.62 1.75-1.89 3.09-4.33 4.36-7.38 6.25-0.74 0.58-1.48 1.15-2.25 1.75-1.75 1.25-1.75 1.25-3.75 1.25-0.37 0.96-0.37 0.96-0.75 1.94-1.25 2.06-1.25 2.06-3.31 2.62-0.96 0.22-0.96 0.22-1.94 0.44-0.49 1.49-0.49 1.49-1 3-1.96 1.39-3.96 2.72-6 4-0.74 0.58-1.48 1.15-2.25 1.75-1.75 1.25-1.75 1.25-3.75 1.25-0.19 0.56-0.37 1.11-0.56 1.69-2.08 3.34-5.05 5.36-8.44 7.31h-2c-0.21 0.58-0.41 1.15-0.62 1.75-1.52 2.49-3.14 3.53-5.59 5.04-2.91 1.97-5.4 4.42-7.96 6.82-1.83 1.39-1.83 1.39-4.83 1.39-0.25 0.64-0.5 1.28-0.75 1.94-1.25 2.06-1.25 2.06-3.31 2.62-0.96 0.22-0.96 0.22-1.94 0.44-0.5 1.49-0.5 1.49-1 3-4.33 3-4.33 3-7 3-0.5 1.49-0.5 1.49-1 3-1.32 0.68-2.66 1.35-4 2-0.96 0.99-0.96 0.99-1.94 2-2.06 2-2.06 2-4.75 3.06-1.14 0.47-1.14 0.47-2.31 0.94l-1 3c-1.78 1.61-1.78 1.61-3.94 3.19-0.71 0.53-1.42 1.06-2.15 1.6-1.91 1.21-1.91 1.21-3.91 1.21-0.27 0.64-0.54 1.28-0.81 1.94-1.19 2.06-1.19 2.06-4.19 3.06-1.1 1.13-2.19 2.26-3.28 3.4-4.89 4.55-10.6 8.81-16.7 11.6l1-5 4-1v-3c2.44-1.62 2.44-1.62 5-3l1-1c5.73-5 5.73-5 8-5v-2c2.48-0.99 2.48-0.99 5-2v-2c0.74-0.25 1.49-0.5 2.25-0.75 2.98-1.35 4.49-2.92 6.75-5.25 2.25-1.25 2.25-1.25 4-2v-2c1.09-0.6 2.19-1.2 3.31-1.81 2.63-1.5 4.6-2.99 6.69-5.19 0.99-0.33 1.98-0.66 3-1 0.29-0.62 0.58-1.24 0.88-1.88 1.49-2.82 3.37-3.55 6.12-5.12 1.35-1.31 2.69-2.65 4-4 2.73-2.33 4.58-3.86 8-5 0.5-1.49 0.5-1.49 1-3 0.78-0.08 1.57-0.16 2.38-0.25 2.74-0.45 2.74-0.45 3.68-2.63 0.47-1.05 0.47-1.05 0.94-2.12 3.43-3 3.43-3 6-3v-2l5-1c0.06-0.6 0.12-1.2 0.19-1.81 1.15-3.11 2.92-3.71 5.81-5.19 0.66-0.29 1.32-0.58 2-0.88 2.83-1.59 4.76-3.77 7-6.12 2.9-3.04 5.21-5.23 9-7l1.56-1.56c1.44-1.44 1.44-1.44 4.44-2.44 0.83-0.82 1.65-1.65 2.5-2.5 2.5-2.5 2.5-2.5 5.5-3.5l1-3c1.33-0.33 2.67-0.67 4-1l1-3c2.47-0.5 2.47-0.5 5-1v-3c5.26-4 5.26-4 8-4l1-3c1.32-0.7 2.65-1.37 4-2 0.52-0.54 1.03-1.07 1.56-1.62 1.44-1.38 1.44-1.38 4.44-1.38l2-4h3l1-3c0.99-0.33 1.98-0.66 3-1l2-2 3-2c1.53-1.77 2.96-3.6 4.4-5.44 1.6-1.56 1.6-1.56 3.73-2.09 0.62-0.15 1.23-0.31 1.87-0.47l1-3c0.72-0.06 1.44-0.12 2.19-0.19 3.66-1.06 5.22-3.08 7.81-5.81 0.99-0.33 1.98-0.66 3-1z" fill="#A1603A"/>
<path transform="translate(1143,636)" d="m0 0v3c-0.56 0.1-1.12 0.2-1.7 0.3-5.05 0.94-9.93 2.15-14.9 3.64-6.12 1.8-12.2 2.96-18.5 3.98-4.5 0.76-8.65 1.8-12.9 3.39-3.23 1.08-6.55 1.65-9.9 2.26-2.33 0.42-2.33 0.42-5.16 1.43-11.4 3.45-11.4 3.45-17 3v2c-5.52 1.4-11.1 2.66-16.6 3.96-2.04 0.47-4.08 0.95-6.12 1.42-11 2.57-11 2.57-16.2 3.69-4.37 0.96-8.67 2.15-13 3.37-1.58 0.44-3.16 0.88-4.74 1.33-2.54 0.71-5.09 1.43-7.64 2.15-5.12 1.43-10.2 2.62-15.4 3.61-2.1 0.43-4.11 0.97-6.17 1.59-3.12 0.88-3.12 0.88-7.12 0.88-0.5-1.49-0.5-1.49-1-3 5.24-1.75 9.47-2.19 15-2l-2-3c1.14-0.12 2.29-0.25 3.46-0.38 4.46-0.55 8.75-1.53 13.1-2.62 5.14-1.28 10.2-2.32 15.4-3 3.74-0.69 7.4-1.56 11.1-2.56 1.94-0.44 1.94-0.44 4.94-0.44l1-2c1.96-0.38 1.96-0.38 4.38-0.56 2.81-0.23 4.91-0.54 7.62-1.44 0.68-0.14 1.36-0.29 2.06-0.44 2.15-0.45 2.15-0.45 3.94-2.56 2-0.04 4-0.04 6 0 0.99-0.33 1.98-0.66 3-1 1.35-0.14 2.71-0.27 4.06-0.38 1.3-0.2 2.6-0.41 3.94-0.62 0.99-1.49 0.99-1.49 2-3 3.44-0.12 3.44-0.12 7 0 0.99-0.33 1.98-0.66 3-1 1.56-0.22 3.12-0.4 4.69-0.56 1.21-0.13 1.21-0.13 2.45-0.26 0.61-0.06 1.23-0.12 1.86-0.18l1-3c0.64 0.06 1.28 0.12 1.94 0.19 3.64-0.23 6.57-1.28 9.97-2.53 2.09-0.66 2.09-0.66 5.09-0.66v-2c1.28-0.12 2.56-0.25 3.88-0.38 5.11-0.56 10.1-1.54 15.1-2.62v-2c0.6-0.06 1.21-0.12 1.83-0.18 0.8-0.09 1.6-0.17 2.42-0.26 0.79-0.08 1.58-0.16 2.39-0.24 2.33-0.27 2.33-0.27 4.45-0.88 2.78-0.64 5.16 0 7.91 0.56z" fill="#945936"/>
<path transform="translate(1467,555)" d="m0 0c-4.56 2.06-8.86 3.6-13.8 4.75-1.39 0.33-2.79 0.67-4.18 1.01-1.18 0.28-1.18 0.28-2.38 0.57-6.69 1.66-13.4 3.45-20 5.21-5.79 1.51-11.6 2.91-17.5 3.95-2.28 0.47-2.28 0.47-4.61 1.48-2.86 1.13-5.63 1.79-8.64 2.43-1.16 0.25-2.32 0.5-3.51 0.76-1.2 0.26-2.4 0.51-3.64 0.78-9.1 1.94-18 4.01-26.8 7.12-12.1 3.77-12.1 3.77-17 1.94l-2-2c8.61-2.23 17.2-4.44 25.8-6.65 4.01-1.02 8.01-2.05 12-3.09 3.86-1 7.72-1.99 11.6-2.97 1.47-0.38 2.94-0.76 4.41-1.14 2.07-0.54 4.14-1.07 6.2-1.59 1.18-0.3 2.35-0.6 3.56-0.91 3.54-0.68 6.8-0.76 10.4-0.65l1-2c2.36-0.56 2.36-0.56 5.31-1 4.01-0.58 4.01-0.58 7.75-2.05 2.37-1.16 4.07-1.15 6.69-1.07 0.8 0.01 1.6 0.03 2.42 0.05 0.61 0.02 1.21 0.05 1.83 0.07v-2h6l1-2c1.76 0.06 1.76 0.06 3.56 0.12 5.11 0.03 9.62-2.73 14.4-1.12z" fill="#8D5433"/>
<path transform="translate(1297,466)" d="m0 0-1 3c-1.64 0.77-3.29 1.53-4.99 2.2-3.39 1.35-6.62 3.03-9.89 4.68-0.7 0.35-1.4 0.7-2.13 1.06-4.38 2.21-8.68 4.51-13 6.93-3.94 2.18-8 4.13-12 6.13l-7.62 3.81c-4.03 2.02-8.05 4.03-12.1 6.03-9.45 4.68-18.8 9.53-28.2 14.4-7 3.66-14 7.22-21.1 10.7-1.57 0.86-1.57 0.86-3.16 1.74-2.84 1.26-2.84 1.26-5.84 0.26 4.79-5.18 4.79-5.18 9-6 0.62-0.47 1.24-0.95 1.88-1.44 2.57-1.89 5.08-2.63 8.12-3.56 2.07-0.95 2.07-0.95 3.88-2.5 2.63-1.86 4.86-2.29 8-2.81 2.38-0.67 2.38-0.67 5.12-2.69 2.7-1.8 4.01-2.25 7-3 0.88-0.6 1.76-1.19 2.67-1.8 4.03-2.66 8.21-4.67 12.6-6.73 3.52-1.54 3.52-1.54 5.77-4.47 2-0.62 4-1 6.06-1.38 2.02-0.48 2.02-0.48 3.38-2.06 1.98-1.98 3.95-2.62 6.56-3.56 1.28-0.64 2.55-1.28 3.81-1.94 2.19-1.06 2.19-1.06 4.81-2.06 2.51-0.88 2.51-0.88 4.38-3 0.83-0.27 1.65-0.54 2.5-0.81 4.74-1.61 9.06-3.89 13.5-6.19v-2c0.72-0.12 1.44-0.25 2.19-0.38 3.34-0.74 6.4-2.62 9.81-2.62z" fill="#9F5F3A"/>
<path transform="translate(456,1137)" d="m0 0c7.56 6.37 10.5 15.8 13 25h-3c-7-7-7-7-9.31-9.62-2.96-2.61-5.28-3.49-9.02-4.51-1.67-0.87-1.67-0.87-2.52-2.79-0.15-2.08-0.15-2.08 1.66-4.77 2.98-3.15 4.88-4.09 9.19-3.31z" fill="#A2613B"/>
<path transform="translate(80,553)" d="m0 0c5.63-0.25 10.4 0.63 15.8 2.08 0.83 0.22 1.66 0.43 2.51 0.65 2.63 0.69 5.26 1.39 7.89 2.08 1.74 0.46 3.49 0.92 5.23 1.37 3.35 0.88 6.7 1.75 10 2.63 5.5 1.45 11 2.83 16.5 4.19-0.62 0.14-1.24 0.29-1.88 0.44-2.15 0.49-2.15 0.49-4.12 1.56-1.98-0.04-3.96-0.15-5.94-0.31-1.06-0.08-2.12-0.16-3.21-0.24-2.85-0.45-2.85-0.45-5.85-2.45-1.84-0.34-3.7-0.6-5.56-0.81-10.7-1.51-21.2-4.68-31.4-8.19v-3z" fill="#8E5534"/>
<path transform="translate(1143,636)" d="m0 0v3c-0.56 0.1-1.12 0.2-1.7 0.3-5.05 0.94-9.93 2.15-14.9 3.64-6.12 1.8-12.2 2.96-18.4 3.98-4.56 0.76-8.74 1.84-13 3.45-3.27 1.06-6.53 1.32-9.94 1.63 1.19-2.5 1.19-2.5 3-5 2.12-0.12 2.12-0.12 5 0 2.35-0.69 4.62-1.5 6.91-2.34 2.09-0.66 2.09-0.66 5.09-0.66v-2c1.28-0.12 2.56-0.25 3.88-0.38 5.11-0.56 10.1-1.54 15.1-2.62v-2c0.6-0.06 1.21-0.12 1.83-0.18 1.2-0.13 1.2-0.13 2.42-0.26 0.79-0.08 1.58-0.16 2.39-0.24 2.33-0.27 2.33-0.27 4.45-0.88 2.78-0.64 5.16 0 7.91 0.56z" fill="#975B37"/>
<path transform="translate(1172,527)" d="m0 0h4c-1.33 3.2-2.34 4.53-5.5 5.94-0.71 0.33-1.43 0.66-2.16 1-1.16 0.52-1.16 0.52-2.34 1.06-1.63 0.81-3.25 1.62-4.88 2.44-49.4 24.7-49.4 24.7-52.4 26.2-1.75 0.88-3.5 1.77-5.23 2.69-1.82 0.96-3.68 1.84-5.54 2.7l-2-1c2.65-2.77 5.04-4.68 8.73-5.91 3.68-1.23 7.07-2.84 10.5-4.59 0.62-0.31 1.25-0.62 1.89-0.93 2.64-1.33 4.76-2.47 6.86-4.57 1.45-0.46 1.45-0.46 2.94-0.94 3.04-0.79 3.04-0.79 4.62-2.68 1.44-1.38 1.44-1.38 4.13-1.57 1.14 0.1 1.14 0.1 2.31 0.19l1-4c2.02-0.42 4.04-0.85 6.05-1.27 2.32-0.65 2.32-0.65 3.95-3.73 1.99-0.38 3.99-0.71 6-1 2.88-1.83 2.88-1.83 4.81-3.56 2.19-1.44 2.19-1.44 5.19-1.88 3.6-0.67 4.51-1.99 7-4.56z" fill="#A5633C"/>
<path transform="translate(730 1144)" d="m0 0c3.27 1.31 4.97 3.17 7.19 5.88 1.12 3 1.12 3 1 6-2.52 3.14-4.17 4.72-8 6-2.52-1.08-4.67-2.55-7-4-0.32-5.24 0.22-8.52 3-13 2-1 2-1 3.81-0.88z" fill="#A3623B"/>
<path transform="translate(1013,1144)" d="m0 0c2.19-0.44 2.19-0.44 5 0 3.06 2.92 4.74 6.21 6.06 10.2-0.06 2.81-0.06 2.81-1.56 5.19-3.42 2.22-5.5 2.19-9.5 1.62-2.44-1.62-2.44-1.62-4-4-0.97-5.44 1.16-8.56 4-13z" fill="#A5633C"/>
<path transform="translate(1467,555)" d="m0 0c-4.56 2.06-8.86 3.6-13.8 4.75-5.39 1.29-10.8 2.64-16.1 4.06-1.21 0.32-2.41 0.64-3.65 0.97-2.42 0.64-4.84 1.28-7.25 1.93-1.12 0.3-2.24 0.59-3.4 0.9-1.5 0.4-1.5 0.4-3.04 0.81-2.75 0.57-5 0.92-7.79 0.58l-2-3h7l1-2c2.36-0.56 2.36-0.56 5.31-1 4.01-0.58 4.01-0.58 7.75-2.05 2.37-1.16 4.07-1.15 6.69-1.07 0.8 0.01 1.6 0.03 2.42 0.05 0.61 0.02 1.21 0.05 1.83 0.07v-2h6l1-2c1.18 0.04 2.35 0.08 3.56 0.12 5.11 0.03 9.62-2.73 14.4-1.12z" fill="#8F5634"/>
<path transform="translate(1093,567)" d="m0 0c0.99 0.33 1.98 0.66 3 1-1 3-1 3-2.78 4.12-1.14 0.51-1.14 0.51-2.3 1.04-1.25 0.57-1.25 0.57-2.52 1.16-0.87 0.39-1.75 0.78-2.65 1.18-7.55 3.41-7.55 3.41-14.8 7.5-3.65 2.04-7.32 4.02-11 6-0.64 0.36-1.28 0.72-1.94 1.09-1.56 0.85-1.56 0.85-4.06 1.91-0.99-0.33-1.98-0.66-3-1 3.1-4.72 5.6-5.7 11-7l2-2c2-0.67 4-1.33 6-2l2-2c0.78-0.31 1.57-0.62 2.38-0.94 2.64-0.94 2.64-0.94 4.68-2.62 2.05-1.52 3.46-1.96 5.94-2.44 3.26-1.09 5.57-2.57 8-5z" fill="#A2613B"/>
<path transform="translate(1090,72)" d="m0 0c1 3 1 3 0.14 5.16-0.44 0.82-0.87 1.63-1.33 2.46-1.65 3.14-3.23 6.25-4.62 9.5-1.95 4.45-4.09 8.79-6.25 13.1-0.34 0.69-0.68 1.37-1.03 2.08-1.84 3.65-3.75 7.2-5.91 10.7-0.99-0.33-1.98-0.66-3-1 0.62-1.42 1.25-2.83 1.88-4.25 0.34-0.79 0.69-1.58 1.05-2.39 0.68-1.5 1.39-2.99 2.13-4.45 1.26-2.56 2.08-5.2 2.94-7.91h2c0.37-1.26 0.74-2.52 1.12-3.81 2.28-6.84 5.44-14.3 10.9-19.2zm-12 23 1 2zm-2 1 1 2z" fill="#A5633C"/>
<path transform="translate(1345,585)" d="m0 0v2c-6.33 1.68-12.7 3.35-19 5-0.92 0.24-1.84 0.48-2.78 0.73-2.7 0.7-5.4 1.39-8.1 2.08-0.83 0.22-1.67 0.44-2.53 0.67-3.94 0.99-7.48 1.81-11.6 1.52 0.56-1.94 0.56-1.94 2-4 3.06-0.69 3.06-0.69 7-1 1.65-0.18 3.29-0.37 4.94-0.56 1.35-0.15 2.71-0.3 4.06-0.44v-2c1.24-0.12 2.47-0.25 3.75-0.38 3.21-0.39 5.39-1.1 8.25-2.62 4.97-1.68 8.8-2.3 14-1z" fill="#965A36"/>
<path transform="translate(1215,505)" d="m0 0h2l-1 2-1-2zm1 2c-1 3-1 3-4.11 4.8-1.35 0.66-2.71 1.31-4.08 1.95-1.46 0.71-2.92 1.41-4.38 2.12-0.74 0.36-1.48 0.71-2.24 1.07-3.29 1.59-6.55 3.23-9.81 4.87-2.13 1.07-4.26 2.13-6.38 3.19-1.59 0.87-1.59 0.87-3.21 1.76-2.79 1.24-2.79 1.24-5.79 0.24 4.79-5.18 4.79-5.18 9-6 0.62-0.47 1.24-0.95 1.88-1.44 2.57-1.89 5.08-2.63 8.12-3.56 2.07-0.95 2.07-0.95 3.88-2.5 2.16-1.53 3.55-2.02 6.12-2.5 3.97-0.77 7.13-4 11-4z" fill="#9A5C38"/>
<path transform="translate(1375,577)" d="m0 0v2c-0.65 0.19-1.3 0.39-1.98 0.59-5.54 1.64-5.54 1.64-11 3.47-12.1 3.77-12.1 3.77-17 1.94l-2-2c4.39-1.21 8.79-2.39 13.2-3.56 1.24-0.34 2.49-0.69 3.77-1.04 1.2-0.32 2.41-0.64 3.65-0.97 1.65-0.44 1.65-0.44 3.34-0.9 3.08-0.54 5.07-0.37 8.05 0.47z" fill="#8E5534"/>
<path transform="translate(1e3 672)" d="m0 0v3c-1.02 0.19-2.05 0.39-3.11 0.59-1.36 0.26-2.72 0.52-4.08 0.79-0.67 0.12-1.34 0.25-2.04 0.38-2.92 0.57-5.66 1.19-8.43 2.3-2.61 1.05-4.86 1.34-7.65 1.56-0.89 0.08-1.77 0.15-2.68 0.23-0.66 0.05-1.33 0.1-2.01 0.15l-1-3c5.24-1.75 9.47-2.19 15-2l-2-3c1.83-0.22 1.83-0.22 3.69-0.44 2.39-0.29 4.65-0.64 7-1.18 2.68-0.44 4.69-0.05 7.31 0.62z" fill="#9D5E39"/>
<path transform="translate(1217,617)" d="m0 0v3c-0.55 0.1-1.1 0.2-1.66 0.3-6.75 1.27-13.3 3.02-19.9 4.9-3.02 0.71-5.36 1.23-8.42 0.8l-2-3 24-6c0.73-0.2 1.46-0.41 2.21-0.62 2.2-0.47 3.67-0.06 5.79 0.62z" fill="#945936"/>
<path transform="translate(1024,664)" d="m0 0c2.47 0.5 2.47 0.5 5 1v2c-1.93 0.41-1.93 0.41-3.9 0.84-4.94 1.09-9.8 2.41-14.7 3.78-0.82 0.23-1.64 0.46-2.48 0.7-1.99 0.56-3.97 1.12-5.96 1.68l-3-3c5.4-2.91 9.9-4 16-4 1.34-0.65 2.68-1.32 4-2 2.75-0.12 2.75-0.12 5 0v-1z" fill="#915735"/>
<path transform="translate(1066,115)" d="m0 0h4c-0.68 3.29-1.89 5.97-3.44 8.94-1.71 3.3-3.22 6.59-4.56 10.1h-4c2-6.72 4.73-12.8 8-19z" fill="#A5633C"/>
<path transform="translate(1049 591)" d="m0 0c0.78 0.04 1.57 0.08 2.38 0.12-0.95 2.42-1.5 3.73-3.83 4.99-0.76 0.25-1.52 0.5-2.3 0.77-5.77 2.08-11.1 4.83-16.5 7.69-1.75 0.91-3.55 1.74-5.35 2.55-0.66-0.33-1.33-0.65-2-1 0.94-0.61 1.89-1.23 2.87-1.87 3.07-1.94 3.07-1.94 5.13-4.13 1.32-0.35 2.66-0.68 4-1 2.55-1.12 4-2 6-4 1.66-0.66 3.33-1.33 5-2 2-2 2-2 4.62-2.12z" fill="#A5633C"/>
<path transform="translate(1123,552)" d="m0 0h4c-0.98 2.58-1.63 3.78-4.04 5.2-0.85 0.35-1.71 0.69-2.58 1.05-5.85 2.47-11.5 5.29-17.1 8.25-1.74 0.89-3.52 1.7-5.31 2.5l-2-1c2.64-2.77 5.04-4.68 8.73-5.91s7.11-2.85 10.6-4.59c0.95-0.46 0.95-0.46 1.92-0.93 3.51-1.6 3.51-1.6 5.77-4.57z" fill="#A5633C"/>
<path transform="translate(1076,95)" d="m0 0 4 1c-1.39 4.63-3.3 8.65-5.62 12.9-0.64 1.15-1.27 2.3-1.92 3.49-0.48 0.87-0.96 1.73-1.46 2.63-0.99-0.33-1.98-0.66-3-1 0.62-1.42 1.25-2.83 1.88-4.25 0.34-0.79 0.69-1.58 1.05-2.39 0.68-1.5 1.39-2.99 2.13-4.45 1.26-2.56 2.08-5.2 2.94-7.91zm0 1 1 2z" fill="#A0603A"/>
<path transform="translate(969,630)" d="m0 0c0.99 0.33 1.98 0.66 3 1-0.96 2.41-1.56 3.73-3.81 5.09-0.72 0.28-1.45 0.56-2.19 0.85-4.42 1.78-8.56 3.91-12.7 6.2-2.58 0.98-3.71 0.81-6.26-0.14 4.66-2.89 9.51-5.23 14.4-7.6 2.66-1.15 2.66-1.15 3.55-3.4h3l1-2z" fill="#A5633C"/>
<path transform="translate(1103,646)" d="m0 0c-2.46 3.69-3.66 3.74-7.88 4.75-1.04 0.26-2.09 0.53-3.17 0.8-2.79 0.42-4.34 0.38-6.95-0.55l2-2 1-2c1.08 0.06 1.08 0.06 2.19 0.12 2.83 0.04 2.83 0.04 5.31-1.18 2.95-1.11 4.52-0.79 7.5 0.06z" fill="#9D5E39"/>
<path transform="translate(1093,567)" d="m0 0c0.99 0.33 1.98 0.66 3 1-1.14 3.41-1.46 3.55-4.49 5.08-0.71 0.35-1.41 0.71-2.14 1.08-0.74 0.36-1.48 0.72-2.25 1.09-0.73 0.38-1.46 0.75-2.22 1.14-0.71 0.35-1.41 0.7-2.14 1.06-0.65 0.32-1.3 0.65-1.97 0.98-1.79 0.57-1.79 0.57-4.79-0.43l1-3c2.81-1.06 2.81-1.06 6-2 1.34-0.65 2.68-1.32 4-2 0.99-0.33 1.98-0.66 3-1l3-3z" fill="#9F5F3A"/>
<path transform="translate(819,523)" d="m0 0h3c0.38 5.93-0.89 10.5-3 16h-2c-1.13-4.1-0.78-6.76 0.44-10.8 0.28-0.98 0.57-1.95 0.87-2.96 0.23-0.74 0.45-1.47 0.69-2.23z" fill="#A5633C"/>
<path transform="translate(864,1154)" d="m0 0c2 2 2 2 2 5-5.94-0.33-11.9-0.66-18-1 0.99-0.33 1.98-0.66 3-1v-2c9.59-1.3 9.59-1.3 13-1z" fill="#A5633C"/>
<path transform="translate(1467,555)" d="m0 0c-4.99 2.27-9.87 3.93-15.2 5.25-0.7 0.19-1.39 0.37-2.11 0.56-6.26 1.58-6.26 1.58-9.7 0.19 2.67-2.67 5.45-3.11 9-4 0.99-0.33 1.98-0.66 3-1 0.74 0.02 1.48 0.04 2.25 0.06 2.94 0.05 2.94 0.05 6.37-1.12 3.38-0.94 3.38-0.94 6.38 0.06z" fill="#9D5E39"/>
<path transform="translate(664,1154)" d="m0 0 1 5-17-1c0.99-0.33 1.98-0.66 3-1v-2c4.38-0.59 8.58-1.14 13-1z" fill="#A5633C"/>
<path transform="translate(991,621)" d="m0 0v3c-2.6 1.37-5.2 2.72-7.81 4.06-1.11 0.59-1.11 0.59-2.24 1.18-0.71 0.37-1.42 0.73-2.16 1.11-0.65 0.34-1.31 0.68-1.98 1.03-1.81 0.62-1.81 0.62-4.81-0.38l1-3h3l2-2c0.99-0.33 1.98-0.66 3-1 0.6-0.31 1.2-0.62 1.81-0.94 2.66-1.29 5.38-2.17 8.19-3.06z" fill="#9C5D38"/>
<path transform="translate(1229,612)" d="m0 0c1.68 0.29 3.34 0.62 5 1v2c-1.89 0.51-3.79 1.01-5.69 1.5-1.05 0.28-2.11 0.56-3.2 0.84-2.82 0.6-5.24 0.79-8.11 0.66 2.12-2.5 2.12-2.5 5-5 3.25-0.25 3.25-0.25 6 0l1-1z" fill="#9C5D39"/>
<path transform="translate(1172,527)" d="m0 0h4c-1.36 3.32-2.48 4.6-5.75 6.06-0.71 0.33-1.42 0.65-2.15 0.99-1.04 0.47-1.04 0.47-2.1 0.95-1.09 0.6-2.19 1.2-3.31 1.81-2.69 1.19-2.69 1.19-5.69 0.19l1-3c2.84-1.42 5.61-2.15 8.69-2.94 3.56-0.76 3.56-0.76 5.31-4.06z" fill="#A2613B"/>
<path transform="translate(1040,660)" d="m0 0c2.31 0.33 4.62 0.66 7 1-2.93 2.47-5.24 3.54-9 4.25-0.85 0.17-1.69 0.34-2.56 0.52-2.45 0.23-4.11-0.02-6.44-0.77 2-3 2-3 4.16-3.51 0.82-0.06 1.63-0.12 2.46-0.18 0.82-0.06 1.64-0.13 2.48-0.2 0.63-0.03 1.25-0.07 1.9-0.11v-1z" fill="#9B5D38"/>
<path transform="translate(1213,616)" d="m0 0c2.06 0.44 2.06 0.44 4 1v3c-1.56 0.34-3.12 0.67-4.69 1-1.3 0.28-1.3 0.28-2.63 0.56-2.68 0.44-4.98 0.73-7.68 0.44l-2-3c0.85-0.13 1.71-0.27 2.59-0.4 1.1-0.18 2.21-0.36 3.35-0.54 1.1-0.17 2.2-0.35 3.34-0.52 2.62-0.26 2.62-0.26 3.72-1.54z" fill="#8A5332"/>
<path transform="translate(1238,495)" d="m0 0v3c-2.54 1.3-5.08 2.59-7.62 3.88-0.72 0.36-1.43 0.72-2.17 1.1-4 2.02-7.9 3.73-12.2 5.02 4.04-4.62 8.24-6.85 13.8-9.31 0.79-0.36 1.58-0.72 2.39-1.09 1.93-0.88 3.86-1.74 5.8-2.6z" fill="#A5633C"/>
<path transform="translate(985,676)" d="m0 0v2c-4.8 2.4-9.73 2.61-15 3l-1-3c5.49-1.87 10.2-2.24 16-2z" fill="#975B37"/>
<path transform="translate(1055,656)" d="m0 0 5 1-1 3c-3.96 0.66-7.92 1.32-12 2 0-3 0-3 2-5 3.12-0.12 3.12-0.12 6 0v-1z" fill="#975B37"/>
<path transform="translate(1251,609)" d="m0 0-1 2c-2.84 0.89-2.84 0.89-6.38 1.69-1.74 0.41-1.74 0.41-3.52 0.82-3.1 0.49-3.1 0.49-6.1-0.51l-1-2c1.24-0.12 2.47-0.25 3.75-0.38 2.52-0.3 4.12-0.55 6.37-1.74 2.79-1.31 4.96-0.54 7.88 0.12z" fill="#895232"/>
<path transform="translate(1312 592)" d="m0 0c0.89 0.01 1.78 0.02 2.7 0.03 0.68 0.01 1.35 0.02 2.05 0.03v2c-1.73 0.51-3.46 1.01-5.19 1.5-1.44 0.42-1.44 0.42-2.92 0.85-2.74 0.62-5.09 0.78-7.89 0.65 0.75-1.94 0.75-1.94 2-4 3.08-1.1 6-1.1 9.25-1.06z" fill="#A0603A"/>
<path transform="translate(1375,577)" d="m0 0v2c-4.95 1.49-4.95 1.49-10 3-0.99-1.32-1.98-2.64-3-4 8.43-2.43 8.43-2.43 13-1z" fill="#955936"/>
<path transform="translate(978,291)" d="m0 0h4c-0.57 3.96-1.81 6.67-4 10-0.99-0.33-1.98-0.66-3-1 0.31-0.56 0.62-1.11 0.94-1.69 1.12-2.44 1.62-4.67 2.06-7.31z" fill="#A5633C"/>
<path transform="translate(1076,95)" d="m0 0 4 1c-1.06 3.4-2.01 6.01-4 9-0.99-0.33-1.98-0.66-3-1l3-9zm0 1 1 2z" fill="#9C5D38"/>
<path transform="translate(976,301)" d="m0 0c1 3 1 3-0.44 6.19-0.77 1.39-0.77 1.39-1.56 2.81h-4c0.42-1.32 0.86-2.63 1.31-3.94 0.25-0.73 0.49-1.46 0.74-2.21 0.95-1.85 0.95-1.85 3.95-2.85z" fill="#A0603A"/>
<path transform="translate(1297,466)" d="m0 0c-1 3-1 3-4.25 4.62-2.97 1.09-5.64 1.91-8.75 2.38l1-4c0.72-0.12 1.44-0.25 2.19-0.38 3.34-0.74 6.4-2.62 9.81-2.62z" fill="#9B5D38"/>
<path transform="translate(309,855)" d="m0 0h1v12h-1v-12z" fill="#180F0B"/>
<path transform="translate(272,849)" d="m0 0h12v1h-12v-1z" fill="#180F0B"/>
<path transform="translate(52,915)" d="m0 0h7v1h-7v-1z" fill="#180F0B"/>
<path transform="translate(653,1136)" d="m0 0 1 2c-0.99 1.48-0.99 1.48-2 3l1-5z" fill="#180F0B"/>
<path transform="translate(531,1220)" d="m0 0h1v5h-1v-5z" fill="#A5633C"/>
<path transform="translate(426,990)" d="m0 0h5v1h-5v-1z" fill="#A5633C"/>
<path transform="translate(1027,662)" d="m0 0c0.99 0.33 1.98 0.66 3 1-0.99 0.33-1.98 0.66-3 1v-2z" fill="#885232"/>
<path transform="translate(1082,649)" d="m0 0h5v1h-5v-1z" fill="#000002"/>
<path transform="translate(1437,559)" d="m0 0h5v1h-5v-1z" fill="#130C09"/>
<path transform="translate(1021,1222)" d="m0 0 1 4z" fill="#A5633C"/>
<path transform="translate(980,675)" d="m0 0 4 1z" fill="#000003"/>
<path transform="translate(1252,606)" d="m0 0 4 1z" fill="#0C0806"/>
<path transform="translate(1311,591)" d="m0 0 4 1z" fill="#000102"/>
<path transform="translate(1453,555)" d="m0 0 4 1z" fill="#3B2417"/>
<path transform="translate(707,384)" d="m0 0 1 4z" fill="#0C0708"/>
<path transform="translate(856,1207)" d="m0 0 1 2-2-1 1-1z" fill="#100A08"/>
<path transform="translate(536,988)" d="m0 0c3 1 3 1 3 1z" fill="#000003"/>
<path transform="translate(427,988)" d="m0 0c3 1 3 1 3 1z" fill="#080506"/>
<path transform="translate(232,849)" d="m0 0c3 1 3 1 3 1z" fill="#180F0B"/>
<path transform="translate(1044,659)" d="m0 0c3 1 3 1 3 1z" fill="#000003"/>
<path transform="translate(1063,654)" d="m0 0c3 1 3 1 3 1z" fill="#000102"/>
<path transform="translate(1078,650)" d="m0 0c3 1 3 1 3 1z" fill="#000102"/>
<path transform="translate(1216,615)" d="m0 0c3 1 3 1 3 1z" fill="#000103"/>
<path transform="translate(1249,607)" d="m0 0c3 1 3 1 3 1z" fill="#000102"/>
<path transform="translate(1280,599)" d="m0 0c3 1 3 1 3 1z" fill="#000102"/>
<path transform="translate(1299,594)" d="m0 0c3 1 3 1 3 1z" fill="#472B1B"/>
<path transform="translate(1315,590)" d="m0 0c3 1 3 1 3 1z" fill="#100A08"/>
<path transform="translate(1414,565)" d="m0 0c3 1 3 1 3 1z" fill="#472B1B"/>
<path transform="translate(1445,557)" d="m0 0c3 1 3 1 3 1z" fill="#100A09"/>
<path transform="translate(1461,553)" d="m0 0c3 1 3 1 3 1z" fill="#080506"/>
<path transform="translate(736,1207)" d="m0 0 2 1z" fill="#180F0B"/>
<path transform="translate(279,988)" d="m0 0 2 1z" fill="#000005"/>
<path transform="translate(1188,952)" d="m0 0 2 1z" fill="#180F0B"/>
<path transform="translate(588,720)" d="m0 0 2 1z" fill="#A5633C"/>
<path transform="translate(1022,668)" d="m0 0 2 1z" fill="#000103"/>
<path transform="translate(1059,655)" d="m0 0 2 1z" fill="#000102"/>
<path transform="translate(1102,648)" d="m0 0 2 1z" fill="#0C0806"/>
<path transform="translate(959,635)" d="m0 0 2 1z" fill="#523120"/>
<path transform="translate(979,625)" d="m0 0 2 1z" fill="#523120"/>
<path transform="translate(989,620)" d="m0 0 2 1z" fill="#523120"/>
<path transform="translate(995,617)" d="m0 0 2 1z" fill="#523120"/>
<path transform="translate(1257,605)" d="m0 0 2 1z" fill="#0C0806"/>
<path transform="translate(1276,600)" d="m0 0 2 1z" fill="#000102"/>
<path transform="translate(1051,588)" d="m0 0 2 1z" fill="#52321F"/>
<path transform="translate(1134,546)" d="m0 0 2 1z" fill="#000103"/>
<path transform="translate(1236,494)" d="m0 0 2 1z" fill="#52321F"/>
<path transform="translate(1246,489)" d="m0 0 2 1z" fill="#523120"/>
<path transform="translate(1256,484)" d="m0 0 2 1z" fill="#52321F"/>
<path transform="translate(1262,481)" d="m0 0 2 1z" fill="#0C0708"/>
<path transform="translate(1281,471)" d="m0 0 2 1z" fill="#52321F"/>
<path transform="translate(1291,466)" d="m0 0 2 1z" fill="#000003"/>
<path transform="translate(1295,464)" d="m0 0 2 1z" fill="#180F0B"/>
</svg>
