<?xml version="1.0" encoding="UTF-8"?>
<svg version="1.1" viewBox="0 0 1600 1280" width="1280" height="1280" xmlns="http://www.w3.org/2000/svg">
<path transform="translate(487 816)" d="m0 0c1.28-0 1.28-0 2.58-0.01 1.79-0.01 3.59-0.01 5.38-0.01 2.75 0 5.49-0.02 8.24-0.04h5.24c1.23-0.01 1.23-0.01 2.48-0.02 7.17 0.02 7.17 0.02 10.3 2.25 2.18 2.57 3.93 5.41 5.75 8.25 2.66 4.04 5.63 7.59 8.93 11.1 1.32 1.63 1.32 1.63 1.32 3.63 1.48 0.49 1.48 0.49 3 1 0.91 1.32 1.8 2.66 2.66 4.02 2.35 3.47 5.11 6.62 7.78 9.85 2.74 3.33 5.4 6.73 8.06 10.1 7.86 10.3 7.86 10.3 16.5 20 0.89 1.15 1.76 2.32 2.62 3.5 6.08 8.34 6.08 8.34 12.9 16 1.69 1.7 3.08 3.53 4.51 5.46 0.51 0.68 1.01 1.36 1.54 2.06 1.17 1.62 2.29 3.27 3.4 4.94 0.99 0.33 1.98 0.66 3 1-0.11-8.64-0.22-17.3-0.34-25.9-0.06-4.01-0.11-8.03-0.16-12-0.25-21.8-0.25-21.8-0.97-43.6-0.04-0.84-0.08-1.68-0.12-2.55-0.16-3.17-0.4-5.87-1.41-8.9-1.21-0.11-2.41-0.22-3.65-0.33-1.58-0.16-3.15-0.32-4.73-0.48-0.79-0.07-1.58-0.15-2.4-0.22-2.09-0.22-4.16-0.59-6.22-0.97-2-3-2-3-1.69-5.13 0.69-1.87 0.69-1.87 1.69-2.87 1.58-0.11 3.16-0.14 4.75-0.15 1.01 0 2.02-0.01 3.06-0.02h3.34c1.68-0 1.68-0 3.4-0.01 2.38-0.01 4.77-0.01 7.15-0.01 3.65 0 7.3-0.02 11-0.04h6.92c1.1-0.01 2.2-0.02 3.33-0.02 1.53 0 1.53 0 3.08 0.01 0.9-0.01 1.8-0.01 2.72-0.01 2.29 0.25 2.29 0.25 5.29 2.25 0.19 2.62 0.19 2.62 0 5-1.57 0.29-1.57 0.29-3.18 0.58-1.38 0.27-2.75 0.53-4.13 0.79-0.69 0.13-1.38 0.26-2.1 0.39-3.43 0.66-5.64 1.27-8.59 3.24-1.13 3.38-1.15 5.99-1.19 9.55-0.01 0.66-0.02 1.32-0.03 2-0.01 1.43-0.03 2.87-0.04 4.3-0.02 2.26-0.05 4.53-0.08 6.79-0.07 5.63-0.13 11.2-0.19 16.9-0.05 4.76-0.1 9.51-0.16 14.3-0.03 2.23-0.05 4.47-0.07 6.7-0.02 1.37-0.03 2.73-0.05 4.1-0.01 1.19-0.03 2.39-0.04 3.62-0.15 2.8-0.15 2.8-1.15 4.8-0.09 2.09-0.12 4.19-0.11 6.28 0 0.97 0 0.97-0.01 1.96 0.01 2.13 0.01 4.26 0.02 6.39 0 1.48 0 2.95 0.01 4.43 0 3.89 0.01 7.78 0.02 11.7 0.01 3.97 0.01 7.94 0.02 11.9 0.01 7.79 0.03 15.6 0.05 23.4-4.78 0.15-4.78 0.15-6.8-1.24-0.5-0.54-1-1.08-1.51-1.64-0.77-0.8-0.77-0.8-1.55-1.61-1.14-1.51-1.14-1.51-1.14-3.51h-2c-1.95-2.12-1.95-2.12-4.13-4.88-0.72-0.9-1.45-1.81-2.19-2.74-1.68-2.38-1.68-2.38-1.68-4.38h-2c-1.35-1.51-2.64-3.09-3.88-4.69-0.67-0.87-1.35-1.74-2.05-2.64-0.68-0.88-1.37-1.76-2.07-2.67-0.75-0.9-1.49-1.79-2.26-2.71-1.74-2.29-1.74-2.29-1.74-4.29h-2c-0.88-1.34-1.76-2.69-2.62-4.05-1.68-2.38-3.59-4.44-5.57-6.58-4.19-4.57-7.86-9.39-11.5-14.4-2.97-3.87-6.25-7.39-9.63-10.9-1.65-2.06-1.65-2.06-1.65-5.06-1.49-0.5-1.49-0.5-3-1-0.22-0.96-0.22-0.96-0.44-1.94-0.28-1.02-0.28-1.02-0.56-2.06-0.6-0.28-1.19-0.56-1.8-0.85-2.77-1.45-4.05-3.17-5.95-5.65-0.69-0.9-1.39-1.79-2.1-2.71s-1.42-1.84-2.15-2.79c-7-10.2-7-10.2-16-18-0.02 9.89-0.04 19.8-0.05 29.7-0.01 4.59-0.02 9.19-0.03 13.8-0.01 4.44-0.01 8.89-0.02 13.3 0 1.68 0 3.37-0.01 5.05-0.73 17.8-0.73 17.8 2.11 35.1 5.33 2.97 11.3 4.48 17.3 5.6 1.72 0.4 1.72 0.4 2.72 1.4 0.12 2.5 0.12 2.5 0 5-1.67 1.66-3.66 1.14-5.95 1.16-1.58 0.01-1.58 0.01-3.19 0.03-1.73 0-1.73 0-3.48 0.01-1.17 0.01-2.34 0.01-3.55 0.02-2.48 0.01-4.96 0.01-7.44 0.02-3.81 0.01-7.62 0.04-11.4 0.07-2.41 0.01-4.81 0.01-7.22 0.02-1.14 0.01-2.29 0.02-3.47 0.03-1.06 0-2.12 0-3.2-0.01-0.94 0.01-1.87 0.01-2.84 0.02-0.74-0.13-1.48-0.25-2.24-0.37-2-3-2-3-1.69-5.13 0.69-1.87 0.69-1.87 1.69-2.87 2.68-0.29 5.35-0.45 8.04-0.62 3.19-0.41 5.93-1.33 8.96-2.38 0.07-15.2 0.12-30.3 0.15-45.5 0.02-7.04 0.04-14.1 0.08-21.1 0.03-6.79 0.05-13.6 0.05-20.4 0.01-2.6 0.02-5.19 0.04-7.79 0.02-3.63 0.02-7.25 0.02-10.9 0.01-1.08 0.02-2.16 0.03-3.26 0.06-7.06 0.06-7.06-3.37-13-6.01-3.85-11.9-4.91-18.9-6-3.07-1-3.07-1-5.05-3.47-0.51-1.26-0.51-1.26-1.02-2.53 1-2 1-2 2.81-2.62 3.63-0.64 7.29-0.55 11-0.55zm116 27.2v7h1v-7h-1zm0 76 1 2z" fill="#F1F5F6"/>
<path transform="translate(1429 816)" d="m0 0c0.93-0 1.86-0.01 2.81-0.01h3.07c1.07 0 2.14-0.01 3.24-0.01 3.54-0.01 7.08-0.01 10.6-0.01 2.45-0.01 4.91-0.01 7.37-0.01 5.14-0.01 10.3-0.01 15.4-0.01 6.6 0 13.2-0.02 19.8-0.03 5.07-0.01 10.1-0.02 15.2-0.01 2.44-0.01 4.88-0.01 7.32-0.02 3.4-0.01 6.8-0.01 10.2 0 1.52-0.01 1.52-0.01 3.07-0.02 1.39 0.01 1.39 0.01 2.8 0.02 1.2 0 1.2 0 2.43-0.01 1.96 0.25 1.96 0.25 3.96 2.25 0.32 3.08 0.32 3.08 0.41 6.98 0.02 0.69 0.04 1.37 0.06 2.08 0.06 2.19 0.11 4.38 0.15 6.57 0.04 1.48 0.08 2.97 0.12 4.45 0.09 3.64 0.18 7.28 0.26 10.9l-5 1c-4.21-5.01-6.83-9.46-8.56-15.8-2.25-3.43-5.62-4.24-9.44-5.2-3.84-0.38-7.65-0.35-11.5-0.29-0.96 0-1.91 0.01-2.9 0.01-3.53 0.02-7.07 0.06-10.6 0.1-7.92 0.06-15.8 0.12-24 0.18l1 49c6.31 0.07 12.6 0.13 19.1 0.19 2.97 0.04 2.97 0.04 6.01 0.08 1.58 0.01 3.16 0.02 4.75 0.03 0.81 0.01 1.62 0.03 2.46 0.04 4.95 0.01 8.4-0.52 12.7-3.34 1.31-2.43 2.17-4.4 3-7 0.52-1.6 1.04-3.2 1.56-4.81 0.23-0.75 0.46-1.5 0.69-2.27 0.75-1.92 0.75-1.92 2.75-3.92 1.48 0.5 1.48 0.5 3 1 2.59 5.31 2.27 10.8 2.23 16.6v3.04c-0.01 2.12-0.02 4.24-0.03 6.35-0.02 3.25-0.02 6.5-0.02 9.74 0 2.06-0.01 4.12-0.02 6.18v2.94c-0.01 0.91-0.01 1.81-0.02 2.74 0 0.79-0.01 1.58-0.01 2.4-0.13 2.06-0.13 2.06-1.13 5.06-1.49 0.5-1.49 0.5-3 1-4.06-3.18-5.33-5.51-6.5-10.6-0.9-3.78-1.26-5.18-4-8.06-4.73-2.6-9.07-2.59-14.3-2.69-1.14-0.03-1.14-0.03-2.31-0.06-2.85-0.07-5.7-0.13-8.55-0.19-6.37-0.14-12.8-0.29-19.3-0.44l1 58c11.8 0.16 11.8 0.16 23.9 0.32 2.47 0.04 4.94 0.09 7.48 0.13 1.98 0.02 3.97 0.03 5.95 0.04 1.51 0.04 1.51 0.04 3.05 0.08 8.03 0 14.7-1.9 20.7-7.48 4.93-5.33 9.15-11.6 12.4-18 2.05-2.83 4.17-3.25 7.5-4.07l2 2c-0.85 7.78-3.56 15.2-5.88 22.7-0.35 1.17-0.7 2.33-1.06 3.53-0.53 1.66-0.53 1.66-1.06 3.36-0.31 1.01-0.62 2.03-0.94 3.08-0.35 0.77-0.7 1.55-1.06 2.34-0.99 0.33-1.98 0.66-3 1l1 3c-5.03 2.7-10.2 2.29-15.7 2.28-1.08 0-2.16 0.01-3.27 0.01-3.57 0.02-7.14 0.02-10.7 0.01-2.48 0.01-4.96 0.01-7.43 0.02h-15.6c-5.33-0.01-10.7 0-16 0.02-6.44 0.02-12.9 0.03-19.3 0.03-2.45 0-4.91 0-7.37 0.01-3.42 0.01-6.85 0.01-10.3 0-1.02 0-2.04 0.01-3.1 0.02-0.93-0.01-1.86-0.01-2.81-0.02h-2.46c-0.65-0.13-1.3-0.25-1.96-0.38-2-3-2-3-1.69-5.12 0.69-1.88 0.69-1.88 1.69-2.88 2.96-0.54 5.94-0.96 8.92-1.4 2.98-0.58 5.41-1.14 8.08-2.6 1.04-2.94 1.12-5.73 1.13-8.84 0-0.97 0.01-1.95 0.01-2.95v-3.21c0.01-1.13 0.01-2.25 0.01-3.4 0.01-3.72 0.01-7.44 0.01-11.2 0.01-2.58 0.01-5.16 0.01-7.74 0.01-5.41 0.01-10.8 0.01-16.2 0-6.25 0.01-12.5 0.03-18.7 0.01-6.02 0.02-12 0.02-18.1 0-2.56 0-5.11 0.01-7.67 0.01-3.58 0.01-7.15 0-10.7 0.01-1.59 0.01-1.59 0.02-3.2-0.01-0.98-0.01-1.96-0.02-2.97 0-0.84 0-1.69 0.01-2.56-0.22-3.18-0.22-3.18-2.25-8.54l-16-2-2-5c1-2 1-2 2.77-2.61 2.33-0.4 4.5-0.52 6.87-0.52z" fill="#F1F5F6"/>
<path transform="translate(886 816)" d="m0 0c1.42-0.01 1.42-0.01 2.88-0.01h3.18c1.1 0 2.2-0.01 3.33-0.01 3.65-0.01 7.31-0.01 11-0.01 2.53-0.01 5.05-0.01 7.58-0.01 5.31-0.01 10.6-0.01 15.9-0.01 6.14 0 12.3-0.01 18.4-0.03 5.9-0.01 11.8-0.02 17.7-0.01 2.51-0.01 5.02-0.01 7.54-0.02 3.5-0.01 7.01-0.01 10.5 0 1.05 0 2.09-0.01 3.17-0.02 1.43 0.01 1.43 0.01 2.89 0.02 0.83 0 1.66 0 2.52-0.01 2 0.25 2 0.25 4 2.25 0.18 2.51 0.23 4.91 0.2 7.42 0 0.73-0.01 1.46-0.01 2.21-0.01 2.33-0.04 4.67-0.06 7l-0.03 4.74c-0.02 3.88-0.06 7.76-0.1 11.6-4.28-1.55-5.87-2.66-8.12-6.68-0.51-0.9-1.02-1.79-1.54-2.71-1.11-2.16-2.01-4.26-2.84-6.54-1.94-3.98-3.4-4.47-7.5-6.07-2.97-0.48-5.92-0.6-8.93-0.68-0.83-0.04-1.66-0.07-2.51-0.1-12.6-1.3-12.6-1.3-24.6 0.78h-15l1 49c6.31 0.07 12.6 0.13 19.1 0.19 2.97 0.04 2.97 0.04 6 0.08 1.59 0.01 3.17 0.02 4.76 0.03 0.81 0.01 1.62 0.03 2.45 0.04 4.96 0.01 8.41-0.52 12.7-3.34 2.04-3.71 3.06-7.14 4-11.2 1.33-4.96 1.33-4.96 4-6.75h2c3.61 5.6 3.41 10.7 3.33 17.2v3.25c-0.01 2.27-0.02 4.53-0.05 6.79-0.03 3.48-0.04 6.95-0.04 10.4l-0.03 6.6c-0.01 1.04-0.01 2.09-0.02 3.16-0.01 0.96-0.02 1.92-0.03 2.91 0 0.85-0.01 1.7-0.02 2.57-0.14 2.06-0.14 2.06-1.14 4.06-2.31 0.32-2.31 0.32-5 0-2.78-3.1-3.42-6.61-4.37-10.6-0.96-3.74-1.41-5.21-4.13-8.06-4.72-2.6-9.06-2.59-14.3-2.69-1.29-0.03-1.29-0.03-2.61-0.07l-8.25-0.18c-1.87-0.04-3.73-0.09-5.6-0.13-4.57-0.11-9.14-0.21-13.7-0.31-0.14 19.4 0.23 38.7 1 58 6.8 0.13 13.6 0.22 20.4 0.28 2.31 0.02 4.62 0.06 6.92 0.1 3.34 0.06 6.67 0.09 10 0.11 1.53 0.04 1.53 0.04 3.09 0.08 8.41 0 14.8-2.34 21.3-7.85 0.61-0.73 1.22-1.46 1.84-2.22 0.63-0.73 1.26-1.46 1.91-2.22 1.64-2.35 2.59-4.6 3.59-7.28 1.32-1.43 1.32-1.43 3-3 0.84-1.03 1.68-2.08 2.5-3.12 2.5-2.88 2.5-2.88 5.5-3.88 1.55 1.24 1.55 1.24 3 3-0.07 2.02-0.07 2.02-0.68 4.25-0.22 0.8-0.43 1.6-0.64 2.42-0.23 0.77-0.45 1.54-0.68 2.33-0.46 1.77-0.46 1.77-0.93 3.57-1 3.21-2.14 6.32-3.35 9.46-0.66 1.82-1.19 3.68-1.72 5.54-2.64 9.07-2.64 9.07-6 12.4-2.02 0.25-2.02 0.25-4.57 0.24-0.96 0.01-1.92 0.01-2.91 0.01-1.06 0-2.12-0.01-3.21-0.02h-3.37c-3.69 0-7.38-0.02-11.1-0.03-2.55 0-5.11-0.01-7.66-0.01-6.04-0.01-12.1-0.02-18.1-0.04-6.88-0.02-13.8-0.04-20.6-0.05-14.2-0.02-28.3-0.05-42.4-0.1l-2-6c2.77-2.76 5.79-2.9 9.5-3.56 4.89-0.77 4.89-0.77 9.5-2.44 1.28-5.97 1.15-12 1.15-18.1 0-1.09 0.01-2.19 0.01-3.31 0.01-3.6 0.01-7.21 0.01-10.8 0-2.51 0.01-5.02 0.01-7.53 0.01-5.25 0.01-10.5 0.01-15.8 0-6.07 0.01-12.1 0.02-18.2 0.02-5.85 0.02-11.7 0.02-17.5 0-2.48 0.01-4.97 0.02-7.45 0.01-3.47 0-6.93 0-10.4 0-1.03 0.01-2.05 0.01-3.11-0.02-5.01-0.26-9.14-2.26-13.8-1.13-0.11-2.26-0.22-3.43-0.33l-4.44-0.48c-0.75-0.07-1.49-0.14-2.26-0.21-1.97-0.22-3.92-0.59-5.87-0.98-2-3-2-3-1.68-5.12 1.26-3.45 2.61-3 6.08-3.01z" fill="#F1F5F6"/>
<path transform="translate(26.6 816)" d="m0 0c1.53-0.01 1.53-0.01 3.1-0.01 3.35-0.01 6.7-0.01 10-0.01 2.34-0.01 4.67-0.01 7.01-0.01 4.88-0.01 9.76-0.01 14.6-0.01 6.27 0 12.5-0.01 18.8-0.03 4.82-0.01 9.64-0.01 14.4-0.01 2.32 0 4.63-0.01 6.94-0.02 3.22-0.01 6.44 0 9.66 0 1.44-0.01 1.44-0.01 2.91-0.01 0.87 0 1.75 0 2.65 0.01h2.3c1.86 0.25 1.86 0.25 3.86 2.25 0.18 2.43 0.23 4.75 0.2 7.19-0.01 0.71-0.01 1.42-0.01 2.14-0.01 2.27-0.04 4.53-0.06 6.79-0.01 1.53-0.02 3.07-0.03 4.6-0.02 3.76-0.06 7.52-0.1 11.3-0.99 0.49-0.99 0.49-2 1-1.48-0.99-1.48-0.99-3-2v-2c-1.48-0.5-1.48-0.5-3-1-1.1-2.11-1.1-2.11-2.06-4.75-0.32-0.87-0.64-1.73-0.97-2.61-0.97-2.64-0.97-2.64-1.53-5.35-1.18-2.39-1.18-2.39-3.15-2.95-6.27-1.38-12.3-1.61-18.7-1.54-1.05 0-2.1 0.01-3.19 0.01-3.33 0.01-6.66 0.03-9.99 0.06-2.27 0.01-4.54 0.02-6.82 0.03-5.54 0.02-11.1 0.05-16.6 0.1-0.02 6.81-0.04 13.6-0.05 20.4-0.01 2.32-0.02 4.64-0.02 6.96-0.02 3.33-0.02 6.66-0.03 9.99 0 1.04-0.01 2.09-0.01 3.16v2.92c0 0.85-0.01 1.7-0.01 2.57-0.09 1.95-0.09 1.95 1.12 2.95 2.82 0.12 5.6 0.18 8.42 0.2 0.85 0 1.7 0.01 2.58 0.02 1.8 0.01 3.6 0.01 5.41 0.02 2.75 0.01 5.5 0.04 8.25 0.07 1.75 0 3.51 0.01 5.26 0.01 1.23 0.02 1.23 0.02 2.48 0.04 4.93-0.02 8.35-0.59 12.6-3.36 2.11-3.16 2.39-4.76 2.88-8.44 0.6-3.69 0.89-5.27 3.25-8.25 0.62-0.44 1.23-0.87 1.87-1.31 1.97 0.9 1.97 0.9 4 3 0.61 3.13 0.49 6.25 0.43 9.44-0.01 1.39-0.01 1.39-0.01 2.81-0.01 1.95-0.03 3.91-0.06 5.86-0.05 3.01-0.06 6.01-0.08 9.01-0.01 1.9-0.02 3.8-0.04 5.7-0.01 0.9-0.02 1.8-0.02 2.74-0.1 6.32-0.1 6.32-1.22 7.44-0.37 2.32-0.7 4.66-1 7h2v2h-2v2c-1.98-0.5-1.98-0.5-4-1v-3h-2c-0.16-0.74-0.32-1.48-0.48-2.24-1.4-5.86-2.43-10-7.52-13.8-4.15-1.32-8.38-1.23-12.7-1.32-1.26-0.03-1.26-0.03-2.54-0.06-2.67-0.07-5.34-0.13-8.01-0.19-1.81-0.04-3.62-0.08-5.44-0.13-4.43-0.11-8.87-0.21-13.3-0.3-0.02 6.02-0.04 12-0.05 18.1-0.01 2.05-0.02 4.09-0.02 6.14-0.05 11-0.09 21.8 1.07 32.8 2.79 0.93 4.55 1.14 7.44 1.17 0.89 0.02 1.79 0.03 2.71 0.04 0.97 0.01 1.93 0.02 2.93 0.02 0.99 0.01 1.99 0.02 3.02 0.03 2.11 0.01 4.23 0.02 6.34 0.03 3.22 0.02 6.44 0.06 9.65 0.11 2.06 0.01 4.12 0.01 6.17 0.02 0.96 0.02 1.91 0.04 2.9 0.05 9.11-0.03 15.3-3.26 21.8-9.47 1.19-2.05 1.19-2.05 2-4 0.44-0.42 0.89-0.84 1.34-1.27 2.86-2.98 4.68-6.69 6.75-10.2 2.15-2.81 3.47-3.75 6.91-4.49l3 2c-1.17 6.45-3.19 12.6-5.28 18.8-0.61 1.83-1.14 3.69-1.66 5.55-1.64 5.62-3.44 11.4-6.06 16.6h-115l-2-6c2.58-2.58 4.24-2.54 7.81-3.07 3.77-0.56 7.46-1.19 11.2-1.93v-127c-5.94-0.99-11.9-1.98-18-3l-1-5c3.69-3.69 15.6-2.15 20.6-2.15zm0.37 17.2v113h1v-113h-1z" fill="#F1F5F6"/>
<path transform="translate(789 813)" d="m0 0c0.95 0.21 1.9 0.43 2.88 0.65 5.02 1.17 9.21 2.67 13.8 5.04 3.94 0.45 3.94 0.45 5.92-1.75 0.6-0.74 1.21-1.49 1.83-2.25 0.61-0.74 1.22-1.49 1.86-2.25 0.46-0.58 0.91-1.16 1.39-1.75l4 1c1.14 5.67 1.31 11.3 1.53 17.1 0.05 1.06 0.09 2.12 0.13 3.21 0.14 3.36 0.27 6.72 0.4 10.1 0.09 2.29 0.18 4.57 0.28 6.86l0.66 16.8c-2.34 0.18-2.34 0.18-5 0-3.21-3.59-5.02-6.66-6.38-11.2-2.45-8.15-7.49-15-13.6-20.8-0.5-1.49-0.5-1.49-1-3-0.7-0.11-1.41-0.21-2.13-0.31-2.87-0.69-2.87-0.69-5.5-2.13-11.3-5.22-24.5-4.31-36.4-1.56l-2 2c-1.73 0.71-3.46 1.43-5.19 2.13-2.58 1.24-4.62 3.05-6.81 4.87h-2c-0.28 0.74-0.55 1.47-0.83 2.24-1.1 2.59-2.35 4.62-3.92 6.95-12.7 20.8-13.8 47-9.1 70.3 0.73 3.01 1.61 5.64 2.85 8.47 0.36 0.89 0.73 1.79 1.11 2.72 2.36 5.48 4.44 9.32 8.89 13.3l1 3c1.64 0.72 3.31 1.37 5 2 1.82 1.13 3.63 2.27 5.43 3.43 12.4 7.31 26.4 8.22 40.2 5 6.88-1.99 11.9-4.85 17.4-9.43 0.7-0.57 1.41-1.14 2.14-1.73 4.18-3.5 7.73-7.32 11.2-11.5 1.99-2.23 4.19-4.04 6.61-5.8l3 2c-4.19 14.2-16.1 27-29 34-18.1 8.78-40.7 9.66-60 4-3.4-1.2-6.72-2.51-10-4v-2c-0.55-0.1-1.11-0.19-1.67-0.29-9.25-2.84-15.9-11.2-21.3-18.7-0.53-0.68-1.06-1.36-1.6-2.05-2.56-3.34-3.4-4.62-3.4-8.95h-2c-0.26-0.78-0.51-1.55-0.77-2.35-2.32-7.03-2.32-7.03-4.92-14-5.56-15.6-3.44-38.2 3.34-53 0.45-0.89 0.89-1.78 1.35-2.7 0.57-1.17 0.57-1.17 1.15-2.36 3.31-6.32 7.52-12 11.8-17.6 0.55-0.72 1.1-1.44 1.67-2.19 2.78-3.45 4.88-5.64 9.33-6.81v-2c10.1-8.48 22.1-12 35-14 0.84-0.13 1.69-0.27 2.56-0.4 9.88-1.31 19.1-0.63 28.8 1.71zm-94.3 55.7 1 3zm-2 31 1 2z" fill="#F0F4F5"/>
<path transform="translate(194 816)" d="m0 0c1.01-0.01 2.02-0.01 3.05-0.02 1.12 0 2.23 0 3.37 0.01 1.16-0.01 2.33-0.01 3.53-0.02 3.87-0.01 7.74-0.01 11.6-0.01 2.01 0 4.01-0.01 6.01-0.01 6.31-0.01 12.6-0.01 18.9 0 6.5 0 13-0.01 19.5-0.03 5.58-0.02 11.2-0.03 16.7-0.02 3.33 0 6.67-0.01 10-0.02 3.72-0.01 7.44 0 11.2 0.01 1.11-0.01 2.22-0.02 3.36-0.02 1.01 0 2.02 0.01 3.06 0.02h2.67c2.71 0.45 3.59 1.21 5.23 3.37 2.55 10.7 1.1 23.1 1 34l-4 1c-5.78-5.95-8.4-13.2-11-21-2.34-1.12-2.34-1.12-5-2-0.59-0.34-1.18-0.69-1.78-1.05-2.88-1.24-5.17-1.18-8.29-1.14-1.16 0-2.32 0.01-3.52 0.01-1.21 0.02-2.41 0.04-3.66 0.06-1.22 0-2.44 0.01-3.7 0.02-3.01 0.03-6.03 0.06-9.05 0.1-0.95 2.85-1.12 4.61-1.12 7.57-0.01 0.93-0.01 1.87-0.01 2.83v3.11 3.28c-0.01 3.59 0 7.17 0 10.8v7.47 15.7c0.01 5.37 0.01 10.7 0 16.1v19.4 7.4 10.4 3.09c0.01 5.09 0.26 9.92 1.13 14.9 7.03 3.11 7.03 3.11 14.5 4.63 3.5 0.37 3.5 0.37 5.5 2.37 0.19 2.56 0.19 2.56 0 5-1.8 1.8-4.52 1.15-6.95 1.16-1.28 0.01-2.55 0.02-3.87 0.03-1.4 0.01-2.8 0.01-4.2 0.01-1.43 0.01-2.86 0.02-4.29 0.02-3 0.01-6 0.02-9 0.02-3.84 0.01-7.69 0.03-11.5 0.06-2.95 0.02-5.9 0.02-8.86 0.02-1.41 0.01-2.83 0.02-4.25 0.03-1.98 0.02-3.97 0.01-5.95 0.01-1.13 0-2.26 0-3.42 0.01-0.88-0.12-1.76-0.24-2.67-0.37-2-3-2-3-1.62-5.69 0.21-0.76 0.41-1.52 0.62-2.31 0.96-0.1 1.91-0.2 2.89-0.3 1.88-0.22 1.88-0.22 3.8-0.45 1.86-0.21 1.86-0.21 3.76-0.42 4.19-0.98 5.73-1.57 8.55-4.83 0.75-3.85 0.63-7.65 0.57-11.6v-3.58c0-3.23-0.02-6.46-0.06-9.7-0.03-3.38-0.03-6.76-0.04-10.1-0.01-6.4-0.06-12.8-0.11-19.2-0.05-7.29-0.08-14.6-0.1-21.9-0.06-15-0.14-30-0.26-45-3.33-0.06-6.66-0.09-10-0.12-1.4-0.03-1.4-0.03-2.83-0.06-6.92-0.04-14.2 0.26-20.2 4.18l-2 3h-2c-0.15 0.77-0.15 0.77-0.31 1.56-0.92 3.29-2.34 6.31-3.69 9.44-0.31 1.11-0.61 2.23-0.93 3.38-0.35 0.86-0.7 1.73-1.07 2.62-2.12 0.88-2.12 0.88-4 1-2.41-3.61-2.29-6.26-2.26-10.4 0-0.72-0.01-1.45-0.01-2.19 0-1.53 0-3.06 0.01-4.58 0.01-2.35 0-4.69-0.01-7.03 0-1.48 0-2.97 0.01-4.45-0.01-0.7-0.01-1.4-0.01-2.13 0.05-5.9 1.17-7.43 7.05-7.44z" fill="#F1F5F6"/>
<path transform="translate(1120 815)" d="m0 0c4.58-0.08 4.58-0.08 6.73 1.24 1.41 2.4 1.35 4.08 1.07 6.81-2.28 2.28-9.05 1.9-12.2 2.21-4.17 0.86-6.56 2.1-9.83 4.79-2.58 7.73-2.16 16.5-2.16 24.6-0.01 0.99-0.01 1.98-0.02 3-0.01 3.24-0.02 6.48-0.03 9.71 0 1.12 0 2.23-0.01 3.37-0.01 5.87-0.02 11.7-0.02 17.6-0.01 6.06-0.03 12.1-0.06 18.2-0.02 4.66-0.03 9.33-0.03 14 0 2.24-0.01 4.48-0.02 6.71-0.02 3.12-0.02 6.23-0.01 9.34-0.01 0.93-0.02 1.86-0.03 2.81 0.01 1.27 0.01 1.27 0.02 2.56 0 0.74 0 1.47-0.01 2.23 0.49 2.51 1.38 3.37 3.38 4.93 2.68 0.9 4.27 1.14 7.03 1.16 0.81 0.01 1.62 0.02 2.45 0.03 0.87 0.01 1.75 0.01 2.65 0.02 0.9 0 1.8 0.01 2.74 0.01 1.91 0.01 3.83 0.02 5.75 0.02 2.9 0.01 5.81 0.04 8.71 0.08 1.87 0 3.74 0.01 5.61 0.01 1.28 0.02 1.28 0.02 2.6 0.04 9.44-0.04 17.4-2.19 24.4-8.78 4.62-5.67 7.65-12.5 10.1-19.4 1-2.2 1-2.2 4-4.2 2.12 0.25 2.12 0.25 4 1 1.65 3.32-0.06 6.59-1 10-0.22 0.88-0.22 0.88-0.44 1.78-1.23 4.89-2.6 9.74-3.94 14.6-0.3 1.12-0.61 2.25-0.92 3.4-0.3 1.09-0.6 2.19-0.91 3.31-0.28 0.99-0.55 1.98-0.83 3-1.04 3.15-2.46 5.96-3.96 8.91-15 0.07-29.9 0.13-44.9 0.16-6.95 0.01-13.9 0.03-20.8 0.07-6.7 0.03-13.4 0.05-20.1 0.06-2.56 0-5.12 0.01-7.68 0.03-3.58 0.02-7.15 0.02-10.7 0.02-1.6 0.02-1.6 0.02-3.24 0.04-0.97-0.01-1.94-0.01-2.94-0.02-0.84 0.01-1.69 0.01-2.56 0.01-0.68-0.12-1.35-0.24-2.04-0.37-2-3-2-3-1.69-5.12 0.69-1.88 0.69-1.88 1.69-2.88 3.55-0.54 7.11-0.96 10.7-1.4 3.44-0.39 3.44-0.39 6.32-2.6 0.94-4.52 1.14-8.99 1.23-13.6 0.03-1.27 0.06-2.55 0.08-3.87 0.03-1.38 0.05-2.77 0.07-4.16 0.03-1.46 0.06-2.92 0.08-4.38 0.09-4.71 0.16-9.41 0.22-14.1 0.02-0.8 0.03-1.59 0.04-2.41 0.3-20.7 0.44-41.4-0.41-62.2-0.03-0.94-0.07-1.87-0.1-2.83-0.09-2.59-0.22-5.17-0.35-7.75-0.03-0.74-0.05-1.48-0.08-2.24-0.21-3.34-0.59-5.24-2.64-7.94-2.96-2.15-5.27-2.16-8.89-2.31-1.76-0.08-1.76-0.08-3.55-0.17-0.89-0.02-1.78-0.05-2.7-0.08-1.07-2.37-1.07-2.37-2-5l1-2c6.52-1.18 13.1-1.21 19.7-1.31 1.65-0.03 1.65-0.03 3.34-0.07 3.51-0.06 7.02-0.12 10.5-0.18 2.36-0.04 4.72-0.09 7.08-0.13 11.5-0.21 11.5-0.21 15.8-0.27 1.59-0.02 3.17-0.05 4.75-0.09zm-41.2 19v15h1v-15h-1z" fill="#F1F5F6"/>
<path transform="translate(1258 816)" d="m0 0c1.32-0 2.63-0.01 3.99-0.01 2.78-0.01 5.55-0.01 8.32-0.01 3.56 0 7.12-0.01 10.7-0.03 3.4-0.01 6.8-0.01 10.2-0.01 1.28-0.01 2.56-0.02 3.88-0.02 1.18 0 2.35 0 3.57 0.01 1.56-0.01 1.56-0.01 3.15-0.01 2.47 0.25 2.47 0.25 4.47 2.25 0.19 2.56 0.19 2.56 0 5-1.5 1.5-2.94 1.31-5.03 1.53-0.81 0.09-1.62 0.18-2.45 0.27-0.85 0.08-1.7 0.17-2.58 0.26-0.85 0.09-1.71 0.18-2.59 0.28-2.11 0.22-4.23 0.44-6.35 0.66l-1 3-2 1c-0.89 3.95-1.14 7.81-1.22 11.9-0.02 1.14-0.05 2.28-0.07 3.45-0.02 1.23-0.04 2.46-0.06 3.73-0.02 1.29-0.05 2.59-0.07 3.92-0.08 4.22-0.14 8.44-0.2 12.7-0.03 1.45-0.05 2.89-0.07 4.34-0.28 18.6-0.4 37.2 0 55.7 0.02 0.91 0.04 1.83 0.06 2.78 0.05 2.55 0.11 5.11 0.18 7.66 0.02 0.74 0.03 1.47 0.05 2.23 0.13 3.92 0.47 7.18 2.4 10.6 2.7 0.9 4.34 1.14 7.12 1.17 0.82 0.02 1.65 0.03 2.5 0.04 0.89 0.01 1.78 0.02 2.69 0.03 0.93 0 1.85 0.01 2.8 0.02 1.96 0.01 3.93 0.03 5.89 0.03 1.99 0.01 3.98 0.03 5.97 0.06 17.2 0.26 17.2 0.26 32.9-6.1 3.95-4.19 6.52-8.84 8.85-14.1 0.31-0.68 0.61-1.36 0.92-2.05 0.6-1.37 1.19-2.74 1.77-4.12 2.09-4.78 2.09-4.78 4.67-6.02 1.91 0.01 1.91 0.01 3.91 1.01 0.34 6.56-0.82 11.9-2.75 18.1-0.55 1.86-1.11 3.71-1.66 5.56-0.27 0.9-0.55 1.8-0.83 2.73-0.68 2.32-1.31 4.65-1.91 7-0.32 1.24-0.64 2.49-0.97 3.78-0.27 1.08-0.54 2.17-0.82 3.29-1.06 2.52-1.06 2.52-2.83 3.66-2.49 0.96-4.32 1.11-6.99 1.12-0.95 0.01-1.9 0.01-2.88 0.02-1.04 0-2.08 0-3.15-0.01-1.1 0.01-2.2 0.01-3.34 0.02-3.63 0.01-7.27 0.01-10.9 0.01-2.52 0-5.04 0.01-7.57 0.01-5.28 0.01-10.6 0.01-15.9 0-6.12 0-12.2 0.01-18.4 0.03-5.88 0.02-11.8 0.02-17.6 0.02-2.5 0-5.01 0.01-7.51 0.02-3.5 0.01-6.99 0-10.5-0.01-1.04 0.01-2.09 0.02-3.16 0.02-0.95 0-1.9-0.01-2.87-0.02h-2.51c-0.66-0.12-1.32-0.24-2-0.37-2-3-2-3-1.69-5.13 0.69-1.87 0.69-1.87 1.69-2.87 2.27-0.38 4.54-0.7 6.81-1 3.8-0.51 7.49-1.03 11.2-2 0.85-14.2 1.15-28.3 1.13-42.5 0.01-2.08 0.01-4.16 0.01-6.24 0-4.32 0-8.64-0.01-13 0-5.52 0-11 0.01-16.6v-12.8c-0.01-2.04 0-4.08 0-6.11 0-2.84 0-5.68-0.01-8.52 0-0.83 0.01-1.66 0.01-2.51 0.16-8.94 0.16-8.94-2.51-17.2-3.08-2.96-6.74-2.82-10.8-3.12-1.08-0.09-2.17-0.17-3.29-0.26-0.83-0.06-1.66-0.12-2.52-0.18-1.06-2.38-1.06-2.38-2-5l1-2c6.78-1.54 13.8-1.16 20.7-1.17zm0.26 20.2 1 2zm0 97v7h1v-7h-1z" fill="#F1F5F6"/>
<path transform="translate(429,1100)" d="m0 0c1.66 1.55 1.66 1.55 3 3-2.21 7.02-4.94 13.7-7.94 20.4-4.32 9.69-8.28 19.4-11.1 29.6-0.35 1.17-0.71 2.34-1.07 3.54-3.79 12.8-3.79 12.8-2.09 25.7 1.19 2.1 1.19 2.1 4.16 3.79 2.15 0.28 2.15 0.28 4.44 0.19 0.76-0.01 1.52-0.02 2.31-0.02 2.24-0.17 4.14-0.39 6.25-1.17 1.22-2.74 1.22-2.74 2-6 0.67-2 1.33-4 2-6 0.2-0.68 0.41-1.36 0.62-2.06 4.28-13.9 12.9-27.2 25.4-34.8 3.33-1.27 5.41-1.65 8.94-1.12 4.69 2.72 6.36 5.91 8 11 0.76 5.98-0.72 10.1-4 15-8.35 10.2-18.8 13.5-31 17v4c3.32 3.24 6.41 5.88 11 7 8.45-0.34 17.4-3.74 24-9 0.99-1.48 0.99-1.48 2-3 0.51-0.76 1.01-1.51 1.53-2.29 1.65-3.04 2.3-5.7 2.97-9.09 1.06-4.93 2.39-9.06 4.5-13.6 0.49-1.5 0.97-3 1.44-4.5 1.36-4.22 3.23-7.73 5.56-11.5 5.86-0.39 5.86-0.39 8 0 2.27 2.02 2.27 2.02 4 4-0.58 0.94-1.16 1.89-1.76 2.86-11.9 17.8-11.9 17.8-14.9 38.1 0.61 2.39 0.61 2.39 3.42 4.65 3.59 1.52 4.64 1.6 8.25 0.38 1.75-1.77 1.75-1.77 3.06-4.06 0.47-0.74 0.93-1.47 1.41-2.23 0.51-0.89 1.01-1.79 1.53-2.71 0.33-0.58 0.66-1.17 1.01-1.77 2.72-5.06 3.95-9.85 4.93-15.5 1.46-7.61 3.13-15 7.06-21.8 3.09-2.06 3.71-2.24 7.19-2.12 1.26 0.04 2.51 0.08 3.81 0.12 1.23 2.03 1.23 2.03 2 5-1.11 2.72-2.24 5.04-3.69 7.56-4.04 7.56-8.11 15.3-6.75 24.1 1.65 2.73 2.36 3.61 5.44 4.38 2.01-0.3 4.01-0.63 6-1 0.39-1.16 0.77-2.32 1.17-3.51 0.53-1.54 1.05-3.08 1.58-4.61 0.25-0.77 0.51-1.53 0.77-2.31 1.62-4.7 3.54-8.51 6.48-12.6 0.47-0.85 0.95-1.69 1.44-2.56 1.86-2.92 4.06-5.06 6.56-7.44 0.83-0.87 1.65-1.73 2.5-2.62 3.64-3.47 6.43-5.53 11.5-5.88 3.32 0.14 4 0.5 6.81 2.62 3.39 4.45 5.52 7.63 5.13 13.3-1.54 9.4-7.51 15-14.9 20.6-5.98 3.25-12.4 4.72-19 6-0.89 3.01-0.89 3.01-0.44 6.06 2.16 2.91 4.02 3.72 7.44 4.94 8.31 1.21 16.4-0.79 23.3-5.61 4.03-3.42 7.45-7.23 10.7-11.4l2 2c-6.43 12-14.3 24.2-28 28.6-6.46 1.16-12.4 1.11-18-2.64-3.51-2.73-5.23-4.69-5.88-9.06-0.1-3.17 0.03-5.01 0.88-7.94-0.8 0.05-1.59 0.09-2.41 0.14-9.74 0.33-9.74 0.33-13.3-1.89-2.25-2.19-3.09-3.16-3.31-6.25h-3c-0.12 0.99-0.12 0.99-0.24 2.01-1.02 4.01-2.85 7.28-4.88 10.9-0.41 0.71-0.81 1.42-1.23 2.15-6.67 11.4-6.67 11.4-12.6 13.7-3.59 0.43-6.25-1.72-9.02-3.76-4.71-4.3-5.63-7.7-6.05-13.8 0.05-2.17 0.05-2.17 1.05-4.17-3.01 1.51-3.61 4.03-5 7h-2c-0.4 0.9-0.4 0.9-0.81 1.81-3.23 5.95-9.32 9.27-15.5 11.5-5.73 1.52-10.9 2.21-16.3-0.69-5.13-3.81-8.37-7.49-10.4-13.6-0.77 1.76-0.77 1.76-1.56 3.56-2.38 4.64-4.91 8.68-9.44 11.4-4.46 1.01-8.73 1.11-12.9-0.93-4.55-3.54-7.82-8.03-8.6-13.7 0.11-7.45 0.55-14.1 2.65-21.3 0.95-3.35 1.62-6.71 2.29-10.1 1.06-5.03 2.44-9.57 4.47-14.3 1.27-3.04 2.37-6.12 3.47-9.22 1.88-5.33 3.79-10.6 5.74-15.9 0.25-0.67 0.49-1.34 0.74-2.02 1.39-3.74 3.03-7.04 5.14-10.4 0.19-0.74 0.37-1.48 0.56-2.25 0.15-0.58 0.29-1.15 0.44-1.75 2.73-1.37 4.11-0.85 7 0zm17.9 57.2c-3.02 3.74-5.41 7.17-6.94 11.8 0.29 2.24 0.29 2.24 1 4 4.51 0.18 7.97 0.14 12-2l1-2c1.67-0.34 3.33-0.67 5-1 2.16-2.16 3.45-4.38 5-7l1-1c0.07-1.69 0.08-3.38 0.06-5.06-0.01-0.92-0.02-1.84-0.02-2.79-0.02-0.71-0.03-1.42-0.04-2.15-7.89-2.35-12.7 1.45-18.1 7.23zm99.6 2.71c-3.13 4.1-4.5 6.91-4.5 12.1l4 2v-2c1.36 0.31 1.36 0.31 2.75 0.62 3.44 0.4 4.47 0.29 7.25-1.62 0.5-0.52 0.99-1.03 1.5-1.56 1.5-1.44 1.5-1.44 3.56-1.82 0.96-0.3 0.96-0.3 1.94-0.62 1.18-2.38 1.18-2.38 2-5l2-3c0.38-5.33 0.38-5.33-2-10-7.86-1.12-13.8 5.41-18.5 10.9zm33.5 15.1 1 2zm-149 13 1 2zm-33 1 1 2zm136 0 1 2z" fill="#F0F4F5"/>
<path transform="translate(376 816)" d="m0 0c0.94-0 1.88-0.01 2.85-0.01 1.53 0 1.53 0 3.09 0.01 1.06-0 2.11-0.01 3.2-0.01 2.24 0 4.48 0 6.71 0.01 3.39 0 6.79-0 10.2-0.01 2.18 0 4.36 0 6.54 0.01 1-0.01 2-0.01 3.03-0.01 19.7 0.06 19.7 0.06 22.8 3.14-0.37 2.12-0.37 2.12-1 4-1.44 0.31-1.44 0.31-2.92 0.62-1.26 0.27-2.53 0.54-3.83 0.82-1.25 0.26-2.5 0.53-3.8 0.81-2.49 0.54-4.97 1.12-7.45 1.75-1.21 22.1-1.15 44.3-1.13 66.5 0.01 5.24 0 10.5 0 15.7-0.01 4.07 0 8.14 0 12.2v5.8c-0.01 2.69 0 5.38 0 8.06v2.38c0.01 4.56 0.38 8.87 1.13 13.4 0.71 0.25 1.43 0.51 2.16 0.77 15 5.39 15 5.39 17.8 8.23v4h-66l-2-4c1.1-1.93 1.1-1.93 3-4 3-0.72 3-0.72 6.44-1.06 4.42-0.45 7.33-0.76 10.6-3.94 0.96-2.88 1.13-4.7 1.14-7.69 0.01-0.97 0.01-1.93 0.02-2.93v-3.2c0.01-1.11 0.01-2.23 0.02-3.37 0.01-3.7 0.02-7.39 0.02-11.1 0.01-2.57 0.02-5.13 0.02-7.69 0.01-4.69 0.02-9.38 0.02-14.1 0.01-6.9 0.02-13.8 0.05-20.7 0.03-5.98 0.03-12 0.04-17.9 0-2.54 0.01-5.08 0.02-7.63 0.02-3.55 0.01-7.1 0.01-10.6 0.01-1.06 0.02-2.11 0.03-3.19-0.03-5.19-0.12-8.62-3.39-12.9v-2c-0.99-0.14-1.98-0.29-3-0.44-0.63-0.09-1.27-0.19-1.92-0.29-2.08-0.3-2.08-0.3-4.22-0.38-2.11-0.14-2.11-0.14-5.86-0.89-2.06-2.44-2.06-2.44-3-5 1.79-3.58 5.07-3.13 8.65-3.13z" fill="#F1F5F6"/>
<path transform="translate(1048,1099)" d="m0 0c2.38 0.19 2.38 0.19 5 1 1.66 2.05 1.66 2.05 3 4-0.32 0.73-0.64 1.47-0.97 2.22-11.6 25.4-11.6 25.4-20 51.8-0.18 0.64-0.35 1.28-0.54 1.94-1.85 7.27-2.87 15.8-0.46 23.1 1.84 2.15 3.3 2.89 6.09 3.32 3.69 0.18 6.33-0.06 9.72-1.57 5.8-7.29 6.8-17.4 8.48-26.4 0.68-3.25 1.55-6.12 2.83-9.17 1.76-4.42 3.13-9.01 4.6-13.5 1.27-3.65 2.73-7.14 4.28-10.7 0.99-2.43 1.97-4.87 2.94-7.31 0.39-0.97 0.39-0.97 0.78-1.97 1.18-2.95 2.36-5.92 3.52-8.88 0.36-0.9 0.71-1.79 1.07-2.72 0.31-0.78 0.61-1.56 0.93-2.36 0.76-1.76 0.76-1.76 1.76-2.76 3.17-0.34 4.6-0.26 7.31 1.5 0.56 0.49 1.12 0.99 1.69 1.5-2.29 7.4-5.2 14.5-8.18 21.6-3.43 8.23-6.63 16.5-9.44 24.9-0.3 0.88-0.6 1.76-0.91 2.67-2.46 7.36-4.77 14.7-4.72 22.5-0.01 0.88-0.01 1.76-0.02 2.67 0.42 4.06 1.34 6.78 4.46 9.46 4.54 1.81 8.3 0.62 12.8-0.88v-2l2-1c0.81-2.07 0.81-2.07 1.44-4.56 4.24-14.9 10.8-30 23.6-39.4 0.8-0.62 1.61-1.24 2.44-1.88 3.59-1.57 6.71-1.96 10.6-1.12 4.59 3.57 7.67 7.5 8.44 13.3-1.05 8.8-6.59 15.5-13.1 21.2-6.27 4.46-13.9 5.81-21.3 7.53-0.93 3.01-1.04 3.87 0 7 3.82 2.93 7.9 4.96 12.8 5.05 11-1.71 18.4-6.43 25.2-15 1.57-1.74 1.57-1.74 3-3h2c-4.3 12.1-12.3 23.2-24 29-5.42 2.53-11.1 2.7-17 2-4.87-2.34-7.92-5.65-11-10v-4h-2c-1.42 1.85-1.42 1.85-2.81 4.19-5.9 9.06-5.9 9.06-11.1 10.8-5.24 0.1-9.32-1.07-13.4-4.32-3.9-3.8-3.9-3.8-4.69-6.62 0.38-2.75 0.38-2.75 1-5-3.47 1.16-3.62 1.64-5.31 4.69-4.99 8.17-4.99 8.17-8.69 10.3-5.47 1.24-10.6 0.81-15.4-2.06-5.37-4.62-6.67-12.2-7.56-18.9 0.35-4.44 1.34-7.91 3-12 0.5-2.39 0.95-4.79 1.38-7.19 1.01-5.44 2.42-10.4 4.64-15.4 1.4-3.36 2.33-6.82 3.27-10.3 0.71-2.03 0.71-2.03 2.71-4.03 0.56-1.82 1.05-3.65 1.5-5.5 1.28-5.28 1.28-5.28 3.5-7.5 0.49-1.5 0.92-3.03 1.31-4.56 1.51-5.32 3.69-11.4 7.69-15.4zm56.2 58.9c-5.3 7.26-5.3 7.26-6.19 16.1 4.08 0.24 7.24-0.38 11-2l1-3c1.02-0.03 1.02-0.03 2.06-0.06 4.39-1.4 6.98-4.5 9.94-7.94 1.51-3.02 1.18-5.67 1-9l-2-3c-6.72-1.01-12.6 4.1-16.8 8.94zm-82.2 30.1 1 2zm34 2 1 2z" fill="#F0F4F5"/>
<path transform="translate(644,1099)" d="m0 0c2.88-0.19 2.88-0.19 6 0 2 3 2 3 1.88 6.12-0.91 4-2.27 7.3-4.04 11-0.97 1.88-0.97 1.88-0.84 3.92 1.2-0.03 2.41-0.07 3.65-0.11 1.57-0.02 3.15-0.05 4.73-0.08 0.79-0.02 1.58-0.05 2.4-0.07 2.08-0.03 4.15 0.11 6.22 0.26l2 3c-4.64 1.31-8.63 0.74-13.3 0.06-1.11-0.15-1.11-0.15-2.25-0.3-1.81-0.25-3.63-0.5-5.44-0.76-0.53 1.7-0.53 1.7-1.06 3.44-1.26 3.84-2.78 7.51-4.4 11.2-5.49 12.6-12.1 29.4-9.54 43.4 0.99 2.36 1.59 3.69 3.62 5.25 4.46 1.41 8.94 1.23 13.4-0.25v-2h2c0.27-0.99 0.54-1.98 0.81-3 0.97-3.4 2.14-6.68 3.42-9.98 0.73-1.91 1.41-3.84 2.08-5.77 4.49-11.7 9.83-22.5 21.8-27.9 4.31-1.45 7.48-1.85 11.9-0.38 4.58 3.75 7.91 8.12 9 14 0.19 9.78-1.99 18.4-4.94 27.6-1.16 3.14-1.16 3.14-1.06 5.42 2.99-0.77 2.99-0.77 6-2 0.5-1.48 0.5-1.48 1-3h2c2.86-6.83 4.99-13.9 7-21 0.46-1.33 0.46-1.33 0.94-2.69 1.33-4.14 2.25-8.35 3.18-12.6 0.9-2.78 1.53-4.02 3.88-5.71 2.94 0 2.94 0 6 1 1.39 1.62 2.73 3.29 4 5-0.59 1.08-1.18 2.15-1.79 3.26-9.66 16.8-9.66 16.8-13.3 35.5 0.01 0.8 0.02 1.6 0.02 2.42 0.02 0.61 0.03 1.21 0.04 1.83 4.06 1.35 7.76 1.67 12 1 2.85-2.1 2.85-2.1 5-5 0.93-0.87 1.86-1.73 2.81-2.62 2.53-2.21 2.53-2.21 2.19-5.38l4-1c-2.81 8.06-5.78 15.2-11 22-0.84 1.14-0.84 1.14-1.69 2.29-2.81 3.55-4.54 5.44-8.87 6.96-4.25-0.31-6.23-1.5-9.44-4.25l-1-3h-2c-1.28-2.57-1.33-4.77-1.56-7.62-0.13-1.51-0.13-1.51-0.26-3.04-0.06-0.77-0.12-1.55-0.18-2.34-9.13 1.95-9.13 1.95-16 8-9.1 10.9-9.1 10.9-15.3 12-5.05 0.35-8.62-1.09-12.7-4-3.61-3.52-4.33-6.09-5-11-0.99-0.49-0.99-0.49-2-1-0.25 0.73-0.5 1.45-0.75 2.2-1.37 3.07-2.99 5.07-5.25 7.55-1.05 1.17-1.05 1.17-2.12 2.36-2.74 2.76-3.62 2.87-7.63 3.14-5.48-0.09-8.86-2.11-13.1-5.56-4.46-5.48-3.45-12.9-3.19-19.7 0.44-3.77 1.1-7.47 1.81-11.2 0.17-0.93 0.33-1.86 0.5-2.82 1.05-5.63 2.55-10.7 4.69-16 0.53-1.56 1.06-3.12 1.56-4.69 0.79-2.41 1.6-4.67 2.63-7 1-2.85 0.86-5.3 0.81-8.31-1.79-0.38-1.79-0.38-3.61-0.77-1.57-0.35-3.14-0.69-4.7-1.04-0.79-0.17-1.57-0.33-2.38-0.5-0.76-0.18-1.52-0.35-2.3-0.52-1.04-0.23-1.04-0.23-2.11-0.46-2.23-0.83-3.35-1.94-4.9-3.71l2-4c4.87 0.52 9.03 1.6 13.6 3.38 3.18 0.82 6.15 0.71 9.41 0.62 0.6-1.52 0.6-1.52 1.21-3.07 0.53-1.35 1.07-2.7 1.6-4.05 0.26-0.67 0.52-1.34 0.79-2.02 1.62-4.06 3.39-7.98 5.4-11.9zm24.1 57.6c-2.88 4.91-2.77 9.9-2.12 15.4l1 2h2v2c3.55 3.04 7.25 5.34 12 5.31 2.96 0.05 2.96 0.05 4.09-1.61 3.96-5.65 4.43-10.8 4.47-17.5 0.02-1.26 0.02-1.26 0.05-2.54-0.07-3.84-0.15-5.99-2.4-9.19-7.39-4.88-14.5-0.11-19.1 6.1zm21.9 3.44 1 2zm-31 14c-0.15 4.14-0.16 7.66 2.64 10.9 3.92 3.06 7.28 4.85 12.4 5.1 0.36-2.35 0.36-2.35 0-5-1.81-1.98-1.81-1.98-4.25-3.56-2.52-1.79-4.75-3.44-6.92-5.65-1.64-2.02-1.64-2.02-3.83-1.79zm16 13 1 2zm-22 3 1 2z" fill="#F1F5F6"/>
<path transform="translate(844,1099)" d="m0 0c2.31 0.33 4.62 0.66 7 1 1.37 5.18 0.6 7.63-2 12.2-1.05 1.89-2.07 3.8-3 5.75 0.5 0.99 0.5 0.99 1 2 1.68-0.05 1.68-0.05 3.39-0.11 1.48-0.02 2.95-0.05 4.42-0.08 0.74-0.02 1.48-0.05 2.24-0.07 5.5-0.08 5.5-0.08 7.96 1.77 0.33 0.49 0.65 0.98 0.99 1.49-1 1-1 1-2.95 1.02-1.25-0.07-1.25-0.07-2.52-0.14-1.35-0.07-1.35-0.07-2.73-0.15-0.94-0.05-1.89-0.11-2.86-0.17-0.95-0.05-1.9-0.1-2.88-0.16-2.35-0.13-4.71-0.26-7.06-0.4-3.47 7.42-3.47 7.42-7 15h-2l1 3c-0.41 1.94-0.41 1.94-1.14 4.14-0.27 0.82-0.53 1.63-0.81 2.47-0.28 0.87-0.57 1.74-0.86 2.64-5.23 16.2-5.23 16.2-3.19 32.8 1.86 2.31 3.2 2.85 6.09 3.38 2.47 0.19 4.49 0.16 6.91-0.38 2.94-2.75 4.66-5.43 6.69-8.88 0.43-0.7 0.86-1.4 1.31-2.12h2c0.5-1.48 0.5-1.48 1-3 1.38 4.15 0.16 6.11-1.5 10-4.06 8.03-9.45 17.8-18.2 21-4.59 0-8.43-1.46-12.2-4-1.27-2.14-1.27-2.14-2-4h-2c-0.94-3.16-1.11-5.97-1.06-9.25 0.01-0.89 0.02-1.78 0.02-2.7 0.02-0.68 0.03-1.35 0.04-2.05h-2c-0.14 0.62-0.29 1.24-0.44 1.88-0.56 2.12-0.56 2.12-1.56 4.12h-2c-0.33 1.11-0.33 1.11-0.67 2.24-1.65 3.43-3.49 4.76-6.58 6.95-0.93 0.67-1.87 1.35-2.83 2.04-6.38 3.86-12.6 4.67-19.9 3.77-3.44-1.75-3.44-1.75-6-4-0.74-0.6-1.49-1.2-2.25-1.81-4.38-5.47-4.36-12.5-3.75-19.2 1.12-6.6 2.34-12.3 6-18 0.85-1.51 0.85-1.51 1.72-3.04 0.59-1.04 1.17-2.08 1.78-3.15 0.59-1.04 1.18-2.09 1.78-3.17 1.72-2.64 1.72-2.64 4.72-4.64l1-3c2.25-1.5 2.25-1.5 5-3 0.74-0.54 1.49-1.07 2.25-1.62 3.87-1.94 7.41-3.02 11.8-2.38 3.92 2.82 6.94 7.3 8 12-0.12 6.21-2.43 10.2-6 15-0.52 0.71-1.04 1.42-1.57 2.14-7.44 9.33-17.1 10.7-28.4 12.9 0.82 4.29 1.39 6.48 4.75 9.38 5.65 2.82 9.86 2.91 15.9 1.42 3.36-1.13 6.3-2.77 9.34-4.58 2.04-1.22 2.04-1.22 4.2-2.17 3.12-1.78 3.65-4.8 4.84-8.05 0.35-0.93 0.7-1.86 1.06-2.81 1.02-3.45 1.68-6.89 2.28-10.4 0.71-2.97 1.73-5.74 2.83-8.58 1.43-3.76 2.73-7.56 4.02-11.4 0.27-0.78 0.54-1.56 0.82-2.36 1.33-3.93 2.37-7.24 1.99-11.4-0.62-0.04-1.23-0.07-1.87-0.11-12.1-0.95-12.1-0.95-17.1-3.89-0.93-1.92-0.93-1.92-1-4 1.44-1.75 1.44-1.75 3-3 1.01 0.36 2.03 0.72 3.07 1.09 1.35 0.47 2.7 0.94 4.05 1.41 0.67 0.24 1.34 0.48 2.02 0.72 4.09 1.41 7.47 2.05 11.9 1.78 0.3-0.68 0.61-1.36 0.92-2.05 2.88-6.4 5.9-12.7 9.08-19zm-55.2 56.1c-3.61 3.94-7.06 7.82-8.81 12.9 0.2 2.79 0.2 2.79 1 5 5.49 0.34 9.13-0.43 14-3 1.35-1.31 2.69-2.64 4-4h3c0.12-0.58 0.25-1.15 0.38-1.75 0.62-2.25 0.62-2.25 1.68-4.13 1.26-2.84 1.2-5.04 0.94-8.12l-2-3c-5.94 0-9.86 1.99-14.2 6.06z" fill="#F0F4F5"/>
<path transform="translate(204,262)" d="m0 0c9.88 1.43 18.1 9.52 25.8 15.5 5.77 4.51 11.7 8.81 17.8 12.9 0.6 0.4 1.21 0.81 1.82 1.23 1.18 0.8 2.36 1.59 3.55 2.37 1.39 0.94 2.73 1.95 4.06 2.97v2c0.58 0.28 1.17 0.56 1.77 0.85 2.1 1.08 4 2.27 5.94 3.61 0.69 0.47 1.38 0.94 2.08 1.43 1.07 0.74 1.07 0.74 2.15 1.49 1.05 0.72 1.05 0.72 2.13 1.46 5.01 3.45 9.77 7.09 14.3 11.2 2.74 2.37 5.51 4.09 8.72 5.79 3.3 2.1 6.05 4.83 8.88 7.5 2 1.91 2 1.91 5.02 2.71 2 2 2 2 3 4 1.32 0.69 2.66 1.35 4 2 6.22 4.07 12 8.51 17.6 13.4 2.47 2.12 4.29 3.58 7.41 4.62v2h3l1 2c0.58 0.27 1.15 0.54 1.75 0.81 2.25 1.19 2.25 1.19 4.5 3.49 2.83 2.78 5.72 4.91 9 7.14 0.57 0.38 1.13 0.77 1.72 1.17 4.04 2.75 8.12 5.45 12.2 8.1 1.8 1.29 3.24 2.72 4.8 4.29l2 1v2c0.87 0.43 0.87 0.43 1.75 0.88 2.08 1.04 4.17 2.08 6.25 3.12v2c0.76 0.27 1.53 0.54 2.31 0.81 2.65 1.17 3.7 2.2 5.69 4.19 2.6 1.19 2.6 1.19 5 2v2h2v2h2v2c0.71 0.25 1.41 0.5 2.14 0.75 3.23 1.41 5.82 3.18 8.67 5.25 0.98 0.7 1.95 1.4 2.96 2.12 1.1 0.93 1.1 0.93 2.23 1.88v2c0.93 0.27 1.86 0.54 2.81 0.81 3.17 1.18 3.94 1.89 6.19 4.19 1.42 0.99 2.86 1.94 4.31 2.88 3.81 2.49 7.24 5.15 10.7 8.12 1.33 1.01 2.66 2.01 4 3 0.59 0.45 1.18 0.9 1.79 1.36 4.55 3.45 9.19 6.72 13.9 9.93 2.33 1.73 4.26 3.65 6.3 5.71 2.13 1.24 2.13 1.24 4 2v2c0.84 0.39 0.84 0.39 1.69 0.79 2.6 1.36 4.91 2.95 7.31 4.65 0.85 0.59 1.69 1.19 2.56 1.81 3.39 2.44 6.65 4.89 9.75 7.69 3.35 2.9 6.78 4.99 10.7 7.06v2c0.68 0.21 1.36 0.41 2.06 0.62 3.34 1.57 5.6 3.55 8.29 6.04 1.72 1.56 1.72 1.56 4.65 2.34 1.02 0.98 2.02 1.98 3 3l2 1v2c0.68 0.21 1.36 0.41 2.06 0.62 3.34 1.57 5.6 3.55 8.29 6.04 1.72 1.56 1.72 1.56 4.65 2.34v2c0.84 0.4 0.84 0.4 1.69 0.81 2.52 1.3 4.95 2.61 7.31 4.19v2c0.7 0.25 1.4 0.5 2.12 0.75 4.65 2.02 8.33 4.7 11.9 8.25 1.13 0.9 2.28 1.77 3.44 2.62 1.05 0.78 1.05 0.78 2.12 1.58 0.8 0.59 1.61 1.19 2.44 1.8l6 4.5c1.53 1.14 1.53 1.14 3.09 2.31 1.8 1.35 3.59 2.71 5.39 4.07 0.71 0.53 1.41 1.07 2.14 1.62 0.92 0.7 0.92 0.7 1.86 1.41 1.54 1.17 1.54 1.17 3.52 2.09v2l4 1v2c1.07 0.36 1.07 0.36 2.15 0.72 3.33 1.49 5.65 3.41 8.41 5.78 3.04 2.6 5.76 4.91 9.44 6.5v2c0.66 0.19 1.32 0.37 2 0.56 4.27 2.05 7.74 5.01 11 8.44v2c0.99 0.33 1.98 0.66 3 1l-1 2c-3.16-0.63-5.47-1.72-8.19-3.44-0.69-0.43-1.39-0.86-2.1-1.31-1.71-1.25-1.71-1.25-2.71-3.25-0.85-0.5-1.69-0.99-2.56-1.5-1.21-0.74-1.21-0.74-2.44-1.5v-2c-0.54-0.06-1.07-0.12-1.62-0.19-3.43-1.17-5.65-3.48-8.38-5.81-2.22-1.28-2.22-1.28-4-2v-2c-0.52-0.06-1.05-0.13-1.59-0.19-3.51-1.18-6.12-3.46-8.97-5.75-4.63-3.66-4.63-3.66-9.44-7.06v-2c-0.62-0.14-1.24-0.29-1.88-0.44-2.12-0.56-2.12-0.56-4.12-1.56v-2c-0.58-0.29-1.15-0.58-1.75-0.88-0.74-0.37-1.49-0.74-2.25-1.12-0.68-0.31-1.36-0.62-2.06-0.94-2.59-1.42-4.27-3.29-6.19-5.5-1.82-1.75-1.82-1.75-4.69-3.12-4.87-2.67-8.91-6.4-13.1-10-2.88-2.37-5.83-4.4-8.96-6.44-1.86-1.32-3.72-2.66-5.56-4-0.91-0.66-1.82-1.32-2.76-2-2.61-1.95-5.14-3.96-7.68-6-1.97-1.51-3.95-3.01-5.94-4.5-1.5-1.13-1.5-1.13-3.02-2.28-2.12-1.55-4.21-2.98-6.42-4.38-0.86-0.6-1.73-1.21-2.62-1.84v-2c-1.05-0.36-1.05-0.36-2.12-0.72-3.41-1.52-6.05-3.5-9-5.78-2.93-2.25-5.81-4.45-8.88-6.5v-2c-0.72-0.25-1.44-0.5-2.19-0.75-3.07-1.37-5.24-3.09-7.81-5.25l-3-2v-2c-0.97-0.27-1.94-0.54-2.94-0.81-1.01-0.39-2.02-0.79-3.06-1.19l-1-3c-0.99-0.33-1.98-0.66-3-1-0.99-0.33-1.98-0.66-3-1l-1-3c-0.68-0.27-1.36-0.54-2.06-0.81-4.13-1.67-7.65-4.19-10.9-7.19v-2c-0.55-0.07-1.1-0.15-1.66-0.23-3.22-1.06-5.21-2.94-7.78-5.15-2.74-2.34-5.29-4.46-8.41-6.28-0.71-0.44-1.42-0.89-2.15-1.34v-2c-0.55-0.09-1.11-0.19-1.68-0.29-2.93-0.9-5-2.37-7.51-4.15-1.32-0.92-1.32-0.92-2.67-1.87-2.14-1.69-2.14-1.69-3.14-3.69-0.85-0.5-1.69-0.99-2.56-1.5-1.21-0.74-1.21-0.74-2.44-1.5v-2c-0.73-0.27-1.45-0.54-2.2-0.81-2.77-1.18-5.11-2.53-7.61-4.19-0.79-0.52-1.58-1.03-2.4-1.56-0.59-0.48-1.18-0.95-1.79-1.44v-2c-0.72-0.24-1.44-0.49-2.18-0.74-3.18-1.42-5.36-3.18-8.01-5.45-4.49-3.78-9.1-7.17-14-10.4-0.59-0.47-1.19-0.93-1.8-1.41v-2c-0.76-0.27-1.53-0.54-2.31-0.81-2.66-1.18-3.73-2.15-5.69-4.19-0.89-0.52-1.77-1.03-2.69-1.56-0.76-0.48-1.52-0.95-2.31-1.44v-2c-1.33-0.37-1.33-0.37-2.69-0.75-3.44-1.3-5.54-2.86-8.31-5.25l-3-2v-2c-0.7-0.24-1.4-0.47-2.12-0.72-3.41-1.52-6.05-3.5-9-5.78-2.93-2.25-5.81-4.45-8.88-6.5v-2c-0.66-0.21-1.32-0.41-2-0.62-4.07-1.87-7.69-4.36-11-7.38v-2c-0.55-0.08-1.1-0.15-1.66-0.23-3.2-1.05-5.16-2.9-7.72-5.08-4.49-3.79-4.49-3.79-9.31-7.13-0.76-0.51-1.52-1.03-2.31-1.56v-2c-0.56-0.08-1.11-0.17-1.69-0.25-3.02-0.98-4.87-2.73-7.31-4.75-0.91-0.54-1.81-1.07-2.75-1.62-2.25-1.38-2.25-1.38-3.25-3.38-1.66-0.96-3.33-1.93-5.01-2.86-3.19-1.83-6.08-3.88-8.99-6.14v-2c-0.56-0.09-1.12-0.17-1.69-0.26-3.01-0.97-4.83-2.58-7.25-4.62-2.5-2.09-4.88-4.01-7.69-5.69-2.21-1.33-3.58-2.6-5.37-4.43-1.94-1.52-3.9-3.02-5.88-4.5-1.02-0.77-2.05-1.55-3.11-2.34-2.9-2.15-2.9-2.15-5.71-3.75-2.15-1.32-3.58-2.59-5.3-4.41-1.84-1.55-3.71-3.08-5.57-4.6-0.47-0.46-0.95-0.92-1.43-1.4v-2z" fill="#E8ECED"/>
<path transform="translate(82,538)" d="m0 0c8.97 0.34 17.3 2.16 25.9 4.45 3.55 0.92 7.12 1.73 10.7 2.55 5.26 1.22 10.5 2.52 15.7 3.94 9.53 2.57 19.1 4.8 28.8 7.06 2.72 0.64 5.45 1.28 8.17 1.92 4.43 1.04 8.86 2.09 13.3 3.13 30.8 7.24 30.8 7.24 45.7 11 4.04 1 8.08 1.95 12.1 2.9 7.12 1.66 14.2 3.42 21.3 5.2 6.09 1.53 12.2 2.99 18.3 4.42 4.45 1.04 8.88 2.13 13.3 3.25 15.3 3.87 30.6 7.33 46 10.8 18.8 4.29 18.8 4.29 26.2 6.36 8.11 2.23 16.3 3.98 24.6 5.78 9.74 2.14 19.5 4.3 29 7.11 5.97 1.73 12 3.1 18.1 4.55 1.25 0.3 2.49 0.6 3.77 0.91 10.3 2.47 20.6 4.89 30.9 7.13 6.11 1.33 12.2 2.74 18.2 4.4 9.28 2.54 18.7 4.62 28.1 6.75 4.66 1.07 9.3 2.2 13.9 3.37 2.62 0.63 5.25 1.26 7.88 1.88 0.72 0.17 1.45 0.34 2.2 0.52 3.8 0.89 7.61 1.76 11.4 2.57 7.71 1.66 15.4 3.45 22.9 5.65 0.71 0.21 1.43 0.42 2.17 0.63 3.19 0.95 5.6 1.89 8.39 3.75v3c-8.52-0.63-16.6-2.75-24.8-4.88-1.4-0.35-2.8-0.71-4.2-1.06-2.72-0.69-5.44-1.39-8.16-2.08-3.51-0.9-7.02-1.79-10.5-2.68-0.91-0.22-1.82-0.45-2.76-0.69-3.3-0.79-6.62-1.43-9.96-2.07-3.97-0.83-7.89-1.84-11.8-2.86-1.66-0.41-3.32-0.79-5-1.11-3.28-0.68-6.51-1.51-9.75-2.33-12.9-3.3-25.9-6.29-38.9-9.26-11.7-2.67-23.3-5.5-34.8-8.77-5.46-1.53-10.9-2.73-16.4-3.69-3.9-0.73-7.72-1.71-11.6-2.69-3.47-0.9-6.96-1.75-10.4-2.59-1.28-0.31-2.57-0.62-3.89-0.94-1.35-0.33-2.71-0.66-4.07-0.99-1.43-0.34-2.85-0.69-4.28-1.03-2.98-0.73-5.96-1.45-8.94-2.17-6.9-1.67-13.8-3.34-20.7-5.02-2.16-0.52-4.31-1.04-6.47-1.56-1.32-0.32-2.64-0.64-3.96-0.96-1.15-0.28-2.3-0.56-3.49-0.85-1.62-0.39-3.25-0.79-4.87-1.2-3.33-0.83-6.68-1.58-10-2.34-17.8-4.09-35.7-8.25-53.4-12.8-4.22-1.07-8.44-2.07-12.7-2.98-1.27-0.28-2.54-0.58-3.81-0.9-2.67-0.67-5.34-1.27-8.02-1.87-1.14-0.26-2.28-0.52-3.45-0.78-2.39-0.54-4.78-1.08-7.16-1.62-1.14-0.26-2.28-0.52-3.45-0.79-1.04-0.23-2.08-0.47-3.15-0.71-2.75-0.72-5.26-1.68-7.89-2.76-1.74-0.38-3.49-0.71-5.25-1-6.03-1.04-12-2.19-17.8-3.9-4.8-1.39-9.66-2.52-14.5-3.66-0.93-0.22-1.86-0.44-2.82-0.67-5.06-1.21-5.06-1.21-10.2-2.28-3.24-0.66-6.41-1.55-9.6-2.43-4.16-1.13-8.31-2.22-12.6-3-4.82-0.9-9.52-2.16-14.2-3.44-7.4-1.98-14.8-3.76-22.3-5.36-2.96-0.64-5.82-1.3-8.7-2.26-2.56-0.7-5.12-1.38-7.69-2.06-0.7-0.19-1.4-0.38-2.12-0.57-1.73-0.46-3.46-0.91-5.19-1.37l-1-4z" fill="#EBEFF0"/>
<path transform="translate(1089,72)" d="m0 0c0.99 0.5 0.99 0.5 2 1-4.52 12.4-10.7 24-17.4 35.3-4.44 7.62-8 15.7-11.6 23.7h-2c-0.08 0.87-0.16 1.73-0.25 2.62-0.87 3.93-2.51 6.06-4.75 9.38-1.29 2.45-2.54 4.89-3.75 7.38-0.7 1.42-1.4 2.84-2.11 4.26-0.35 0.72-0.71 1.44-1.07 2.19-1.7 3.45-3.41 6.91-5.13 10.4-0.33 0.66-0.66 1.32-1 2.01-2.68 5.34-5.5 10.6-8.35 15.8-2.7 5.03-5.21 10.2-7.73 15.3-2.86 5.78-5.86 11.5-8.91 17.2-2.75 5.13-5.38 10.3-7.95 15.5-3.18 6.47-6.51 12.8-9.92 19.2-2.26 4.24-4.45 8.5-6.58 12.8-2.46 4.96-5 9.87-7.62 14.8-3.07 5.7-6.02 11.4-8.88 17.2-4.28 8.66-8.63 17.3-13.2 25.8-1.82 3.38-3.59 6.78-5.29 10.2-2.02 4.09-4.15 8.11-6.31 12.1-3.23 6.01-6.31 12.1-9.33 18.2-2.32 4.67-4.78 9.25-7.31 13.8-2.25 4.19-4.34 8.45-6.45 12.7-2.24 4.5-4.57 8.94-6.98 13.4-3.3 6.09-6.29 12.3-9.24 18.6-3.41 7.22-6.92 14.3-10.9 21.2-3.52 6.25-6.83 12.6-10 19-3.52 7.14-7.15 14.2-10.9 21.2-4.5 8.52-8.84 17.1-13.1 25.8l-3 6c-0.39 0.78-0.78 1.57-1.19 2.38l-0.81 1.62h-2c-0.1 0.68-0.19 1.35-0.29 2.05-0.87 3.63-2.37 6.81-4.02 10.1-0.3 0.63-0.59 1.25-0.9 1.9-1.37 2.77-2.38 4.65-5.02 6.34-0.58 0.19-1.17 0.37-1.77 0.57 0.15-7.52 3.31-12.7 6.97-19.1 1.84-3.34 3.52-6.76 5.22-10.2 0.32-0.65 0.64-1.29 0.97-1.96l1.89-3.81c1.31-2.65 2.64-5.31 3.97-7.96 0.94-1.87 1.87-3.75 2.8-5.63 0.57-1.16 1.15-2.32 1.74-3.52 0.87-1.75 0.87-1.75 1.76-3.54 1.46-2.84 3.03-5.54 4.68-8.27 0.79-1.51 1.56-3.03 2.31-4.56 0.65-1.31 0.65-1.31 1.31-2.64 0.45-0.92 0.91-1.85 1.38-2.8 3.39-6.87 6.88-13.7 10.6-20.4 1.3-2.39 2.53-4.8 3.73-7.24 2.27-4.6 4.66-9.11 7.07-13.6 7.38-13.6 7.38-13.6 13.6-27.8h2c0.18-0.66 0.36-1.33 0.55-2.01 1.35-4.75 2.66-8.86 5.45-13 0.68-1.33 1.35-2.66 2-4h2c0.33-1.18 0.66-2.35 1-3.56 2.2-6.65 5.72-12.6 9.07-18.7 1.15-2.13 2.24-4.29 3.31-6.47 2.38-4.84 4.91-9.6 7.43-14.4 3.52-6.65 6.94-13.3 10.3-20.1 2.65-5.34 5.44-10.6 8.3-15.8 1.3-2.41 2.54-4.77 3.52-7.32 1.34-3.24 3.03-6.2 4.75-9.25 6.35-11.3 12.1-22.9 17.6-34.6 2.15-4.64 4.43-9.22 6.76-13.8h2c0.11-0.72 0.23-1.44 0.35-2.19 0.68-2.92 1.69-5.16 3.09-7.81 1.34-2.57 2.57-5.04 3.6-7.75 0.96-2.25 0.96-2.25 2.96-3.25 1.36-2.5 2.64-5 3.88-7.56 0.68-1.4 1.36-2.8 2.05-4.19 0.34-0.7 0.68-1.4 1.03-2.13 1.66-3.38 3.35-6.75 5.04-10.1 0.43-0.86 0.86-1.73 1.31-2.62l7.44-14.9c0.84-1.67 1.67-3.35 2.5-5.04 2.38-4.81 4.88-9.52 7.51-14.2 1.25-2.27 2.41-4.56 3.55-6.88 2.1-4.26 4.32-8.45 6.57-12.6 2.57-4.8 5.08-9.62 7.5-14.5 3.22-6.5 6.59-12.9 9.99-19.3 2.87-5.44 5.65-10.9 8.38-16.4 1.64-3.23 3.41-6.35 5.25-9.47h2l1-2zm-77 144 1 2h2v-2h-3z" fill="#F1F5F6"/>
<path transform="translate(1464,539)" d="m0 0-1 3c-1.69 0.78-1.69 0.78-3.86 1.35-0.79 0.21-1.57 0.42-2.38 0.64-1.24 0.32-1.24 0.32-2.51 0.63-0.81 0.22-1.62 0.44-2.46 0.66-3.04 0.8-6.06 1.58-9.15 2.19-3.13 0.63-6.23 1.37-9.33 2.12-1.91 0.47-1.91 0.47-3.86 0.94-1.34 0.32-2.68 0.65-4.01 0.97-1.34 0.32-2.68 0.65-4.02 0.97-9.69 2.33-9.69 2.33-19.3 4.91-1.41 0.39-1.41 0.39-2.84 0.79-1.95 0.55-3.9 1.1-5.85 1.66-4.39 1.22-8.59 2.28-13.1 2.67-3.72 0.33-6.67 1.31-10.1 2.71-4.38 1.59-8.99 2.37-13.6 3.29-6.49 1.33-12.8 2.79-19.2 4.76-4.13 1.25-8.32 2.27-12.5 3.3-1.25 0.31-1.25 0.31-2.53 0.63-4.64 1.16-9.29 2.23-14 3.26-6.2 1.39-12.4 2.93-18.6 4.43-1.07 0.26-2.15 0.51-3.25 0.78-0.96 0.23-1.93 0.47-2.92 0.71-2.57 0.59-5.14 1.13-7.72 1.63-7.87 1.68-15.6 3.69-23.2 6.13-5.04 1.58-10.2 2.69-15.3 3.9-0.83 0.2-1.66 0.39-2.51 0.6-3.54 0.83-7.08 1.67-10.6 2.5-2.59 0.62-5.17 1.23-7.76 1.84-1.19 0.28-1.19 0.28-2.42 0.57-5.7 1.35-11.4 2.78-17 4.27-2.07 0.55-4.14 1.09-6.22 1.63-1.42 0.37-2.84 0.75-4.26 1.12-2.07 0.55-4.14 1.09-6.21 1.63-1.23 0.32-2.46 0.64-3.73 0.98-3.91 0.88-7.71 1.36-11.7 1.83-2.16 0.66-2.16 0.66-3.94 1.5-3.56 1.45-6.76 1.92-10.6 2.09-2.69 0.36-2.69 0.36-5.92 1.76-5.15 1.96-10.4 3.24-15.8 4.53-1.06 0.26-2.11 0.52-3.2 0.79-2.23 0.55-4.45 1.09-6.68 1.63-3.39 0.82-6.78 1.66-10.2 2.49l-6.51 1.59c-1.01 0.25-2.01 0.5-3.05 0.75-4.2 1.02-8.33 1.96-12.6 2.44-2.87 0.35-4.68 0.78-7.28 1.87-4.34 1.76-8.69 2.34-13.3 3.03-3.39 0.61-6.44 1.64-9.67 2.81-3.41 1.08-6.88 1.58-10.4 2.1-3.01 0.57-3.01 0.57-6.26 1.96-6.4 2.48-13.2 3.77-19.9 5.28-1.38 0.32-2.75 0.63-4.13 0.95-2.51 0.58-5.02 1.15-7.54 1.72-3.64 0.84-7.23 1.75-10.8 2.77-4.17 1.06-7.96 1.09-12.2 0.94l-1 2c-2.7 0.64-5.33 1.17-8.06 1.62-1.14 0.21-1.14 0.21-2.3 0.41-1.88 0.33-3.76 0.65-5.64 0.97l1-4c1.39-0.22 1.39-0.22 2.81-0.44 3.2-0.48 3.2-0.48 6.19-1.56 1.45-0.22 1.45-0.22 2.94-0.44 2.85-0.52 4.53-1.26 7.06-2.56 4.5-1.35 9.03-2.53 13.6-3.62 1.84-0.44 1.84-0.44 3.73-0.9 1.27-0.3 2.54-0.6 3.85-0.92 2.51-0.6 5.03-1.2 7.54-1.81 1.83-0.43 1.83-0.43 3.69-0.88 4.35-1.06 8.67-2.19 13-3.34 2.59-0.53 2.59-0.53 5.24-0.48 2.62 0.16 2.62 0.16 5.35-2.05 1.92-0.62 1.92-0.62 4.11-1.15 0.8-0.2 1.61-0.4 2.45-0.6 0.87-0.21 1.73-0.41 2.63-0.63 1.84-0.44 3.68-0.89 5.52-1.34 0.91-0.22 1.81-0.44 2.75-0.66 3.31-0.81 6.61-1.65 9.92-2.5 7.36-1.83 14.8-3.59 22.1-5.33 1.35-0.31 2.7-0.63 4.05-0.95 1.91-0.45 3.83-0.9 5.75-1.35 1.11-0.26 2.23-0.53 3.39-0.8 2.29-0.48 4.61-0.87 6.93-1.19 2.79-0.42 5.12-0.96 7.75-1.91 4.41-1.54 8.84-2.8 13.4-3.97 0.81-0.21 1.61-0.42 2.45-0.63 13-3.38 26.2-6.41 39.3-9.41 3.35-0.78 6.64-1.62 9.94-2.58 3.56-1 3.56-1 5.92-1.45 2.89-0.6 5.61-1.47 8.42-2.38 7.09-2.21 14.3-3.83 21.5-5.38 13.7-2.93 27.4-6.11 41-9.54 0.74-0.18 1.47-0.37 2.23-0.56 7.4-1.86 14.8-3.77 22.2-5.76 6.96-1.86 14-3.53 21-5.12 2.25-0.51 4.51-1.03 6.76-1.54 1.46-0.33 1.46-0.33 2.95-0.67 2.21-0.51 4.4-1.04 6.6-1.6 1.48-0.36 2.97-0.72 4.45-1.09 1.75-0.43 3.49-0.86 5.24-1.29 0.86-0.2 1.72-0.41 2.6-0.63 4.02-0.99 7.94-2.04 11.8-3.43 6.89-2.36 14.1-3.68 21.2-5.18 2.18-0.47 4.36-0.94 6.55-1.41 1.96-0.42 3.93-0.84 5.89-1.26 2.43-0.53 4.84-1.08 7.25-1.71 1.05-0.27 2.11-0.55 3.19-0.83 1.26-0.33 2.51-0.65 3.8-0.99 14.8-3.86 29.7-7.67 44.6-11.2 1.22-0.3 2.44-0.6 3.7-0.91 6.4-1.5 12.1-2.36 18.7-2.03z" fill="#ECF0F0"/>
<path transform="translate(952,1123)" d="m0 0 4 2c-1.33 3.33-2.67 6.67-4 10h26l2 5c0.99 0.33 1.98 0.66 3 1-0.24 6.35-1.98 10.1-5.38 15.4-5.81 9.23-9.01 17.6-8.62 28.6 4.37 1.46 8.44 1.61 13 1 6.61-3.79 8.73-9.65 10.8-16.8 0.51-1.88 1.01-3.76 1.49-5.64 0.78-2.85 1.74-5.55 2.83-8.3 0.73-1.92 1.41-3.86 2.08-5.81 0.21-0.63 0.42-1.25 0.65-1.9 0.63-1.84 1.25-3.68 1.87-5.53 1.16-2.78 1.97-4.21 4.28-6.07 5.52 1.32 5.52 1.32 7.45 4.07 0.85 4.54-1.31 7.31-3.57 11.2-0.85 1.52-1.7 3.05-2.55 4.57-0.41 0.73-0.81 1.45-1.23 2.2-4.14 7.48-8.41 16.3-7.1 25 3.06 2.92 4.8 4.02 9.06 3.94 3.03-0.97 5.32-2.17 7.94-3.94l3-2c-0.82 7.98-3.29 13.3-9 19-3.32 2.3-4.99 3-9 3-3.78-1.26-6.81-2.62-9-6-0.5-3.39-0.36-6.6 0-10-1.98 0.49-1.98 0.49-4 1-0.08 0.56-0.17 1.13-0.25 1.71-0.98 2.99-2.57 4.66-4.69 6.98-0.71 0.79-1.42 1.57-2.15 2.38-2.86 2.88-4.7 3.13-8.66 3.24-5.03-0.03-7.51-0.97-11.2-4.31v-2l-2-1c-1.75-1.75-1.17-4.13-1.19-6.5 0.11-10 2.87-18.4 7.12-27.5 1.96-4.23 2.07-6 2.07-11h-13c-0.37 1.15-0.74 2.31-1.12 3.5-1.58 4.68-3.21 9.35-4.88 14-0.25 0.72-0.5 1.44-0.75 2.18-0.67 1.81-1.45 3.57-2.25 5.32-1.49 0.49-1.49 0.49-3 1l1-7h2c-0.21-0.52-0.42-1.03-0.63-1.57-0.68-4.51 1.55-8.78 3.01-13 0.97-3.38 0.97-3.38-0.74-6.06-0.54-0.77-1.08-1.55-1.64-2.35-1.33-7.1 0.58-13.8 4-20 1.64-1.79 1.64-1.79 3-3z" fill="#F1F5F6"/>
<path transform="translate(462,71)" d="m0 0c3.94 3.39 5.82 6.39 7.78 11.2 1.54 3.59 3.28 7.05 5.03 10.5 0.35 0.69 0.7 1.38 1.06 2.09 0.7 1.4 1.41 2.8 2.11 4.2 1.52 3 3.02 6.01 4.52 9.02 0.57 1.13 1.13 2.27 1.72 3.43 1.25 2.51 2.5 5.03 3.75 7.54 3.69 7.43 7.48 14.8 11.4 22.1 2.7 5.03 5.21 10.2 7.73 15.3 2.53 5.12 5.16 10.2 7.86 15.2 4.83 9.03 4.83 9.03 6.94 13.1 0.38 0.74 0.76 1.47 1.15 2.23 1 2.37 1.49 4.62 1.91 7.15h2c3 6.62 3 6.62 3 10h2c3.31 6.48 6.45 13 9.5 19.6 2.39 5.18 4.85 10.3 7.69 15.2 3.53 6.3 6.69 12.8 9.9 19.3 1.15 2.33 2.31 4.65 3.47 6.96l12 24c0.39 0.78 0.78 1.56 1.19 2.37 0.93 1.87 1.86 3.74 2.79 5.62 0.52 1.05 1.04 2.11 1.58 3.2 0.48 0.97 0.96 1.93 1.45 2.93 1.38 2.66 2.89 5.19 4.43 7.76 1.51 2.73 2.97 5.49 4.44 8.25 0.38 0.71 0.76 1.43 1.16 2.16 1.92 3.63 3.73 7.28 5.38 11 2.08 4.77 4.49 9.33 6.96 13.9 3.18 5.97 6.2 12 8.92 18.2 1.71 3.7 3.69 7.23 5.67 10.8 1.83 3.33 3.5 6.73 5.18 10.1 1.85 3.65 3.85 7.23 5.86 10.8 1.34 2.57 2.47 5.18 3.59 7.85 1.55 3.5 3.4 6.84 5.22 10.2 0.8 1.51 1.61 3.02 2.41 4.53 0.39 0.72 0.77 1.44 1.16 2.18 2.59 4.89 5.02 9.86 7.44 14.8 3.08 6.26 6.38 12.3 10 18.3 1.79 3.22 3.19 6.49 4.61 9.89 1.29 2.87 2.61 5.72 3.94 8.56 0.5 1.1 0.5 1.1 1.01 2.21 2.03 4.36 4.33 8.25 7.05 12.2 0.91 1.67 1.79 3.36 2.62 5.06 0.41 0.82 0.81 1.63 1.23 2.48 0.76 1.62 1.47 3.27 2.13 4.94 1.09 2.69 2.33 5.24 3.64 7.83 1.83 3.61 3.65 7.23 5.45 10.8 0.35 0.71 0.7 1.42 1.06 2.15l2.07 4.17c1.41 2.83 2.83 5.56 4.5 8.25 1.73 3.02 1.96 5.84 2.3 9.27-4.04-1.35-4.9-3.38-7-7v-3h-2c-0.24-0.63-0.48-1.26-0.73-1.91-1.84-4.69-3.76-9.27-6.07-13.8-0.98-1.91-1.93-3.82-2.87-5.74-0.3-0.61-0.6-1.22-0.91-1.85-0.88-1.8-1.76-3.59-2.64-5.38-1.74-3.29-3.71-6.29-5.78-9.37-0.8-1.54-1.55-3.1-2.25-4.69-0.5-1.12-0.5-1.12-1.02-2.26-0.73-2.05-0.73-2.05-0.73-5.05h-2l-11-22c-0.66-1.31-1.32-2.63-1.98-3.95-1.68-3.37-3.36-6.74-5.04-10.1-3.7-7.45-7.49-14.8-11.5-22.1-1.45-2.77-1.45-2.77-2.36-5.09-1.93-4.73-4.53-9.15-6.99-13.6-0.4-0.73-0.79-1.47-1.2-2.22-0.37-0.67-0.73-1.33-1.11-2.02-0.79-1.82-0.79-1.82-0.79-4.82h-2c-0.5-1.06-0.99-2.13-1.5-3.23-7.45-16.2-7.45-16.2-15.9-32-1.56-2.81-1.56-2.81-1.56-5.81h-2c-0.27-0.61-0.54-1.22-0.81-1.84-3.49-7.81-7.29-15.4-11.1-23.1-1.69-3.36-3.37-6.72-5.05-10.1-0.33-0.65-0.65-1.31-0.99-1.98-1.72-3.44-3.44-6.89-5.15-10.3-0.35-0.71-0.71-1.42-1.07-2.15-0.67-1.35-1.34-2.69-2-4.04-1.57-3.16-3.22-6.23-5.02-9.27-1.77-3.22-1.77-3.22-1.77-6.22h-2c-0.6-1.45-0.6-1.45-1.21-2.94-3.34-7.91-7-15.4-11.3-22.8-2.97-5.16-5.55-10.4-8.04-15.8-3.17-6.86-6.64-13.3-10.5-19.8-3.42-5.97-6.16-12.3-9.04-18.5-3.87-8.35-3.87-8.35-8.39-16.4-1.91-3.28-3.33-6.71-4.79-10.2-2.56-5.99-5.44-11.6-8.81-17.1-3.79-6.45-7.16-13.1-10.6-19.8-1.33-2.55-2.68-5.09-4.04-7.62-7.51-14-7.51-14-10.2-21.4-1.66-3.98-3.77-7.73-5.82-11.5-2.62-4.82-5.14-9.69-7.6-14.6-0.33-0.67-0.66-1.33-1.01-2.01-4.75-9.53-4.75-9.53-4.23-12.7 0.2-0.56 0.41-1.12 0.62-1.69z" fill="#F1F5F6"/>
<path transform="translate(253,453)" d="m0 0c8.73 0 15.3 3.93 22.8 7.88 3.53 1.83 7.12 3.5 10.7 5.18 0.72 0.34 1.44 0.68 2.18 1.02 3.21 1.5 6.43 3 9.65 4.49 9.35 4.33 18.6 8.81 27.9 13.3 7.36 3.56 14.7 7.11 22.1 10.6 4.76 2.22 9.49 4.51 14.2 6.87 6.36 3.21 12.8 6.3 19.2 9.38 0.97 0.46 1.94 0.93 2.93 1.4 4.22 2.02 8.45 4.01 12.7 5.89 5.47 2.41 10.8 5.04 16.2 7.64 8.24 3.99 16.5 7.87 24.9 11.6 6.93 3.12 13.8 6.34 20.5 9.78 5.89 2.99 11.9 5.81 17.8 8.61 5.04 2.38 10 4.84 15 7.36 5.94 3.01 12 5.79 18.1 8.5 6.61 2.94 13.1 6 19.6 9.28 10.4 5.25 20.9 10.2 31.4 15.2 1.9 0.91 3.8 1.82 5.7 2.72 0.92 0.44 1.84 0.88 2.78 1.33 1.84 0.88 3.69 1.77 5.53 2.65 4.91 2.36 9.83 4.7 14.8 6.99 2.69 1.24 5.37 2.5 8.04 3.76 1.31 0.61 2.63 1.22 3.94 1.82 1.84 0.84 3.67 1.7 5.5 2.57 1.06 0.49 2.12 0.98 3.21 1.48 2.93 1.95 3.59 3.34 4.52 6.68l-2 1c-2.44-0.9-4.76-1.86-7.12-2.94-0.72-0.32-1.43-0.63-2.17-0.96-5.61-2.54-11.1-5.25-16.6-8.04-5.66-2.87-11.4-5.59-17.2-8.27-3.27-1.53-6.52-3.08-9.74-4.71-4.05-2.04-8.17-3.9-12.3-5.76-5.87-2.67-11.7-5.5-17.5-8.3-4.37-2.1-8.75-4.18-13.2-6.12-3.9-1.72-7.61-3.66-11.4-5.71-9.71-5.25-19.6-9.85-29.8-14.1-7.87-3.33-15.4-7.18-23.1-11.1-5.37-2.73-10.8-5.37-16.2-7.88-4.53-2.07-9-4.24-13.4-6.5-5.33-2.69-10.7-5.16-16.2-7.56-5.66-2.48-11.2-5.06-16.7-7.87-6.71-3.42-13.5-6.58-20.4-9.69-9.45-4.29-18.8-8.78-28-13.5-1.42-0.72-2.83-1.43-4.25-2.14-0.97-0.49-0.97-0.49-1.95-0.99-2.22-1.08-4.49-2-6.8-2.87v-2c-0.76-0.06-1.53-0.12-2.32-0.18-5.27-1.17-9.79-3.56-14.6-5.94-2.07-1.01-4.14-2.02-6.22-3.03-1-0.49-2-0.98-3.04-1.49-3.56-1.73-7.14-3.39-10.7-5.05-6.43-2.99-12.8-6.12-19.1-9.33-2.66-1.34-5.32-2.63-8.01-3.9-0.64-0.31-1.29-0.62-1.95-0.94-1.77-0.84-3.54-1.67-5.3-2.5-2.78-1.69-3.66-2.62-4.7-5.64z" fill="#E4E8E9"/>
<path transform="translate(1339 262)" d="m0 0c0.68 0.29 1.36 0.58 2.06 0.88-1.5 4.2-4.23 5.8-8 8h-2c-0.66 1.31-1.32 2.63-2 4h-3c-0.18 0.57-0.37 1.15-0.56 1.74-1.73 2.72-3.74 3.56-6.51 5.09-3.19 1.93-5.89 4.38-8.68 6.85-5.86 5.18-5.86 5.18-9.25 6.32-1.35 1.31-2.68 2.65-4 4-1.89 1.48-3.81 2.94-5.75 4.37-4.28 3.16-8.52 6.36-12.7 9.63-1.53 1-1.53 1-3.53 1l-1 3c-1.42 1.28-1.42 1.28-3.31 2.62-0.71 0.51-1.43 1.03-2.16 1.56-0.83 0.6-1.67 1.2-2.53 1.82-2.08 1.55-4.17 3.12-6.25 4.68-1.91 1.44-3.83 2.88-5.75 4.32-0.73 0.58-1.47 1.16-2.23 1.76-1.77 1.24-1.77 1.24-3.77 1.24l-1 3c-1.96 1.39-3.96 2.72-6 4-1.11 0.86-1.11 0.86-2.25 1.74-1.75 1.26-1.75 1.26-3.75 1.26l-1 3c-2.29 1.9-2.29 1.9-5.18 3.93-1 0.71-2 1.41-3.02 2.14-2.06 1.42-4.13 2.81-6.24 4.17-2.62 1.67-2.62 1.67-4.68 3.94-2.05 1.98-3.2 2.17-5.88 2.82l-1 3c-1.33 0.92-2.68 1.84-4.06 2.7-2.41 1.61-4.62 3.41-6.88 5.23-11.2 9.07-11.2 9.07-14.1 9.07-0.22 0.59-0.45 1.19-0.68 1.81-1.68 2.79-3.52 3.54-6.32 5.19-1.67 1.26-3.31 2.55-4.94 3.87-0.86 0.7-1.73 1.4-2.62 2.12-1.99 1.64-3.94 3.31-5.88 5.01-2.56 2-2.56 2-5.56 2-0.34 0.89-0.34 0.89-0.68 1.81-1.68 2.79-3.49 3.64-6.32 5.19-0.72 0.55-1.44 1.11-2.18 1.68-1.82 1.32-1.82 1.32-3.82 1.32l-1 3c-1.35 0.94-2.71 1.88-4.11 2.74-3.14 2.08-6.01 4.5-8.93 6.86-1.96 1.4-1.96 1.4-3.96 1.4l-1 3c-1.32 0.68-2.66 1.34-4 2l-2 3c-1.66 0.92-3.32 1.85-4.99 2.75-3.06 1.9-5.59 4.31-8.21 6.76-1.8 1.49-1.8 1.49-4.8 2.49l-5 5h-2l-1 3c-1.78 1.39-1.78 1.39-4.06 2.81-3.94 2.51-7.64 5.19-11.3 8.08-1.63 1.11-1.63 1.11-3.63 1.11l-1 3c-1.32 0.68-2.66 1.34-4 2-0.87 0.87-0.87 0.87-1.76 1.77-2.58 2.56-5.33 4.68-8.24 6.85-1.03 0.78-2.06 1.55-3.12 2.35-2.28 1.6-4.4 2.81-6.88 4.03-0.96 0.99-0.96 0.99-1.94 2-2.06 2-2.06 2-4.74 3.06-0.77 0.31-1.53 0.62-2.32 0.94l-1 3c-1.32 0.68-2.66 1.34-4 2-1.34 1.32-2.67 2.66-4 4-1.46 1.19-2.94 2.35-4.44 3.5-0.79 0.6-1.58 1.21-2.4 1.84-0.71 0.55-1.42 1.09-2.16 1.66-1.23 0.99-1.23 0.99-2.5 2-1.23 0.99-1.23 0.99-2.5 2-0.72 0.59-1.45 1.18-2.19 1.79-0.8 0.65-1.61 1.29-2.43 1.95-1.14 0.93-1.14 0.93-2.29 1.86-2.09 1.4-2.09 1.4-5.09 1.4-0.24 0.63-0.49 1.27-0.75 1.93-1.25 2.07-1.25 2.07-3.31 2.63-0.64 0.14-1.28 0.29-1.94 0.44l-1 3c-2.36 1.68-2.36 1.68-5.31 3.43-3.74 2.23-6.68 4.43-9.69 7.57-18.8 16-18.8 16-23 16l-1 3c-1.95 1.4-3.96 2.72-6 4-4.59 2.87-4.59 2.87-8 7-1.65 1.01-3.32 2.01-5 3-2.8 2.29-5.54 4.66-8.28 7.03-2.72 1.97-4.42 2.62-7.72 2.97 1.48-4.69 1.48-4.69 3.75-6.07 1.12-0.46 1.12-0.46 2.25-0.93 4.62-2.57 4.62-2.57 7-7 2.63-2.56 4.11-3.93 7.82-4.26 0.72 0.09 1.44 0.17 2.18 0.26-0.33-1-0.66-1.99-1-3 1.41-1.16 2.83-2.3 4.25-3.44 0.79-0.64 1.58-1.28 2.39-1.94 2.36-1.62 2.36-1.62 4.6-2.16 0.58-0.15 1.16-0.31 1.76-0.46 0.33-1 0.66-1.99 1-3 2.87-2.15 5.44-3.8 8.82-5 0.72-0.33 1.44-0.67 2.18-1 0.13-0.62 0.25-1.24 0.38-1.88 0.62-2.12 0.62-2.12 3.87-4.12 0.63-0.33 1.26-0.65 1.9-0.99 2.1-1.08 2.1-1.08 4.67-3.27 2.18-1.74 2.18-1.74 4.18-1.74v-2c2.03-1.74 4.06-3.35 6.19-4.94 0.58-0.45 1.16-0.89 1.75-1.34 3.25-2.47 6.55-4.65 10.1-6.72 0.54-0.54 1.07-1.08 1.63-1.63 1.37-1.37 1.37-1.37 4.37-2.37l2.44-2.44c2.31-2.32 3.74-3.16 6.56-4.56 0.72-0.73 1.44-1.46 2.18-2.2 3.16-3.14 6.51-5.87 10-8.62 0.63-0.5 1.26-1 1.9-1.52 4.67-3.66 4.67-3.66 6.91-3.66v-2c4.57-3.65 9.7-6.56 15-9v-2c2.05-1.73 4.1-3.35 6.25-4.94 0.59-0.45 1.18-0.89 1.78-1.34 1.14-0.86 2.28-1.72 3.43-2.57 1.3-0.97 2.57-1.97 3.84-2.97 1.7-1.18 1.7-1.18 3.7-1.18v-2c1.65-1.03 3.32-2.03 5-3 0.54-0.54 1.07-1.08 1.63-1.63 1.37-1.37 1.37-1.37 4.37-2.37 0.33-1 0.66-1.99 1-3 3.36-2.11 6.66-3.85 10.2-5.5 2.86-1.56 3.92-2.89 5.75-5.5 0.99-0.34 1.98-0.66 3-1 1.68-1.66 3.35-3.33 5-5 2.58-2.23 5.23-4.37 7.88-6.5 0.68-0.56 1.36-1.12 2.06-1.69 11.5-9.29 11.5-9.29 16.1-10.8 0.75-1 0.75-1 1.5-2 1.5-2 1.5-2 4.5-3 1.68-1.66 3.35-3.33 5-5 2.01-1.63 4.06-3.21 6.13-4.76 1.03-0.77 2.07-1.55 3.13-2.35 2.74-1.89 2.74-1.89 5.74-2.89 0.68-0.69 1.36-1.37 2.06-2.07 0.64-0.64 1.28-1.28 1.94-1.93h2c0.93-1.18 0.93-1.18 1.88-2.38 2.12-2.63 3.2-3.21 6.12-4.62 0.72-0.73 1.45-1.45 2.19-2.19 9.77-9.77 9.77-9.77 15.8-10.8v-2c1.87-1.55 3.73-2.97 5.69-4.38 4.6-3.36 4.6-3.36 9.07-6.88 2.23-1.74 3.58-2.08 6.24-2.74 0.33-1 0.66-1.99 1-3 1.93-1.79 1.93-1.79 4.32-3.63 0.77-0.61 1.55-1.22 2.36-1.85 2.19-1.44 3.77-2.09 6.32-2.52v-2c2-1.01 4-2 6-3v-2l4-2c0.33 0.32 0.66 0.65 1 1 0.34-0.93 0.34-0.93 0.69-1.88 1.31-2.12 1.31-2.12 3.69-3.06 2.82-0.9 2.82-0.9 4.62-3.56 2.24-2.8 3.71-3.32 7-4.5 1.65-1.4 1.65-1.4 3-3 1.56-1.69 1.56-1.69 3-3h2v-2c5.08-4.58 11.5-9.83 18-12v-2c1.68-1.49 1.68-1.49 4.02-3.19 1.26-0.93 1.26-0.93 2.54-1.87 0.89-0.64 1.78-1.28 2.69-1.94 1.31-0.97 1.31-0.97 2.65-1.95 6.6-4.82 6.6-4.82 9.26-6.07 2.18-0.98 2.18-0.98 3.84-3.98 0.66-0.15 1.32-0.29 2-0.44 0.66-0.19 1.32-0.37 2-0.56 0.26-0.59 0.53-1.18 0.8-1.79 1.63-2.99 3.73-4.28 6.52-6.21 5.02-3.51 9.74-7.1 14.2-11.3 3.1-2.7 3.1-2.7 6.44-2.56z" fill="#EBEFF0"/>
<path transform="translate(772,3)" d="m0 0h1c1.01 12 1.14 24 1.12 36v6.3c0.01 5.74 0 11.5 0 17.2-0.01 6.2-0.01 12.4-0.01 18.6v32.2c-0.01 11.2-0.01 22.5-0.02 33.7v2.12 10.7c0 25.2-0.01 50.3-0.01 75.5l-0.03 73.3v2.28 22.7c0 15.4 0 30.8-0.01 46.3v2.15c-0.01 47.3-0.02 94.6-0.04 142h-3c-2.59-3.88-2.25-7.11-2.2-11.6 0.01-1.25 0.01-1.25 0.01-2.54 0.01-2.68 0.04-5.36 0.07-8.04 0.01-1.81 0.01-3.63 0.02-5.45 0.02-4.45 0.06-8.91 0.1-13.4h1l1-14h-2c-0.02-9.92-0.04-19.8-0.05-29.8-0.01-4.61-0.01-9.22-0.03-13.8-0.01-5.36-0.02-10.7-0.02-16.1v-2.67c0.01-14.9 0.31-29.7 0.84-44.6 0.02-0.75 0.04-1.49 0.07-2.25 0.07-2 0.14-3.99 0.21-5.99 0.31-2.73 0.31-2.73-1.02-3.83-0.1-1.77-0.13-3.54-0.13-5.31 0-1.15-0.01-2.29-0.01-3.48 0-1.27 0.01-2.55 0.01-3.86 0-1.37 0-2.73-0.01-4.1 0-2.92 0-5.83 0.01-8.75v-10.5c-0.03-15.1 0.08-30.2 0.36-45.2 0.65-35 0.84-70 0.8-105-0.01-2.31-0.01-4.63-0.01-6.95-0.03-20.2-0.06-40.5-0.11-60.8-0.02-12-0.05-23.9-0.06-35.9 0-6.73-0.02-13.5-0.04-20.2-0.01-4.14-0.02-8.28-0.02-12.4 0-1.92-0.01-3.84-0.01-5.76-0.02-2.61-0.02-5.22-0.01-7.83-0.01-0.76-0.02-1.53-0.02-2.31 0.01-3.75 0.12-5.38 2.25-8.58zm-2 279v6h1v-6h-1zm0 106v6h1v-6h-1z" fill="#F2F6F7"/>
<path transform="translate(969,697)" d="m0 0c48.9-0.05 97.7-0.08 147-0.1 5.77 0 11.5-0.01 17.3-0.01h3.48c18.6-0.01 37.2-0.03 55.8-0.04 19.1-0.02 38.2-0.03 57.2-0.04 11.8 0 23.6-0.01 35.3-0.03 8.07-0.01 16.1-0.01 24.2-0.01 4.66 0 9.32 0 14-0.01 4.26-0.01 8.52-0.01 12.8 0 1.54 0 3.09 0 4.63-0.01 2.1-0.01 4.19 0 6.28 0h3.54c2.83 0.25 2.83 0.25 5.83 2.25l-1 3h-386v-5z" fill="#F1F5F6"/>
<path transform="translate(212 697)" d="m0 0c0.96-0 0.96-0 1.94-0.01h6.54 4.7c4.32-0.01 8.64-0.01 13-0.01 4.66 0 9.31 0 14-0.01 9.13-0.01 18.3-0.01 27.4-0.01h22.2c21-0.01 42-0.02 63-0.02h3.43 3.44c18.4 0 36.8-0.01 55.2-0.02 18.9-0.01 37.7-0.02 56.6-0.02 10.6 0 21.2 0 31.8-0.01 9.03-0.01 18.1-0.01 27.1-0.01 4.61 0.01 9.22 0.01 13.8 0 4.22-0.01 8.43-0.01 12.6 0 1.53 0 3.06 0 4.59-0.01 2.07 0 4.14 0 6.21 0.01h3.49c2.81 0.25 2.81 0.25 5.81 2.25l-1 3h-382l-1-4c1.81-1.81 4.61-1.13 7.05-1.13z" fill="#F1F5F6"/>
<path transform="translate(921,1098)" d="m0 0c4.75 0.75 4.75 0.75 7 3-0.32 4.54-2.5 8.34-4.56 12.3-0.35 0.69-0.7 1.38-1.06 2.09-1.51 2.96-3.03 5.92-4.56 8.87-0.76 1.49-1.53 2.98-2.29 4.47-0.72 1.41-1.45 2.81-2.18 4.21-0.84 1.65-1.61 3.35-2.35 5.05l1 2 2.5-2.5c2.58-2.17 4.31-2.88 7.69-2.94 3.81 0.44 3.81 0.44 6.81 2.44 4.24 6.73 5.17 11.5 5.12 19.5 0.01 1.14 0.01 1.14 0.02 2.3-0.01 3.57-0.18 6.77-1.14 10.2h-2l1 3c-3.57 11.8-10.2 22.7-20.9 29.2-3.91 1.57-7.93 1.37-12.1 0.83-5.62-2.86-5.62-2.86-7-7l-2-1c-4.17-7.95-1.4-19.7 1-28 0.72-1.69 1.45-3.37 2.19-5.05 1.47-3.53 2.58-7.18 3.75-10.8 2.48-7.58 5.11-14.8 9.12-21.7 2.45-4.26 4.26-8.65 6.06-13.2 2.49-6.16 5.17-11.7 8.88-17.2zm-13 56c-4.58 7.75-8.1 14.9-8.31 24.1-0.04 1.05-0.08 2.09-0.12 3.16 0.17 2.87 0.17 2.87 2.22 4.62 3.43 1.8 6.5 1.97 10.2 1.16 6.62-3.22 10.1-8.43 13-15 1.2-3.59 1.21-6.59 1.25-10.4 0.03-1.3 0.05-2.61 0.08-3.96-0.34-3.83-0.88-5.72-3.33-8.66-6.19-1.03-10.8 0.09-15 5zm19 2v8h1v-8h-1z" fill="#F0F4F5"/>
<path transform="translate(907,162)" d="m0 0h4c-1.39 6.48-2.96 12.9-4.59 19.3-0.67 2.66-1.34 5.31-1.86 8-0.63 3.04-1.41 6.02-2.22 9.02-0.33 1.23-0.67 2.47-1.01 3.74-0.17 0.65-0.35 1.3-0.53 1.97-3.4 12.6-6.68 25.2-9.79 37.9-0.55 2.19-1.09 4.37-1.65 6.56-1.32 5.24-2.6 10.5-3.79 15.8-4.22 18.4-4.22 18.4-6.63 24.3-1 2.57-1.38 4.85-1.74 7.58-0.94 6-2.48 11.7-4.16 17.5-1.97 6.91-3.64 13.9-5.24 20.9-1.18 5.1-2.55 10.1-4.12 15.1-0.7 2.42-1.19 4.84-1.67 7.32-0.48 1.86-0.99 3.71-1.5 5.56-1.47 5.29-2.77 10.6-3.99 15.9-0.45 1.97-0.9 3.94-1.36 5.91-0.3 1.33-0.61 2.67-0.91 4.01-2.04 9-4.39 17.8-7.24 26.6h-2c0.2 0.5 0.41 0.99 0.62 1.5 0.56 3.69-0.52 6.91-1.5 10.4-1.15 4.34-2.25 8.65-3.12 13.1-0.48 1.86-0.99 3.71-1.5 5.56-1.31 4.73-2.51 9.47-3.63 14.2-3.13 13.3-6.48 26.5-10.1 39.7-0.48 1.77-0.48 1.77-0.97 3.59-0.31 1.14-0.62 2.29-0.94 3.48-1.18 4.61-2.15 9.26-3.07 13.9-0.82 2.54-0.82 2.54-3.82 4.54-2.27-3.4-2.09-4.71-1.48-8.62 1.14-5.64 2.82-11.2 4.46-16.7 1.15-4.17 2.06-8.36 2.96-12.6 1.17-5.4 2.45-10.6 4.35-15.8 0.98-3.23 1.58-6.52 2.21-9.83 0.95-4.98 2.09-9.63 3.81-14.4 1.05-3.23 1.61-6.52 2.23-9.85 0.58-2.85 1.54-5.52 2.46-8.27 0.49-2.41 0.93-4.82 1.34-7.24 0.66-2.76 0.66-2.76 2.07-6.32 2.08-5.38 3.06-11 4.15-16.6 0.42-2.12 0.83-4.24 1.26-6.35 0.18-0.93 0.36-1.86 0.54-2.82 0.65-2.68 1.59-5.09 2.64-7.64 0.38-1.8 0.71-3.62 1-5.44 0.69-4.03 1.66-7.69 3-11.6 0.48-2.12 0.92-4.23 1.34-6.36 0.57-2.29 1.26-4.43 2.04-6.66 1.69-5.05 3-10.2 4.25-15.4 0.23-0.96 0.47-1.93 0.71-2.92 0.49-2.02 0.99-4.04 1.48-6.07 0.74-3.07 1.49-6.14 2.24-9.2l1.44-5.94c0.22-0.9 0.45-1.81 0.67-2.74 1.25-5.16 2.37-10.3 3.34-15.6 0.63-2.85 1.66-5.44 2.74-8.14 1.46-4 2.31-8.17 3.25-12.3 0.44-1.88 0.87-3.76 1.31-5.64 0.21-0.9 0.42-1.79 0.63-2.71 0.65-2.79 1.35-5.56 2.06-8.34 0.96-3.78 1.84-7.58 2.69-11.4 0.21-0.97 0.43-1.94 0.65-2.95 0.43-1.93 0.85-3.87 1.27-5.81 0.2-0.9 0.4-1.81 0.61-2.74 0.17-0.8 0.35-1.6 0.53-2.43 0.75-2.74 0.75-2.74 2.17-6.42 1.83-4.78 3.02-9.66 4.21-14.6 0.23-0.96 0.47-1.93 0.71-2.93 0.75-3.06 1.48-6.13 2.22-9.2 0.5-2.05 1-4.11 1.5-6.16 2.86-11.7 2.86-11.7 5.46-23.5 0.69-2.73 1.67-4.74 3.48-6.9zm-3 8 1 2zm-15 59 1 2zm-4 16 1 2zm-12 47 1 2zm-47 186 1 2zm-5 19 1 2z" fill="#F2F6F7"/>
<path transform="translate(657,161)" d="m0 0h2c2.18 4.05 3.57 7.71 4.5 12.2 0.25 1.18 0.5 2.36 0.75 3.58s0.5 2.44 0.75 3.7c0.25 1.19 0.5 2.38 0.75 3.61 0.5 2.41 1 4.81 1.49 7.22 1.02 4.91 2.09 9.8 3.16 14.7 0.5 2.47 0.86 4.86 1.1 7.36 0.48 3.45 1.49 6.23 2.73 9.46 1.2 3.38 1.92 6.83 2.64 10.3 0.16 0.76 0.32 1.52 0.48 2.31 0.52 2.46 1.02 4.92 1.53 7.39 0.35 1.7 0.7 3.41 1.06 5.11 2.26 10.9 4.44 21.8 6.42 32.8 1 5.41 2.31 10.6 3.95 15.8 1.07 3.68 1.67 7.41 2.25 11.2 0.77 5.33 0.77 5.33 2.39 10.4 1.32 3.45 1.97 6.94 2.64 10.6 0.14 0.75 0.28 1.51 0.43 2.29 0.46 2.4 0.91 4.81 1.36 7.22 1.95 10.5 4.06 20.9 6.77 31.3 0.78 3.14 1.35 6.24 1.85 9.43 0.48 1.78 0.98 3.55 1.5 5.31 1.2 4.27 1.92 8.3 2.19 12.7 0.2 2 0.2 2 1.24 3.67 1.38 2.96 1.91 5.84 2.54 9.04 0.13 0.65 0.26 1.29 0.39 1.96 0.41 2.06 0.8 4.12 1.2 6.18 0.27 1.37 0.54 2.75 0.82 4.12 1.91 9.75 1.91 9.75 2.65 14.2 0.59 3.5 1.46 6.92 2.35 10.4 2.22 8.77 4.35 17.6 6.12 26.4 0.31 1.33 0.62 2.67 0.94 4 1.13 4.99 1.82 10 2.5 15.1 0.4 2.83 0.4 2.83 1.54 4.85 1.04 2.11 1.47 3.83 1.84 6.15 0.12 0.77 0.25 1.54 0.37 2.33 0.13 0.79 0.25 1.59 0.37 2.4 0.13 0.78 0.25 1.57 0.38 2.37 0.74 4.6 1.41 9.21 2.06 13.8-0.99 0.33-1.98 0.66-3 1-1.43-2.66-2.35-5.04-2.94-8-0.77-3.74-1.67-7.43-2.62-11.1-1.09-4.3-1.94-8.48-2.44-12.9h-1l-4-24h-1c-0.84-3.98-1.68-7.97-2.51-12-0.28-1.35-0.57-2.7-0.85-4.06-1.47-6.98-2.92-13.9-3.64-21h-1c-0.21-1.06-0.41-2.11-0.63-3.2-0.76-3.9-1.53-7.8-2.31-11.7l-0.99-5.07c-0.48-2.43-0.96-4.85-1.44-7.28-0.15-0.76-0.3-1.52-0.45-2.3-0.45-3.52-0.45-3.52-2.18-6.45-0.27-1.36-0.49-2.74-0.68-4.11-0.13-0.84-0.25-1.68-0.38-2.54-0.25-1.76-0.5-3.53-0.75-5.29-0.12-0.84-0.25-1.68-0.37-2.55-0.11-0.77-0.22-1.54-0.33-2.33-0.52-2.31-1.39-4.09-2.49-6.18-1.59-6.33-2.25-12.5-2-19h-2c-1.02-3.87-1.8-7.8-2.59-11.7-0.31-1.53-0.63-3.05-0.94-4.57-0.49-2.39-0.97-4.78-1.46-7.18-0.47-2.31-0.94-4.63-1.42-6.94-0.14-0.72-0.29-1.43-0.44-2.17-0.58-2.88-1.22-5.63-2.15-8.42-0.42-2.06-0.81-4.13-1.19-6.2-0.22-1.21-0.45-2.42-0.68-3.66-0.23-1.26-0.46-2.53-0.69-3.83-0.24-1.27-0.47-2.55-0.71-3.86-0.58-3.15-1.16-6.3-1.73-9.45h-1c-0.2-1.06-0.4-2.12-0.61-3.21-0.75-3.95-1.51-7.89-2.27-11.8-0.33-1.71-0.65-3.41-0.98-5.12-0.47-2.45-0.94-4.91-1.41-7.37-0.15-0.76-0.29-1.51-0.44-2.29-0.81-4.2-1.93-8.11-3.29-12.2-0.52-2.39-0.99-4.79-1.44-7.19-0.26-1.37-0.51-2.74-0.77-4.11-0.4-2.14-0.79-4.27-1.19-6.41-0.38-2.08-0.77-4.15-1.16-6.23-0.34-1.85-0.34-1.85-0.69-3.74-0.64-3.23-0.64-3.23-1.75-5.82-1.26-3.14-1.82-6.23-2.44-9.56-0.12-0.67-0.25-1.33-0.38-2.02-0.4-2.12-0.79-4.24-1.18-6.36-0.39-2.11-0.78-4.23-1.18-6.35-0.36-1.92-0.72-3.84-1.07-5.76-0.71-3.26-1.66-6.3-2.75-9.45-0.45-2.52-0.45-2.52-0.69-4.81-0.08-0.77-0.17-1.54-0.26-2.33-0.02-0.62-0.03-1.23-0.05-1.86l1-1zm1 8 1 2zm14 64 1 2zm16 74 1 2zm14 64 1 2z" fill="#F2F6F7"/>
<path transform="translate(1127,263)" d="m0 0 2 2c-0.48 0.61-0.96 1.23-1.46 1.86-0.63 0.81-1.26 1.62-1.92 2.45-0.62 0.8-1.25 1.6-1.89 2.43-1.31 1.71-2.54 3.47-3.73 5.26h-2l-0.75 2.25c-1.35 2.98-2.92 4.49-5.25 6.75l-1.06 2.12c-0.94 1.88-0.94 1.88-3.94 3.88-0.68 1.33-1.35 2.66-2 4-0.99 0.5-0.99 0.5-2 1-0.74 1.27-0.74 1.27-1.5 2.56-0.74 1.21-0.74 1.21-1.5 2.44h-2c-0.25 0.72-0.49 1.44-0.75 2.19-1.37 3.07-3.09 5.24-5.25 7.81l-2 3h-2c-0.34 1.05-0.34 1.05-0.69 2.12-1.58 3.48-3.8 6.06-6.31 8.88-4.3 4.95-8.39 10-12.4 15.2-3.49 4.59-7.13 9.01-10.8 13.4-1.6 2.07-2.65 4.02-3.81 6.34-0.99 0.5-0.99 0.5-2 1-0.74 1.27-0.74 1.27-1.5 2.56-0.49 0.81-0.99 1.61-1.5 2.44h-2c-0.07 0.55-0.15 1.1-0.23 1.66-1.06 3.22-2.94 5.21-5.15 7.78-2.32 2.72-4.45 5.27-6.28 8.35-1.34 2.21-1.34 2.21-3.34 3.21l-1 2c-1 2-1 2-3 3-0.29 0.6-0.58 1.2-0.88 1.81-1.34 2.61-3.04 4.11-5.12 6.19-2.82 3.56-5.48 7.22-8 11h-2c-0.1 0.64-0.21 1.28-0.31 1.94-0.23 0.68-0.46 1.36-0.69 2.06-0.99 0.33-1.98 0.66-3 1-0.12 0.56-0.25 1.11-0.38 1.69-0.97 3.59-3.09 5.6-5.62 8.31h-2c-0.1 0.64-0.21 1.28-0.31 1.94-0.23 0.68-0.46 1.36-0.69 2.06-0.99 0.33-1.98 0.66-3 1-0.67 1.66-1.34 3.33-2 5-1.6 2.35-3.39 4.54-5.19 6.75l-3 3.75c-0.48 0.6-0.97 1.2-1.47 1.82-1.7 2.13-3.37 4.28-5.03 6.43-2.42 3.13-4.89 6.23-7.37 9.31-2.96 3.69-5.83 7.43-8.62 11.2-1.32 1.69-1.32 1.69-2.89 3.24-1.62 1.53-1.62 1.53-2.99 4.14-0.48 0.76-0.95 1.52-1.44 2.31h-2c-0.09 0.56-0.19 1.12-0.29 1.7-0.89 2.87-2.3 4.7-4.15 7.05-0.92 1.2-0.92 1.2-1.87 2.42-0.56 0.61-1.11 1.21-1.69 1.83h-2c-0.38 1.09-0.38 1.09-0.78 2.21-1.28 2.93-2.75 4.96-4.78 7.41-0.72 0.88-1.43 1.75-2.17 2.65-1.12 1.35-1.12 1.35-2.27 2.73-5.67 6.88-11.2 13.8-16.6 20.9-2.64 3.45-5.31 6.87-7.99 10.3-1.19 1.55-2.29 3.17-3.38 4.8h-2c-0.09 0.59-0.18 1.19-0.28 1.8-0.89 2.73-2.06 3.67-4.28 5.45-0.64 0.52-1.28 1.04-1.94 1.58-0.5 0.38-0.99 0.77-1.5 1.17v-4h2c-0.5-1.49-0.5-1.49-1-3l2-3h2c0.24-0.71 0.47-1.42 0.72-2.15 1.49-3.33 3.41-5.65 5.78-8.41 2.62-3.07 4.76-5.81 6.5-9.44l5-5c0.92-1.26 1.81-2.53 2.69-3.81 1.14-1.58 1.14-1.58 2.31-3.19h2c1.12-2.12 1.12-2.12 2-5 1.31-1.69 2.64-3.35 4-5l2-3h2c0.25-0.73 0.5-1.46 0.75-2.22 1.36-3.03 2.92-4.88 5.19-7.28 2.23-2.37 4.04-4.47 5.69-7.28 0.45-0.73 0.9-1.47 1.37-2.22h2c0.25-0.72 0.5-1.45 0.75-2.19 1.37-3.09 3-5.18 5.19-7.75 3.67-4.37 7.24-8.8 10.8-13.3 8.72-11.2 8.72-11.2 13.3-15.8 2.04-2.55 3.62-5.04 5-8l1-2h2c0.27-0.76 0.54-1.53 0.81-2.31 1.15-2.6 2.14-3.82 4.19-5.69l1-2h2v-3c1.29-1.38 2.63-2.71 4-4 1.35-1.66 2.68-3.32 4-5 0.65-0.8 1.3-1.6 1.96-2.43 3.08-3.81 6.1-7.59 8.85-11.6 2.19-2.94 2.19-2.94 5.19-3.94 0.7-1.65 1.36-3.32 2-5 1.3-1.91 2.66-3.79 4.06-5.62 1.2-1.57 1.2-1.57 2.41-3.16 3.18-4.08 6.47-8.07 9.78-12 1.77-2.05 1.77-2.05 2.75-4.18h2c0.4-1.21 0.4-1.21 0.81-2.44 0.39-0.84 0.79-1.69 1.19-2.56 0.99-0.33 1.98-0.66 3-1 0.29-0.74 0.58-1.49 0.88-2.25 1.39-3.42 3.5-5.19 6.12-7.75 0.29-0.59 0.58-1.19 0.88-1.8 1.51-2.96 3.51-5.32 5.62-7.89 0.79-0.97 1.59-1.94 2.41-2.95 2.09-2.36 2.09-2.36 4.09-3.36l1-2c1-2 1-2 3-3 0.7-1.31 1.36-2.65 2-4 1.5-2.75 1.5-2.75 3-5h2c0.34-0.79 0.34-0.79 0.68-1.59 1.79-3.27 4.08-6.11 6.38-9.03 3.26-4 3.26-4 5.94-8.38h2c0.21-0.68 0.41-1.36 0.62-2.06 2-4.27 5.08-8.79 9.38-10.9 0.43-1.07 0.87-2.14 1.31-3.25 1.53-3.77 3.69-5.97 6.69-8.75 1.35-1.65 2.68-3.32 4-5 0.99-1.24 1.99-2.47 3-3.69 0.47-0.58 0.95-1.16 1.44-1.76 1.72-1.7 3.35-2.58 5.56-3.55z" fill="#EEF2F3"/>
<path transform="translate(434,262)" d="m0 0c3.82 1.27 4.05 2.57 6 6 0.72 0.89 1.44 1.77 2.19 2.69 1.81 2.31 1.81 2.31 1.81 4.31 0.99 0.33 1.98 0.66 3 1 1.38 1.97 2.71 3.97 4 6 1.7 2.27 3.48 4.47 5.25 6.69 4.19 5.27 8.21 10.6 12.1 16.1 1.45 1.93 2.95 3.53 4.66 5.21 1.35 1.99 2.69 3.99 4 6 0.58 0.74 1.15 1.49 1.75 2.25 1.25 1.75 1.25 1.75 1.25 3.75 0.99 0.33 1.98 0.66 3 1v3h2c1.59 1.95 1.59 1.95 3.5 4.69 3.06 4.32 6.19 8.56 9.44 12.8 4.75 6.14 9.42 12.3 14.1 18.6 0.58 0.73 1.16 1.46 1.75 2.21 1.25 1.79 1.25 1.79 1.25 3.79 1.49 0.5 1.49 0.5 3 1 1.05 1.64 2.05 3.3 3 5l2 2c2.29 2.65 4.02 5.03 5.56 8.19 1.28 3.05 1.28 3.05 4.44 4.81 0.67 1.33 1.33 2.67 2 4 0.61 0.6 1.21 1.2 1.84 1.82 2.24 2.26 4.01 4.59 5.85 7.18 5.23 7.29 10.6 14.5 16.1 21.6 0.46 0.59 0.93 1.18 1.4 1.79 0.9 1.15 1.8 2.3 2.71 3.44 3.1 3.97 3.1 3.97 3.1 6.19 0.99 0.33 1.98 0.66 3 1 1.04 1.64 2.03 3.32 3 5 1.71 2.3 3.51 4.52 5.31 6.75 3.09 3.87 6.09 7.7 8.75 11.9 2.75 4.28 5.97 8.11 9.25 12 9.69 11.5 9.69 11.5 9.69 14.4h3c0.33 0.78 0.66 1.57 1 2.38 2.03 4.06 4.93 7.38 7.8 10.9 2.99 3.73 5.76 7.6 8.54 11.5 1.61 2.3 1.61 2.3 3.66 4.25 1 1.26 1.97 2.53 2.94 3.81 0.75 1 0.75 1 1.52 2.02 1.54 2.17 1.54 2.17 2.87 4.48 2.2 3.54 4.79 6.66 7.42 9.88 4.15 5.12 8.14 10.3 11.8 15.8 1.39 2.1 1.39 2.1 3.08 4.13 1.32 1.92 1.32 1.92 1.32 4.92-8.01-3.48-13-12.6-18-19.4-4.56-6.27-9.21-12.5-14-18.6-2.28-2.91-4.55-5.83-6.81-8.75-0.57-0.73-1.15-1.46-1.73-2.21-2.74-3.54-5.12-6.7-6.46-11h-2c-1.26-1.43-1.26-1.43-2.69-3.44-2.78-3.84-5.66-7.57-8.6-11.3-1.27-1.69-2.47-3.43-3.63-5.2-2.07-3.05-4.3-5.78-6.7-8.57-4.14-4.87-7.89-9.92-11.6-15.1-3.43-4.88-7.07-9.57-10.8-14.2-4.47-5.62-8.77-11.4-13-17.1-1.04-1.4-2.08-2.79-3.12-4.19-0.7-0.93-0.7-0.93-1.4-1.87-1.09-1.43-2.21-2.85-3.33-4.25-0.63-0.79-1.25-1.57-1.9-2.38-0.57-0.7-1.14-1.41-1.73-2.13-1.52-2.18-1.52-2.18-2.54-4.89-0.32-0.75-0.65-1.51-0.98-2.29-0.99-0.33-1.98-0.66-3-1-1.66-2.12-3.18-4.22-4.69-6.44-0.9-1.29-1.8-2.58-2.7-3.88-0.45-0.63-0.89-1.27-1.35-1.92-1.63-2.28-3.36-4.46-5.14-6.64-3.63-4.47-7.14-9.03-10.6-13.6-0.54-0.71-1.08-1.42-1.64-2.14-0.5-0.67-1-1.33-1.52-2.02-0.45-0.59-0.9-1.19-1.37-1.8-0.97-1.54-0.97-1.54-0.97-3.54h-2c-1.02-1.66-2.01-3.33-3-5-2.27-3.05-4.65-6.01-7-9-5.5-7.07-10.9-14.2-16.1-21.5-3.27-4.47-6.71-8.81-10.1-13.2-1.39-1.77-2.77-3.54-4.16-5.32-0.67-0.85-0.67-0.85-1.36-1.72-3.2-4.11-3.2-4.11-3.2-6.34h-2c-1.59-1.95-1.59-1.95-3.5-4.69-3.12-4.4-6.32-8.73-9.62-13-0.64-0.82-0.64-0.82-1.28-1.66-1.84-2.4-3.7-4.77-5.6-7.11-0.56-0.69-1.12-1.39-1.69-2.1-0.48-0.58-0.95-1.16-1.45-1.76-0.86-1.68-0.86-1.68-0.5-3.89 0.21-0.59 0.42-1.18 0.64-1.79z" fill="#F0F4F5"/>
<path transform="translate(1296,454)" d="m0 0c-1 3-1 3-2.59 3.94-0.68 0.25-1.36 0.51-2.05 0.78-0.74 0.29-1.48 0.58-2.25 0.89-0.78 0.29-1.56 0.59-2.36 0.89-4.84 1.87-9.37 3.68-13.8 6.5-7 4.04-14.2 7.56-21.5 11-6.9 3.21-13.7 6.61-20.5 10-1.62 0.81-3.25 1.63-4.88 2.44-0.79 0.39-1.58 0.79-2.39 1.2-2.09 1.04-4.18 2.09-6.27 3.13l-1.94 0.97c-1.35 0.68-2.7 1.35-4.05 2.02-3.78 1.89-7.55 3.78-11.3 5.69-0.8 0.4-1.61 0.81-2.44 1.22-1.56 0.79-3.11 1.57-4.67 2.36-2.8 1.4-5.54 2.78-8.46 3.91-5.04 2.08-9.76 4.89-14.5 7.52-4.36 2.34-8.01 4.14-13 4.54v2c-0.56 0.24-1.11 0.48-1.69 0.73-5.18 2.28-10.3 4.7-15.3 7.27-1.33 0.67-2.67 1.33-4 2-0.62 0.31-1.25 0.63-1.89 0.95-1.32 0.65-2.63 1.31-3.95 1.96-3.49 1.73-6.95 3.5-10.4 5.34-1.06 0.57-1.06 0.57-2.14 1.15-1.43 0.78-2.86 1.55-4.28 2.33-4.07 2.18-8.09 3.98-12.4 5.53-3.2 1.22-6.2 2.79-9.24 4.36-6.09 3.11-12.2 6.06-18.4 8.94-6.49 3.03-12.7 6.27-18.8 10-3.54 2.04-6.34 3.41-10.4 3.41v2c-0.75 0.34-1.51 0.68-2.28 1.03-8.36 3.82-16.6 7.86-24.8 12-3.3 1.67-6.61 3.32-9.92 4.97-1.93 0.96-3.86 1.93-5.78 2.89-1.35 0.68-2.7 1.35-4.05 2.02-3.26 1.62-6.51 3.26-9.73 4.94-1.05 0.55-2.11 1.09-3.19 1.65-1.38 0.73-1.38 0.73-2.8 1.47-2.45 1.03-2.45 1.03-6.45 1.03v2c-0.72 0.28-1.43 0.56-2.17 0.85-7.03 2.83-13.5 6.06-20 9.89-2.81 1.26-2.81 1.26-5.19 0.96-0.53-0.23-1.07-0.46-1.62-0.7 1-3 1-3 3.21-4.17 0.9-0.33 1.8-0.67 2.73-1.02 0.89-0.34 1.79-0.69 2.71-1.04 2.35-0.77 2.35-0.77 4.35-0.77 0.5-0.99 0.5-0.99 1-2 0.95-0.31 1.9-0.62 2.88-0.94 3.08-0.77 3.08-0.77 4.56-2.62 1.56-1.44 1.56-1.44 5.06-1.88 3.57-0.15 3.57-0.15 5-2.62 0.5-0.64 0.99-1.28 1.5-1.94 3.69-0.25 3.69-0.25 7 0 0.04-0.6 0.08-1.2 0.12-1.81 1.34-3.33 3.68-3.81 6.88-5.19 0.7-0.37 1.4-0.74 2.12-1.12 1.88-0.88 1.88-0.88 3.94-1.38 2.24-0.47 2.24-0.47 4.94-2.5 1.65-0.9 3.32-1.77 5-2.62 0.87-0.45 1.73-0.9 2.62-1.36 2.38-1.02 2.38-1.02 5.38-1.02 1.02-0.98 2.02-1.98 3-3 2.08-1.18 4.13-2.05 6.38-2.88 2.73-1.07 2.73-1.07 5.33-2.99 3.42-2.21 6.79-3.8 10.5-5.38 0.62-0.27 1.25-0.54 1.89-0.81 4.59-1.94 4.59-1.94 6.86-1.94l2-2h2c0.41-0.45 0.83-0.91 1.25-1.38 2.33-2.16 4.75-2.64 7.75-3.62 1.34-0.99 2.67-1.99 4-3 1.62-0.91 3.27-1.79 4.94-2.62 0.83-0.43 1.67-0.86 2.52-1.29 2.53-1.08 4.86-1.57 7.54-2.09 0.49-0.5 0.99-0.99 1.5-1.5 2-2 3.75-1.96 6.5-2.5 0.66-0.5 1.32-0.99 2-1.5 2.33-1.74 4.15-2.1 7-2.5v-2c4.02-1.97 8.04-3.92 12.1-5.88 1.7-0.83 1.7-0.83 3.44-1.68 9.46-4.58 9.46-4.58 13.6-5.64 3.11-0.86 3.71-1.59 5.88-3.8 1.7-1.03 1.7-1.03 3.55-1.94 0.68-0.34 1.36-0.67 2.06-1.02 1.06-0.52 1.06-0.52 2.14-1.04 0.69-0.34 1.38-0.69 2.09-1.04 16.2-7.96 16.2-7.96 23.2-7.96l1-4c3.46-0.5 3.46-0.5 7-1l1-3c2.8-1.54 2.8-1.54 6.31-3.06 1.15-0.51 2.3-1.02 3.49-1.54 1.06-0.46 2.11-0.92 3.2-1.4 2.36-1.15 4.67-2.35 7-3.56 3-1.44 3-1.44 5.31-2 0.56-0.15 1.12-0.29 1.69-0.44l1-2c2.32-0.41 4.66-0.74 7-1v-2c13.6-6.52 13.6-6.52 20-8v-2c1.27-0.67 2.54-1.34 3.81-2 0.71-0.37 1.42-0.74 2.15-1.12 2.04-0.88 2.04-0.88 5.04-0.88l2-3c2.27-1.16 4.47-2.17 6.81-3.12 0.93-0.4 0.93-0.4 1.87-0.81 2.7-1.13 5.27-2.06 8.14-2.62 2.38-0.28 2.38-0.28 4.18-2.45 0.66-0.14 1.32-0.29 2-0.44 2.39-0.43 2.39-0.43 4-3.56 2.16-0.51 2.16-0.51 4.62-0.69 0.82-0.06 1.64-0.13 2.48-0.2 0.63-0.03 1.25-0.07 1.9-0.11 0.12-0.92 0.12-0.92 0.23-1.86 0.77-2.14 0.77-2.14 2.66-3.44 7.83-3.36 7.83-3.36 12.1-1.7z" fill="#E9EDEE"/>
<path transform="translate(719 1136)" d="m0 0c3.74 1.22 4.76 2.9 7.06 6-0.59 1.08-1.18 2.15-1.79 3.26-9.66 16.8-9.66 16.8-13.3 35.5 0.01 1.2 0.01 1.2 0.03 2.42 0.01 0.61 0.02 1.21 0.03 1.83 4.06 1.35 7.76 1.67 12 1 2.86-2.1 2.86-2.1 5-5 1.39-1.3 1.39-1.3 2.82-2.62 2.52-2.21 2.52-2.21 2.18-5.38 1.98-0.49 1.98-0.49 4-1-2.81 8.06-5.77 15.2-11 22-0.56 0.76-1.11 1.51-1.69 2.29-2.8 3.55-4.54 5.44-8.87 6.96-4.25-0.31-6.22-1.5-9.44-4.25-0.49-1.48-0.49-1.48-1-3h-2c-1.62-3.24-1.34-6.79-1.52-10.4-0.53-2.91-1.19-3.83-3.48-5.63l1-2h2c2.87-6.83 4.99-13.9 7-21 0.31-0.89 0.62-1.77 0.94-2.69 1.33-4.14 2.25-8.35 3.18-12.6 1.33-4.09 2.43-5.71 6.82-5.71z" fill="#F0F4F5"/>
<path transform="translate(1061,638)" d="m0 0-1 3c-2.44 0.8-4.75 1.4-7.25 1.94-1.49 0.34-2.97 0.68-4.46 1.03-0.74 0.17-1.47 0.35-2.23 0.52-2.69 0.67-5.31 1.51-7.94 2.39-9.97 3.17-20.3 5.23-30.5 7.52-3.49 0.8-6.93 1.68-10.4 2.66-4.17 1.06-7.96 1.09-12.2 0.94l-1 2c-2.7 0.64-5.33 1.17-8.06 1.62-0.76 0.14-1.52 0.27-2.3 0.41-1.88 0.33-3.76 0.65-5.64 0.97l1-4c0.93-0.14 1.86-0.29 2.81-0.44 3.2-0.48 3.2-0.48 6.19-1.56 0.97-0.14 1.94-0.29 2.94-0.44 2.85-0.52 4.53-1.26 7.06-2.56 4.5-1.35 9.03-2.53 13.6-3.62 1.23-0.3 2.46-0.59 3.73-0.9 1.27-0.3 2.54-0.6 3.85-0.92 2.51-0.6 5.03-1.2 7.54-1.81 1.22-0.29 2.44-0.58 3.69-0.88 4.35-1.06 8.67-2.19 13-3.34 2.59-0.53 2.59-0.53 5.24-0.48 2.62 0.16 2.62 0.16 5.35-2.05 2.13-0.63 4.28-1.18 6.44-1.69 1.13-0.27 2.26-0.54 3.43-0.82 2.88-0.45 4.44-0.47 7.13 0.51z" fill="#E8EBEC"/>
<path transform="translate(455 1102)" d="m0 0c5.53 1.81 9.1 7.36 12 12.2 2.28 4.72 3.05 8.43 2.6 13.6-2.5-1.38-2.5-1.38-5-3v-2c-0.82-0.83-1.65-1.65-2.5-2.5l-2.5-2.5v-2c-0.99-0.16-0.99-0.16-2-0.31-3.84-0.88-7.33-2.26-11-3.69 0.26-3.83 0.61-5.58 3.25-8.44 2.75-1.56 2.75-1.56 5.17-1.41z" fill="#EEF2F3"/>
<path transform="translate(1018 1110)" d="m0 0c3.25 2.23 5.4 4.99 7.19 8.5 0.07 3.3-0.49 4.41-2.63 6.88-3.45 1.63-5.73 1.05-9.37 0.12-1.73-1.27-1.73-1.27-3-3-0.18-2.16-0.18-2.16 0.12-4.5 0.09-0.77 0.17-1.55 0.26-2.34 0.72-2.52 1.61-3.52 3.62-5.16 2-1 2-1 3.81-0.5z" fill="#F0F4F5"/>
<path transform="translate(728 1109)" d="m0 0c3.5 1.02 4.74 2.79 6.68 5.8 0.88 1.95 0.88 1.95 0.94 5.2-1.23 3.2-1.94 4.32-5.06 5.75-4.27-0.18-6.81-1.18-10-4 0.46-5.78 1.32-10.9 7.44-12.8z" fill="#EFF3F4"/>
<path transform="translate(975,612)" d="m0 0v3c-0.72 0.28-1.43 0.56-2.17 0.85-7.03 2.83-13.5 6.06-20 9.89-2.81 1.26-2.81 1.26-5.19 0.96-0.53-0.23-1.07-0.46-1.62-0.7 1-3 1-3 3.21-4.17 0.9-0.33 1.8-0.67 2.73-1.02 0.89-0.34 1.79-0.69 2.71-1.04 2.35-0.77 2.35-0.77 4.35-0.77l1-2c0.95-0.31 1.9-0.62 2.88-0.94 3.06-1.04 4.02-1.76 6.12-4.06 3-1 3-1 6 0z" fill="#F2F6F7"/>
<path transform="translate(1296,454)" d="m0 0c-1 3-1 3-4.05 4.64-1.27 0.55-2.55 1.08-3.83 1.61-0.63 0.28-1.27 0.56-1.93 0.85-4.8 2.03-4.8 2.03-8.19 0.9 0.99-0.33 1.98-0.66 3-1 0.14-0.63 0.28-1.27 0.42-1.92 0.58-2.08 0.58-2.08 2.47-3.38 7.83-3.36 7.83-3.36 12.1-1.7z" fill="#E7EBEC"/>
<path transform="translate(985,657)" d="m0 0-1 3c-7.92 1.49-7.92 1.49-16 3l1-4c0.93-0.14 1.86-0.29 2.81-0.44 11.3-2 11.3-2 13.2-1.56z" fill="#E0E4E5"/>
<path transform="translate(658 1120)" d="m0 0c1.16-0.02 2.31-0.03 3.5-0.05 0.97 0.12 1.94 0.24 2.94 0.36l2 3c-4.22 1.14-7.53 0.8-11.8 0.07-1.16-0.2-2.32-0.39-3.51-0.59-0.88-0.16-1.77-0.32-2.67-0.48 3.57-2.38 5.32-2.3 9.56-2.31z" fill="#F2F6F7"/>
<path transform="translate(859 1120)" d="m0 0c1.11-0.04 1.11-0.04 2.23-0.08 2.54 0.42 3.4 1.39 5.02 3.33l-1 1c-6.02-0.21-12.1-0.85-18-2v-1c3.92-0.67 7.77-1.12 11.8-1.25z" fill="#F2F6F7"/>
<path transform="translate(616,901)" d="m0 0h1v14h-1v-14z" fill="#060707"/>
<path transform="translate(617,1178)" d="m0 0h1v9h-1v-9z" fill="#F2F6F7"/>
<path transform="translate(769,352)" d="m0 0h1v7h-1v-7z" fill="#F2F6F7"/>
<path transform="translate(943,828)" d="m0 0h6v1h-6v-1z" fill="#060707"/>
<path transform="translate(1106,1171)" d="m0 0 2 1z" fill="#000102"/>
<path transform="translate(550,1171)" d="m0 0 2 1z" fill="#000102"/>
<path transform="translate(553,1170)" d="m0 0 2 1z" fill="#060707"/>
<path transform="translate(974,610)" d="m0 0 2 1z" fill="#797B7C"/>
<path transform="translate(1210,493)" d="m0 0 2 1z" fill="#797B7C"/>
<path transform="translate(1230,483)" d="m0 0 2 1z" fill="#7C7E7F"/>
</svg>
